<?plantuml 1.2026.2?><svg xmlns="http://www.w3.org/2000/svg" xmlns:xlink="http://www.w3.org/1999/xlink" contentStyleType="text/css" data-diagram-type="DESCRIPTION" height="918px" preserveAspectRatio="none" style="width:975px;height:918px;background:#FFFFFF;" version="1.1" viewBox="0 0 975 918" width="975px" zoomAndPan="magnify"><title>RTOS Sim Deployment (CLI Artifacts + UI Threading)</title><defs/><g><g class="title" data-source-line="4"><text fill="#000000" font-family="Verdana" font-size="22" font-weight="bold" lengthAdjust="spacing" textLength="567.2279" x="199.711" y="38.5181">RTOS Sim Deployment (CLI Artifacts + UI Threading)</text></g><!--cluster Host Machine--><g class="cluster" data-qualified-name="Host Machine" data-source-line="9" id="ent0004"><polygon fill="#FFFFFF" points="113.19,71.9641,123.19,61.9641,958.65,61.9641,958.65,807.9641,948.65,817.9641,113.19,817.9641,113.19,71.9641" style="stroke:#000000;stroke-width:1;"/><line style="stroke:#000000;stroke-width:1;" x1="948.65" x2="958.65" y1="71.9641" y2="61.9641"/><line style="stroke:#000000;stroke-width:1;" x1="113.19" x2="948.65" y1="71.9641" y2="71.9641"/><line style="stroke:#000000;stroke-width:1;" x1="948.65" x2="948.65" y1="71.9641" y2="817.9641"/><text fill="#000000" font-family="Verdana" font-size="14" font-weight="bold" lengthAdjust="spacing" textLength="95.8436" x="483.9982" y="89.93">Host Machine</text></g><!--cluster CLIProc--><g class="cluster" data-qualified-name="Host Machine.CLIProc" data-source-line="10" id="ent0005"><polygon fill="#FFFFFF" points="222.43,122.9641,232.43,112.9641,720.72,112.9641,720.72,211.9641,710.72,221.9641,222.43,221.9641,222.43,122.9641" style="stroke:#000000;stroke-width:1;"/><line style="stroke:#000000;stroke-width:1;" x1="710.72" x2="720.72" y1="122.9641" y2="112.9641"/><line style="stroke:#000000;stroke-width:1;" x1="222.43" x2="710.72" y1="122.9641" y2="122.9641"/><line style="stroke:#000000;stroke-width:1;" x1="710.72" x2="710.72" y1="122.9641" y2="221.9641"/><text fill="#000000" font-family="Verdana" font-size="14" font-weight="bold" lengthAdjust="spacing" textLength="79.1137" x="428.0181" y="140.93">CLI Process</text></g><!--cluster UIProc--><g class="cluster" data-qualified-name="Host Machine.UIProc" data-source-line="15" id="ent0008"><polygon fill="#FFFFFF" points="137.19,521.9641,147.19,511.9641,934.65,511.9641,934.65,783.9641,924.65,793.9641,137.19,793.9641,137.19,521.9641" style="stroke:#000000;stroke-width:1;"/><line style="stroke:#000000;stroke-width:1;" x1="924.65" x2="934.65" y1="521.9641" y2="511.9641"/><line style="stroke:#000000;stroke-width:1;" x1="137.19" x2="924.65" y1="521.9641" y2="521.9641"/><line style="stroke:#000000;stroke-width:1;" x1="924.65" x2="924.65" y1="521.9641" y2="793.9641"/><text fill="#000000" font-family="Verdana" font-size="14" font-weight="bold" lengthAdjust="spacing" textLength="72.8697" x="495.4851" y="539.93">UI Process</text></g><!--cluster WorkerThread--><g class="cluster" data-qualified-name="Host Machine.UIProc.WorkerThread" data-source-line="19" id="ent0011"><polygon fill="#FFFFFF" points="161.19,572.9641,171.19,562.9641,720.72,562.9641,720.72,680.9641,710.72,690.9641,161.19,690.9641,161.19,572.9641" style="stroke:#000000;stroke-width:1;"/><line style="stroke:#000000;stroke-width:1;" x1="710.72" x2="720.72" y1="572.9641" y2="562.9641"/><line style="stroke:#000000;stroke-width:1;" x1="161.19" x2="710.72" y1="572.9641" y2="572.9641"/><line style="stroke:#000000;stroke-width:1;" x1="710.72" x2="710.72" y1="572.9641" y2="690.9641"/><text fill="#000000" font-family="Verdana" font-size="14" font-weight="bold" lengthAdjust="spacing" textLength="127.7355" x="373.0872" y="590.93">SimulationWorker</text><text fill="#000000" font-family="Verdana" font-size="14" font-weight="bold" lengthAdjust="spacing" textLength="69.8877" x="402.0111" y="609.998">(QThread)</text></g><!--cluster Artifacts--><g class="cluster" data-qualified-name="Host Machine.Artifacts" data-source-line="25" id="ent0014"><path d="M586.4,245.9641 L652.4437,245.9641 A3.75,3.75 0 0 1 654.9437,248.4641 L661.9437,271.032 L713.45,271.032 A2.5,2.5 0 0 1 715.95,273.532 L715.95,485.4641 A2.5,2.5 0 0 1 713.45,487.9641 L586.4,487.9641 A2.5,2.5 0 0 1 583.9,485.4641 L583.9,248.4641 A2.5,2.5 0 0 1 586.4,245.9641" fill="#FFFFFF" style="stroke:#000000;stroke-width:1;"/><line style="stroke:#000000;stroke-width:1;" x1="583.9" x2="661.9437" y1="271.032" y2="271.032"/><text fill="#000000" font-family="Verdana" font-size="14" font-weight="bold" lengthAdjust="spacing" textLength="65.0437" x="587.9" y="262.93">artifacts/</text></g><!--entity CmdRun--><g class="entity" data-qualified-name="Host Machine.CLIProc.CmdRun" data-source-line="11" id="ent0006"><rect fill="#FFFFFF" height="49.0679" rx="2.5" ry="2.5" style="stroke:#000000;stroke-width:1;" width="97.7218" x="238.43" y="156.4241"/><rect fill="#FFFFFF" height="10" style="stroke:#000000;stroke-width:1;" width="15" x="316.1518" y="161.4241"/><rect fill="#FFFFFF" height="2" style="stroke:#000000;stroke-width:1;" width="4" x="314.1518" y="163.4241"/><rect fill="#FFFFFF" height="2" style="stroke:#000000;stroke-width:1;" width="4" x="314.1518" y="167.4241"/><text fill="#000000" font-family="Verdana" font-size="14" lengthAdjust="spacing" textLength="57.7218" x="253.43" y="191.39">cmd_run</text></g><!--entity CliEngine--><g class="entity" data-qualified-name="Host Machine.CLIProc.CliEngine" data-source-line="12" id="ent0007"><rect fill="#FFFFFF" height="49.0679" rx="2.5" ry="2.5" style="stroke:#000000;stroke-width:1;" width="109.5937" x="595.13" y="156.4241"/><rect fill="#FFFFFF" height="10" style="stroke:#000000;stroke-width:1;" width="15" x="684.7237" y="161.4241"/><rect fill="#FFFFFF" height="2" style="stroke:#000000;stroke-width:1;" width="4" x="682.7237" y="163.4241"/><rect fill="#FFFFFF" height="2" style="stroke:#000000;stroke-width:1;" width="4" x="682.7237" y="167.4241"/><text fill="#000000" font-family="Verdana" font-size="14" lengthAdjust="spacing" textLength="69.5937" x="610.13" y="191.39">SimEngine</text></g><!--entity MainWindow--><g class="entity" data-qualified-name="Host Machine.UIProc.MainWindow" data-source-line="16" id="ent0009"><rect fill="#FFFFFF" height="68.1358" rx="2.5" ry="2.5" style="stroke:#000000;stroke-width:1;" width="151.0616" x="574.4" y="709.8941"/><rect fill="#FFFFFF" height="10" style="stroke:#000000;stroke-width:1;" width="15" x="705.4616" y="714.8941"/><rect fill="#FFFFFF" height="2" style="stroke:#000000;stroke-width:1;" width="4" x="703.4616" y="716.8941"/><rect fill="#FFFFFF" height="2" style="stroke:#000000;stroke-width:1;" width="4" x="703.4616" y="720.8941"/><text fill="#000000" font-family="Verdana" font-size="14" lengthAdjust="spacing" textLength="86.1837" x="589.4" y="744.86">MainWindow</text><text fill="#000000" font-family="Verdana" font-size="14" lengthAdjust="spacing" textLength="111.0616" x="589.4" y="763.928">(Qt Main Thread)</text></g><!--entity RunController--><g class="entity" data-qualified-name="Host Machine.UIProc.RunController" data-source-line="17" id="ent0010"><rect fill="#FFFFFF" height="49.0679" rx="2.5" ry="2.5" style="stroke:#000000;stroke-width:1;" width="132.1896" x="786.46" y="604.4241"/><rect fill="#FFFFFF" height="10" style="stroke:#000000;stroke-width:1;" width="15" x="898.6496" y="609.4241"/><rect fill="#FFFFFF" height="2" style="stroke:#000000;stroke-width:1;" width="4" x="896.6496" y="611.4241"/><rect fill="#FFFFFF" height="2" style="stroke:#000000;stroke-width:1;" width="4" x="896.6496" y="615.4241"/><text fill="#000000" font-family="Verdana" font-size="14" lengthAdjust="spacing" textLength="92.1896" x="801.46" y="639.39">RunController</text></g><!--entity WorkerExec--><g class="entity" data-qualified-name="Host Machine.UIProc.WorkerThread.WorkerExec" data-source-line="20" id="ent0012"><rect fill="#FFFFFF" height="49.0679" rx="2.5" ry="2.5" style="stroke:#000000;stroke-width:1;" width="220.2073" x="177.19" y="625.4241"/><rect fill="#FFFFFF" height="10" style="stroke:#000000;stroke-width:1;" width="15" x="377.3973" y="630.4241"/><rect fill="#FFFFFF" height="2" style="stroke:#000000;stroke-width:1;" width="4" x="375.3973" y="632.4241"/><rect fill="#FFFFFF" height="2" style="stroke:#000000;stroke-width:1;" width="4" x="375.3973" y="636.4241"/><text fill="#000000" font-family="Verdana" font-size="14" lengthAdjust="spacing" textLength="180.2073" x="192.19" y="660.39">SimulationWorker._execute</text></g><!--entity UiEngine--><g class="entity" data-qualified-name="Host Machine.UIProc.WorkerThread.UiEngine" data-source-line="21" id="ent0013"><rect fill="#FFFFFF" height="49.0679" rx="2.5" ry="2.5" style="stroke:#000000;stroke-width:1;" width="109.5937" x="595.13" y="625.4241"/><rect fill="#FFFFFF" height="10" style="stroke:#000000;stroke-width:1;" width="15" x="684.7237" y="630.4241"/><rect fill="#FFFFFF" height="2" style="stroke:#000000;stroke-width:1;" width="4" x="682.7237" y="632.4241"/><rect fill="#FFFFFF" height="2" style="stroke:#000000;stroke-width:1;" width="4" x="682.7237" y="636.4241"/><text fill="#000000" font-family="Verdana" font-size="14" lengthAdjust="spacing" textLength="69.5937" x="610.13" y="660.39">SimEngine</text></g><!--entity EventsFile--><g class="entity" data-qualified-name="Host Machine.Artifacts.EventsFile" data-source-line="26" id="ent0015"><path d="M600.87,360.9241 L600.87,394.992 A2.5,2.5 0 0 0 603.37,397.492 L696.4897,397.492 A2.5,2.5 0 0 0 698.9897,394.992 L698.9897,368.4241 L688.9897,358.4241 L603.37,358.4241 A2.5,2.5 0 0 0 600.87,360.9241" fill="#FFFFFF" style="stroke:#000000;stroke-width:1;"/><path d="M688.9897,358.4241 L688.9897,365.9241 A2.5,2.5 0 0 0 691.4897,368.4241 L698.9897,368.4241" fill="#FFFFFF" style="stroke:#000000;stroke-width:1;"/><text fill="#000000" font-family="Verdana" font-size="14" lengthAdjust="spacing" textLength="78.1197" x="610.87" y="383.39">events.jsonl</text></g><!--entity MetricsFile--><g class="entity" data-qualified-name="Host Machine.Artifacts.MetricsFile" data-source-line="27" id="ent0016"><path d="M599.9,286.9241 L599.9,320.992 A2.5,2.5 0 0 0 602.4,323.492 L697.4517,323.492 A2.5,2.5 0 0 0 699.9517,320.992 L699.9517,294.4241 L689.9517,284.4241 L602.4,284.4241 A2.5,2.5 0 0 0 599.9,286.9241" fill="#FFFFFF" style="stroke:#000000;stroke-width:1;"/><path d="M689.9517,284.4241 L689.9517,291.9241 A2.5,2.5 0 0 0 692.4517,294.4241 L699.9517,294.4241" fill="#FFFFFF" style="stroke:#000000;stroke-width:1;"/><text fill="#000000" font-family="Verdana" font-size="14" lengthAdjust="spacing" textLength="80.0517" x="609.9" y="309.39">metrics.json</text></g><!--entity AuditFile--><g class="entity" data-qualified-name="Host Machine.Artifacts.AuditFile" data-source-line="28" id="ent0017"><path d="M607.44,434.9241 L607.44,468.992 A2.5,2.5 0 0 0 609.94,471.492 L689.9138,471.492 A2.5,2.5 0 0 0 692.4138,468.992 L692.4138,442.4241 L682.4138,432.4241 L609.94,432.4241 A2.5,2.5 0 0 0 607.44,434.9241" fill="#FFFFFF" style="stroke:#000000;stroke-width:1;"/><path d="M682.4138,432.4241 L682.4138,439.9241 A2.5,2.5 0 0 0 684.9138,442.4241 L692.4138,442.4241" fill="#FFFFFF" style="stroke:#000000;stroke-width:1;"/><text fill="#000000" font-family="Verdana" font-size="14" lengthAdjust="spacing" textLength="64.9738" x="617.44" y="457.39">audit.json</text></g><!--entity CLIUser--><g class="entity" data-qualified-name="CLIUser" data-source-line="6" id="ent0002"><ellipse cx="38.5939" cy="149.9241" fill="#FFFFFF" rx="8" ry="8" style="stroke:#000000;stroke-width:1;"/><path d="M38.5939,157.9241 L38.5939,184.9241 M25.5939,165.9241 L51.5939,165.9241 M38.5939,184.9241 L25.5939,199.9241 M38.5939,184.9241 L51.5939,199.9241" fill="none" style="stroke:#000000;stroke-width:1;"/><text fill="#000000" font-family="Verdana" font-size="14" lengthAdjust="spacing" textLength="55.1878" x="11" y="216.89">CLI User</text></g><!--entity UIUser--><g class="entity" data-qualified-name="UIUser" data-source-line="7" id="ent0003"><ellipse cx="287.2889" cy="842.9241" fill="#FFFFFF" rx="8" ry="8" style="stroke:#000000;stroke-width:1;"/><path d="M287.2889,850.9241 L287.2889,877.9241 M274.2889,858.9241 L300.2889,858.9241 M287.2889,877.9241 L274.2889,892.9241 M287.2889,877.9241 L300.2889,892.9241" fill="none" style="stroke:#000000;stroke-width:1;"/><text fill="#000000" font-family="Verdana" font-size="14" lengthAdjust="spacing" textLength="49.2378" x="262.67" y="909.89">UI User</text></g><!--link CLIUser to CmdRun--><g class="link" data-entity-1="ent0002" data-entity-2="ent0006" data-link-type="dependency" data-source-line="32" id="lnk18"><path d="M66.46,180.9641 C107.67,180.9641 181.08,180.9641 232.33,180.9641" fill="none" id="CLIUser-to-CmdRun" style="stroke:#000000;stroke-width:1;"/><polygon fill="#000000" points="238.33,180.9641,229.33,176.9641,233.33,180.9641,229.33,184.9641,238.33,180.9641" style="stroke:#000000;stroke-width:1;"/></g><!--link CmdRun to CliEngine--><g class="link" data-entity-1="ent0006" data-entity-2="ent0007" data-link-type="dependency" data-source-line="33" id="lnk19"><path d="M336.55,180.9641 C403.63,180.9641 518.69,180.9641 588.77,180.9641" fill="none" id="CmdRun-to-CliEngine" style="stroke:#000000;stroke-width:1;"/><polygon fill="#000000" points="594.77,180.9641,585.77,176.9641,589.77,180.9641,585.77,184.9641,594.77,180.9641" style="stroke:#000000;stroke-width:1;"/></g><!--link CmdRun to EventsFile--><g class="link" data-entity-1="ent0006" data-entity-2="ent0015" data-link-type="dependency" data-source-line="34" id="lnk20"><path d="M313.05,205.5741 C339.5,230.7741 383.56,269.7141 427.4,294.9641 C483.45,327.2441 548.626,349.5136 594.916,363.1936" fill="none" id="CmdRun-to-EventsFile" style="stroke:#000000;stroke-width:1;"/><polygon fill="#000000" points="600.67,364.8941,593.1727,358.5074,595.875,363.477,590.9054,366.1794,600.67,364.8941" style="stroke:#000000;stroke-width:1;"/><text fill="#000000" font-family="Verdana" font-size="13" lengthAdjust="spacing" textLength="113.5941" x="429.4" y="290.8611">write_jsonl(events)</text></g><!--link CmdRun to MetricsFile--><g class="link" data-entity-1="ent0006" data-entity-2="ent0016" data-link-type="dependency" data-source-line="35" id="lnk21"><path d="M336.55,197.4241 C405.17,220.8241 524.5813,261.5469 593.8213,285.1669" fill="none" id="CmdRun-to-MetricsFile" style="stroke:#000000;stroke-width:1;"/><polygon fill="#000000" points="599.5,287.1041,592.2734,280.4126,594.7678,285.4898,589.6905,287.9841,599.5,287.1041" style="stroke:#000000;stroke-width:1;"/><text fill="#000000" font-family="Verdana" font-size="13" lengthAdjust="spacing" textLength="115.3881" x="428.4" y="227.3411">write_json(metrics)</text></g><!--link CmdRun to AuditFile--><g class="link" data-entity-1="ent0006" data-entity-2="ent0017" data-link-type="dependency" data-source-line="36" id="lnk22"><path d="M300.12,205.7141 C320.59,246.0841 366.37,326.1541 427.4,371.9641 C482.01,412.9541 553.7701,433.2715 601.1501,443.3015" fill="none" id="CmdRun-to-AuditFile" style="stroke:#000000;stroke-width:1;"/><polygon fill="#000000" points="607.02,444.5441,599.0435,438.7669,602.1284,443.5086,597.3867,446.5935,607.02,444.5441" style="stroke:#000000;stroke-width:1;"/><text fill="#000000" font-family="Verdana" font-size="13" lengthAdjust="spacing" textLength="101.3871" x="435.4" y="367.8611">write_json(audit)</text></g><!--link UIUser to MainWindow--><g class="link" data-entity-1="ent0003" data-entity-2="ent0009" data-link-type="dependency" data-source-line="38" id="lnk23"><path d="M312.23,865.3341 C364.78,846.3841 486.4055,802.5488 568.5455,772.9388" fill="none" id="UIUser-to-MainWindow" style="stroke:#000000;stroke-width:1;"/><polygon fill="#000000" points="574.19,770.9041,564.3668,770.1932,569.4863,772.5997,567.0798,777.7192,574.19,770.9041" style="stroke:#000000;stroke-width:1;"/></g><!--link MainWindow to RunController--><g class="link" data-entity-1="ent0009" data-entity-2="ent0010" data-link-type="dependency" data-source-line="39" id="lnk24"><path d="M711.12,709.4541 C742.28,691.5941 774.4245,673.1679 802.7745,656.9179" fill="none" id="MainWindow-to-RunController" style="stroke:#000000;stroke-width:1;"/><polygon fill="#000000" points="807.98,653.9341,798.1826,654.9394,803.6421,656.4206,802.1609,661.8801,807.98,653.9341" style="stroke:#000000;stroke-width:1;"/></g><!--link RunController to WorkerExec--><g class="link" data-entity-1="ent0010" data-entity-2="ent0012" data-link-type="dependency" data-source-line="40" id="lnk25"><path d="M786.16,615.6641 C767.67,612.4841 747.48,609.5541 728.72,607.9641 C615.83,598.3841 492.7392,612.8027 403.6592,627.5727" fill="none" id="RunController-to-WorkerExec" style="stroke:#000000;stroke-width:1;"/><polygon fill="#000000" points="397.74,628.5541,407.2731,631.0281,402.6727,627.7362,405.9645,623.1358,397.74,628.5541" style="stroke:#000000;stroke-width:1;"/></g><!--link WorkerExec to UiEngine--><g class="link" data-entity-1="ent0012" data-entity-2="ent0013" data-link-type="dependency" data-source-line="41" id="lnk26"><path d="M397.47,649.9641 C462.78,649.9641 536.9,649.9641 588.9,649.9641" fill="none" id="WorkerExec-to-UiEngine" style="stroke:#000000;stroke-width:1;"/><polygon fill="#000000" points="594.9,649.9641,585.9,645.9641,589.9,649.9641,585.9,653.9641,594.9,649.9641" style="stroke:#000000;stroke-width:1;"/></g><!--link WorkerExec to MainWindow--><g class="link" data-entity-1="ent0012" data-entity-2="ent0009" data-link-type="dependency" data-source-line="42" id="lnk27"><path d="M334.34,674.8441 C360.84,688.1341 395.18,703.6241 427.4,712.9641 C475.14,726.8041 524.549,733.9646 567.999,738.2546" fill="none" id="WorkerExec-to-MainWindow" style="stroke:#000000;stroke-width:1;"/><polygon fill="#000000" points="573.97,738.8441,565.4066,733.9791,568.9942,738.3528,564.6205,741.9404,573.97,738.8441" style="stroke:#000000;stroke-width:1;"/><text fill="#000000" font-family="Verdana" font-size="13" lengthAdjust="spacing" textLength="80.2491" x="445.874" y="672.8611">events_batch</text><text fill="#000000" font-family="Verdana" font-size="13" lengthAdjust="spacing" textLength="93.1971" x="439.4" y="690.5671">finished_report</text><text fill="#000000" font-family="Verdana" font-size="13" lengthAdjust="spacing" textLength="33.8" x="469.0985" y="708.2731">failed</text></g><?plantuml-src TPDDJzmm48Rl_XNJd7PLGUySa13TgaYWbe-82zBAs9FDKCTUEPFIgkA_rn_PZHF1AVOxZpslPoQVkCKEOMyaMM6mOM07ddOjWoQFYibP8PZO8Dmz_BY7U-hWA-wD-zkXPLXTNb_1XMTgfE8UFaDz1G-jHwd9xjP21DLvg29Lz-Wha3s4JLmVOdKHgdD4MASHgk-kPxYHgYMB5VmJ05cFj_tqJc7V7owCsqG0ADVjdOtcAjNfhHziXZfzDzWb4PwpiRjqVsGCvLt0tiGnNprFLt-GxIRKy96iTgzFTdKRdPCTYx5E1oTWUJGuktIMlJDchCHC4OdFPeBZmSZObqVdVw6FkSeaMStAw77vujdvqot-GJKm5gStGNdtP56hUYfLBDPOiCOPZQ6fyZ0INn8yJKXsr52Ofmf_XtlxqvVUMPEmJHA-XM11TSYULCPo6REmmEIWYIVe8cv7v4q4R-FKmSd9-M4MyYShnyuNucG7pk3L4-CsULrbu-kIBKpDuDLeVmOVpStHz8JmqzIJqs9afcMAp0TajalnefFJCaMEdLleHO8po4_SFajMxPDjo5BVOlYRSEyy1q46zrhy1m00?></g></svg>