<?plantuml 1.2026.2?><svg xmlns="http://www.w3.org/2000/svg" xmlns:xlink="http://www.w3.org/1999/xlink" contentStyleType="text/css" data-diagram-type="DESCRIPTION" height="1232px" preserveAspectRatio="none" style="width:551px;height:1232px;background:#FFFFFF;" version="1.1" viewBox="0 0 551 1232" width="551px" zoomAndPan="magnify"><title>RTOS Sim Core Package Dependencies</title><defs/><g><g class="title" data-source-line="5"><text fill="#000000" font-family="Verdana" font-size="22" font-weight="bold" lengthAdjust="spacing" textLength="417.0994" x="62.7303" y="38.5181">RTOS Sim Core Package Dependencies</text></g><!--cluster cli--><g class="cluster" data-qualified-name="cli" data-source-line="7" id="ent0002"><rect fill="#FFFFFF" height="104" rx="2.5" ry="2.5" style="stroke:#000000;stroke-width:1;" width="124.71" x="12" y="486.9641"/><text fill="#000000" font-family="Verdana" font-size="14" font-weight="bold" lengthAdjust="spacing" textLength="78.5117" x="35.0991" y="503.93">rtos_sim.cli</text></g><!--cluster core--><g class="cluster" data-qualified-name="core" data-source-line="11" id="ent0004"><rect fill="#FFFFFF" height="356" rx="2.5" ry="2.5" style="stroke:#000000;stroke-width:1;" width="198.85" x="164.71" y="234.9641"/><text fill="#000000" font-family="Verdana" font-size="14" font-weight="bold" lengthAdjust="spacing" textLength="93.2677" x="217.5012" y="251.93">rtos_sim.core</text></g><!--cluster events--><g class="cluster" data-qualified-name="events" data-source-line="18" id="ent0009"><rect fill="#FFFFFF" height="188" rx="2.5" ry="2.5" style="stroke:#000000;stroke-width:1;" width="126.91" x="404.61" y="62.9641"/><text fill="#000000" font-family="Verdana" font-size="14" font-weight="bold" lengthAdjust="spacing" textLength="109.5216" x="413.3042" y="79.93">rtos_sim.events</text></g><!--cluster metrics--><g class="cluster" data-qualified-name="metrics" data-source-line="23" id="ent0012"><rect fill="#FFFFFF" height="104" rx="2.5" ry="2.5" style="stroke:#000000;stroke-width:1;" width="131" x="403.06" y="274.9641"/><text fill="#000000" font-family="Verdana" font-size="14" font-weight="bold" lengthAdjust="spacing" textLength="115.6536" x="410.7332" y="291.93">rtos_sim.metrics</text></g><!--cluster schedulers--><g class="cluster" data-qualified-name="schedulers" data-source-line="27" id="ent0014"><rect fill="#FFFFFF" height="188" rx="2.5" ry="2.5" style="stroke:#000000;stroke-width:1;" width="154" x="391.56" y="402.9641"/><text fill="#000000" font-family="Verdana" font-size="14" font-weight="bold" lengthAdjust="spacing" textLength="138.3195" x="399.4002" y="419.93">rtos_sim.schedulers</text></g><!--cluster protocols--><g class="cluster" data-qualified-name="protocols" data-source-line="32" id="ent0017"><rect fill="#FFFFFF" height="188" rx="2.5" ry="2.5" style="stroke:#000000;stroke-width:1;" width="144" x="396.56" y="614.9641"/><text fill="#000000" font-family="Verdana" font-size="14" font-weight="bold" lengthAdjust="spacing" textLength="128.4915" x="404.3142" y="631.93">rtos_sim.protocols</text></g><!--cluster etm--><g class="cluster" data-qualified-name="etm" data-source-line="37" id="ent0020"><rect fill="#FFFFFF" height="188" rx="2.5" ry="2.5" style="stroke:#000000;stroke-width:1;" width="142.09" x="397.02" y="826.9641"/><text fill="#000000" font-family="Verdana" font-size="14" font-weight="bold" lengthAdjust="spacing" textLength="90.8737" x="422.6282" y="843.93">rtos_sim.etm</text></g><!--cluster overheads--><g class="cluster" data-qualified-name="overheads" data-source-line="42" id="ent0023"><rect fill="#FFFFFF" height="188" rx="2.5" ry="2.5" style="stroke:#000000;stroke-width:1;" width="151" x="393.06" y="1038.9641"/><text fill="#000000" font-family="Verdana" font-size="14" font-weight="bold" lengthAdjust="spacing" textLength="135.7855" x="400.6672" y="1055.93">rtos_sim.overheads</text></g><!--entity cli_main--><g class="entity" data-qualified-name="cli.cli_main" data-source-line="8" id="ent0003"><rect fill="#FFFFFF" height="49.0679" rx="2.5" ry="2.5" style="stroke:#000000;stroke-width:1;" width="92.7098" x="28" y="525.4341"/><rect fill="#FFFFFF" height="10" style="stroke:#000000;stroke-width:1;" width="15" x="100.7098" y="530.4341"/><rect fill="#FFFFFF" height="2" style="stroke:#000000;stroke-width:1;" width="4" x="98.7098" y="532.4341"/><rect fill="#FFFFFF" height="2" style="stroke:#000000;stroke-width:1;" width="4" x="98.7098" y="536.4341"/><text fill="#000000" font-family="Verdana" font-size="14" lengthAdjust="spacing" textLength="52.7098" x="43" y="560.4">main.py</text></g><!--entity core_engine--><g class="entity" data-qualified-name="core.core_engine" data-source-line="12" id="ent0005"><rect fill="#FFFFFF" height="49.0679" rx="2.5" ry="2.5" style="stroke:#000000;stroke-width:1;" width="104.8197" x="211.73" y="525.4341"/><rect fill="#FFFFFF" height="10" style="stroke:#000000;stroke-width:1;" width="15" x="296.5497" y="530.4341"/><rect fill="#FFFFFF" height="2" style="stroke:#000000;stroke-width:1;" width="4" x="294.5497" y="532.4341"/><rect fill="#FFFFFF" height="2" style="stroke:#000000;stroke-width:1;" width="4" x="294.5497" y="536.4341"/><text fill="#000000" font-family="Verdana" font-size="14" lengthAdjust="spacing" textLength="64.8197" x="226.73" y="560.4">engine.py</text></g><!--entity core_runtime--><g class="entity" data-qualified-name="core.core_runtime" data-source-line="13" id="ent0006"><rect fill="#FFFFFF" height="49.0679" rx="2.5" ry="2.5" style="stroke:#000000;stroke-width:1;" width="163.7735" x="182.25" y="441.4341"/><rect fill="#FFFFFF" height="10" style="stroke:#000000;stroke-width:1;" width="15" x="326.0235" y="446.4341"/><rect fill="#FFFFFF" height="2" style="stroke:#000000;stroke-width:1;" width="4" x="324.0235" y="448.4341"/><rect fill="#FFFFFF" height="2" style="stroke:#000000;stroke-width:1;" width="4" x="324.0235" y="452.4341"/><text fill="#000000" font-family="Verdana" font-size="14" lengthAdjust="spacing" textLength="123.7735" x="197.25" y="476.4">engine_runtime.py</text></g><!--entity core_dispatch--><g class="entity" data-qualified-name="core.core_dispatch" data-source-line="14" id="ent0007"><rect fill="#FFFFFF" height="49.0679" rx="2.5" ry="2.5" style="stroke:#000000;stroke-width:1;" width="166.8535" x="180.71" y="357.4341"/><rect fill="#FFFFFF" height="10" style="stroke:#000000;stroke-width:1;" width="15" x="327.5635" y="362.4341"/><rect fill="#FFFFFF" height="2" style="stroke:#000000;stroke-width:1;" width="4" x="325.5635" y="364.4341"/><rect fill="#FFFFFF" height="2" style="stroke:#000000;stroke-width:1;" width="4" x="325.5635" y="368.4341"/><text fill="#000000" font-family="Verdana" font-size="14" lengthAdjust="spacing" textLength="126.8535" x="195.71" y="392.4">engine_dispatch.py</text></g><!--entity core_release--><g class="entity" data-qualified-name="core.core_release" data-source-line="15" id="ent0008"><rect fill="#FFFFFF" height="49.0679" rx="2.5" ry="2.5" style="stroke:#000000;stroke-width:1;" width="158.6775" x="184.8" y="273.4341"/><rect fill="#FFFFFF" height="10" style="stroke:#000000;stroke-width:1;" width="15" x="323.4775" y="278.4341"/><rect fill="#FFFFFF" height="2" style="stroke:#000000;stroke-width:1;" width="4" x="321.4775" y="280.4341"/><rect fill="#FFFFFF" height="2" style="stroke:#000000;stroke-width:1;" width="4" x="321.4775" y="284.4341"/><text fill="#000000" font-family="Verdana" font-size="14" lengthAdjust="spacing" textLength="118.6775" x="199.8" y="308.4">engine_release.py</text></g><!--entity events_bus--><g class="entity" data-qualified-name="events.events_bus" data-source-line="19" id="ent0010"><rect fill="#FFFFFF" height="49.0679" rx="2.5" ry="2.5" style="stroke:#000000;stroke-width:1;" width="83.4698" x="426.33" y="185.4341"/><rect fill="#FFFFFF" height="10" style="stroke:#000000;stroke-width:1;" width="15" x="489.7998" y="190.4341"/><rect fill="#FFFFFF" height="2" style="stroke:#000000;stroke-width:1;" width="4" x="487.7998" y="192.4341"/><rect fill="#FFFFFF" height="2" style="stroke:#000000;stroke-width:1;" width="4" x="487.7998" y="196.4341"/><text fill="#000000" font-family="Verdana" font-size="14" lengthAdjust="spacing" textLength="43.4698" x="441.33" y="220.4">bus.py</text></g><!--entity events_types--><g class="entity" data-qualified-name="events.events_types" data-source-line="20" id="ent0011"><rect fill="#FFFFFF" height="49.0679" rx="2.5" ry="2.5" style="stroke:#000000;stroke-width:1;" width="94.9078" x="420.61" y="101.4341"/><rect fill="#FFFFFF" height="10" style="stroke:#000000;stroke-width:1;" width="15" x="495.5178" y="106.4341"/><rect fill="#FFFFFF" height="2" style="stroke:#000000;stroke-width:1;" width="4" x="493.5178" y="108.4341"/><rect fill="#FFFFFF" height="2" style="stroke:#000000;stroke-width:1;" width="4" x="493.5178" y="112.4341"/><text fill="#000000" font-family="Verdana" font-size="14" lengthAdjust="spacing" textLength="54.9078" x="435.61" y="136.4">types.py</text></g><!--entity metrics_core--><g class="entity" data-qualified-name="metrics.metrics_core" data-source-line="24" id="ent0013"><rect fill="#FFFFFF" height="49.0679" rx="2.5" ry="2.5" style="stroke:#000000;stroke-width:1;" width="88.3698" x="423.88" y="313.4341"/><rect fill="#FFFFFF" height="10" style="stroke:#000000;stroke-width:1;" width="15" x="492.2498" y="318.4341"/><rect fill="#FFFFFF" height="2" style="stroke:#000000;stroke-width:1;" width="4" x="490.2498" y="320.4341"/><rect fill="#FFFFFF" height="2" style="stroke:#000000;stroke-width:1;" width="4" x="490.2498" y="324.4341"/><text fill="#000000" font-family="Verdana" font-size="14" lengthAdjust="spacing" textLength="48.3698" x="438.88" y="348.4">core.py</text></g><!--entity sch_base--><g class="entity" data-qualified-name="schedulers.sch_base" data-source-line="28" id="ent0015"><rect fill="#FFFFFF" height="49.0679" rx="2.5" ry="2.5" style="stroke:#000000;stroke-width:1;" width="90.5678" x="422.78" y="525.4341"/><rect fill="#FFFFFF" height="10" style="stroke:#000000;stroke-width:1;" width="15" x="493.3478" y="530.4341"/><rect fill="#FFFFFF" height="2" style="stroke:#000000;stroke-width:1;" width="4" x="491.3478" y="532.4341"/><rect fill="#FFFFFF" height="2" style="stroke:#000000;stroke-width:1;" width="4" x="491.3478" y="536.4341"/><text fill="#000000" font-family="Verdana" font-size="14" lengthAdjust="spacing" textLength="50.5678" x="437.78" y="560.4">base.py</text></g><!--entity sch_registry--><g class="entity" data-qualified-name="schedulers.sch_registry" data-source-line="29" id="ent0016"><rect fill="#FFFFFF" height="49.0679" rx="2.5" ry="2.5" style="stroke:#000000;stroke-width:1;" width="110.0837" x="413.02" y="441.4341"/><rect fill="#FFFFFF" height="10" style="stroke:#000000;stroke-width:1;" width="15" x="503.1037" y="446.4341"/><rect fill="#FFFFFF" height="2" style="stroke:#000000;stroke-width:1;" width="4" x="501.1037" y="448.4341"/><rect fill="#FFFFFF" height="2" style="stroke:#000000;stroke-width:1;" width="4" x="501.1037" y="452.4341"/><text fill="#000000" font-family="Verdana" font-size="14" lengthAdjust="spacing" textLength="70.0837" x="428.02" y="476.4">registry.py</text></g><!--entity pro_base--><g class="entity" data-qualified-name="protocols.pro_base" data-source-line="33" id="ent0018"><rect fill="#FFFFFF" height="49.0679" rx="2.5" ry="2.5" style="stroke:#000000;stroke-width:1;" width="90.5678" x="422.78" y="737.4341"/><rect fill="#FFFFFF" height="10" style="stroke:#000000;stroke-width:1;" width="15" x="493.3478" y="742.4341"/><rect fill="#FFFFFF" height="2" style="stroke:#000000;stroke-width:1;" width="4" x="491.3478" y="744.4341"/><rect fill="#FFFFFF" height="2" style="stroke:#000000;stroke-width:1;" width="4" x="491.3478" y="748.4341"/><text fill="#000000" font-family="Verdana" font-size="14" lengthAdjust="spacing" textLength="50.5678" x="437.78" y="772.4">base.py</text></g><!--entity pro_registry--><g class="entity" data-qualified-name="protocols.pro_registry" data-source-line="34" id="ent0019"><rect fill="#FFFFFF" height="49.0679" rx="2.5" ry="2.5" style="stroke:#000000;stroke-width:1;" width="110.0837" x="413.02" y="653.4341"/><rect fill="#FFFFFF" height="10" style="stroke:#000000;stroke-width:1;" width="15" x="503.1037" y="658.4341"/><rect fill="#FFFFFF" height="2" style="stroke:#000000;stroke-width:1;" width="4" x="501.1037" y="660.4341"/><rect fill="#FFFFFF" height="2" style="stroke:#000000;stroke-width:1;" width="4" x="501.1037" y="664.4341"/><text fill="#000000" font-family="Verdana" font-size="14" lengthAdjust="spacing" textLength="70.0837" x="428.02" y="688.4">registry.py</text></g><!--entity etm_base--><g class="entity" data-qualified-name="etm.etm_base" data-source-line="38" id="ent0021"><rect fill="#FFFFFF" height="49.0679" rx="2.5" ry="2.5" style="stroke:#000000;stroke-width:1;" width="90.5678" x="422.78" y="949.4341"/><rect fill="#FFFFFF" height="10" style="stroke:#000000;stroke-width:1;" width="15" x="493.3478" y="954.4341"/><rect fill="#FFFFFF" height="2" style="stroke:#000000;stroke-width:1;" width="4" x="491.3478" y="956.4341"/><rect fill="#FFFFFF" height="2" style="stroke:#000000;stroke-width:1;" width="4" x="491.3478" y="960.4341"/><text fill="#000000" font-family="Verdana" font-size="14" lengthAdjust="spacing" textLength="50.5678" x="437.78" y="984.4">base.py</text></g><!--entity etm_registry--><g class="entity" data-qualified-name="etm.etm_registry" data-source-line="39" id="ent0022"><rect fill="#FFFFFF" height="49.0679" rx="2.5" ry="2.5" style="stroke:#000000;stroke-width:1;" width="110.0837" x="413.02" y="865.4341"/><rect fill="#FFFFFF" height="10" style="stroke:#000000;stroke-width:1;" width="15" x="503.1037" y="870.4341"/><rect fill="#FFFFFF" height="2" style="stroke:#000000;stroke-width:1;" width="4" x="501.1037" y="872.4341"/><rect fill="#FFFFFF" height="2" style="stroke:#000000;stroke-width:1;" width="4" x="501.1037" y="876.4341"/><text fill="#000000" font-family="Verdana" font-size="14" lengthAdjust="spacing" textLength="70.0837" x="428.02" y="900.4">registry.py</text></g><!--entity oh_base--><g class="entity" data-qualified-name="overheads.oh_base" data-source-line="43" id="ent0024"><rect fill="#FFFFFF" height="49.0679" rx="2.5" ry="2.5" style="stroke:#000000;stroke-width:1;" width="90.5678" x="422.78" y="1161.4341"/><rect fill="#FFFFFF" height="10" style="stroke:#000000;stroke-width:1;" width="15" x="493.3478" y="1166.4341"/><rect fill="#FFFFFF" height="2" style="stroke:#000000;stroke-width:1;" width="4" x="491.3478" y="1168.4341"/><rect fill="#FFFFFF" height="2" style="stroke:#000000;stroke-width:1;" width="4" x="491.3478" y="1172.4341"/><text fill="#000000" font-family="Verdana" font-size="14" lengthAdjust="spacing" textLength="50.5678" x="437.78" y="1196.4">base.py</text></g><!--entity oh_registry--><g class="entity" data-qualified-name="overheads.oh_registry" data-source-line="44" id="ent0025"><rect fill="#FFFFFF" height="49.0679" rx="2.5" ry="2.5" style="stroke:#000000;stroke-width:1;" width="110.0837" x="413.02" y="1077.4341"/><rect fill="#FFFFFF" height="10" style="stroke:#000000;stroke-width:1;" width="15" x="503.1037" y="1082.4341"/><rect fill="#FFFFFF" height="2" style="stroke:#000000;stroke-width:1;" width="4" x="501.1037" y="1084.4341"/><rect fill="#FFFFFF" height="2" style="stroke:#000000;stroke-width:1;" width="4" x="501.1037" y="1088.4341"/><text fill="#000000" font-family="Verdana" font-size="14" lengthAdjust="spacing" textLength="70.0837" x="428.02" y="1112.4">registry.py</text></g><!--link cli_main to core_engine--><g class="link" data-entity-1="ent0003" data-entity-2="ent0005" data-link-type="dependency" data-source-line="47" id="lnk26"><path d="M120.81,549.9641 C148.16,549.9641 177.07,549.9641 205.47,549.9641" fill="none" id="cli_main-to-core_engine" style="stroke:#000000;stroke-width:1;"/><polygon fill="#000000" points="211.47,549.9641,202.47,545.9641,206.47,549.9641,202.47,553.9641,211.47,549.9641" style="stroke:#000000;stroke-width:1;"/></g><!--link core_engine to events_bus--><g class="link" data-entity-1="ent0005" data-entity-2="ent0010" data-link-type="dependency" data-source-line="48" id="lnk27"><path d="M317.01,541.8441 C337.31,535.9141 358.76,525.6741 371.56,507.9641 C399.08,469.9041 364.81,340.0241 383.56,296.9641 C394.35,272.2041 410.9076,254.2008 429.2076,238.5708" fill="none" id="core_engine-to-events_bus" style="stroke:#000000;stroke-width:1;"/><polygon fill="#000000" points="433.77,234.6741,424.3286,237.4776,429.968,237.9214,429.5242,243.5608,433.77,234.6741" style="stroke:#000000;stroke-width:1;"/></g><!--link core_engine to metrics_core--><g class="link" data-entity-1="ent0005" data-entity-2="ent0013" data-link-type="dependency" data-source-line="49" id="lnk28"><path d="M316.82,541.1241 C336.84,535.0841 358.13,524.9441 371.56,507.9641 C394.69,478.7341 367.21,458.4541 383.56,424.9641 C395.5,400.5041 412.3253,382.3945 430.4453,366.6145" fill="none" id="core_engine-to-metrics_core" style="stroke:#000000;stroke-width:1;"/><polygon fill="#000000" points="434.97,362.6741,425.556,365.5682,431.1994,365.9578,430.8098,371.6012,434.97,362.6741" style="stroke:#000000;stroke-width:1;"/></g><!--link core_engine to sch_base--><g class="link" data-entity-1="ent0005" data-entity-2="ent0015" data-link-type="dependency" data-source-line="50" id="lnk29"><path d="M316.88,549.9641 C349.48,549.9641 385.14,549.9641 416.32,549.9641" fill="none" id="core_engine-to-sch_base" style="stroke:#000000;stroke-width:1;"/><polygon fill="#000000" points="422.32,549.9641,413.32,545.9641,417.32,549.9641,413.32,553.9641,422.32,549.9641" style="stroke:#000000;stroke-width:1;"/></g><!--link core_engine to sch_registry--><g class="link" data-entity-1="ent0005" data-entity-2="ent0016" data-link-type="dependency" data-source-line="51" id="lnk30"><path d="M316.99,529.9641 C334.4,523.1241 353.87,515.3441 371.56,507.9641 C384.94,502.3841 393.7857,498.605 407.1857,492.725" fill="none" id="core_engine-to-sch_registry" style="stroke:#000000;stroke-width:1;"/><polygon fill="#000000" points="412.68,490.3141,402.8313,490.2676,408.1014,492.3232,406.0458,497.5934,412.68,490.3141" style="stroke:#000000;stroke-width:1;"/></g><!--link core_engine to pro_base--><g class="link" data-entity-1="ent0005" data-entity-2="ent0018" data-link-type="dependency" data-source-line="52" id="lnk31"><path d="M277.32,574.8041 C295.97,610.7341 334.64,677.5541 383.56,719.9641 C394.97,729.8441 403.7008,735.4772 417.0908,741.9672" fill="none" id="core_engine-to-pro_base" style="stroke:#000000;stroke-width:1;"/><polygon fill="#000000" points="422.49,744.5841,416.1358,737.0592,417.9906,742.4033,412.6465,744.2582,422.49,744.5841" style="stroke:#000000;stroke-width:1;"/></g><!--link core_engine to pro_registry--><g class="link" data-entity-1="ent0005" data-entity-2="ent0019" data-link-type="dependency" data-source-line="53" id="lnk32"><path d="M304.55,574.9441 C340.13,597.5041 387.1321,627.3023 422.6821,649.8323" fill="none" id="core_engine-to-pro_registry" style="stroke:#000000;stroke-width:1;"/><polygon fill="#000000" points="427.75,653.0441,422.2893,644.8477,423.5267,650.3676,418.0069,651.605,427.75,653.0441" style="stroke:#000000;stroke-width:1;"/></g><!--link core_engine to etm_base--><g class="link" data-entity-1="ent0005" data-entity-2="ent0021" data-link-type="dependency" data-source-line="54" id="lnk33"><path d="M266.28,574.5341 C270.57,640.2141 290.68,822.2841 383.56,931.9641 C393.84,944.1041 403.0356,950.5942 417.1956,957.0842" fill="none" id="core_engine-to-etm_base" style="stroke:#000000;stroke-width:1;"/><polygon fill="#000000" points="422.65,959.5841,416.135,952.198,418.1047,957.5008,412.8018,959.4705,422.65,959.5841" style="stroke:#000000;stroke-width:1;"/></g><!--link core_engine to etm_registry--><g class="link" data-entity-1="ent0005" data-entity-2="ent0022" data-link-type="dependency" data-source-line="55" id="lnk34"><path d="M273.63,574.7341 C290.4,621.7241 330.75,725.9841 383.56,802.9641 C399.43,826.0941 417.1982,844.7347 434.6882,861.1747" fill="none" id="core_engine-to-etm_registry" style="stroke:#000000;stroke-width:1;"/><polygon fill="#000000" points="439.06,865.2841,435.2418,856.2055,435.4168,861.8596,429.7627,862.0346,439.06,865.2841" style="stroke:#000000;stroke-width:1;"/></g><!--link core_engine to oh_base--><g class="link" data-entity-1="ent0005" data-entity-2="ent0024" data-link-type="dependency" data-source-line="56" id="lnk35"><path d="M267.2,574.7141 C275.97,675.1541 313.09,1051.4141 383.56,1143.9641 C393.3,1156.7441 402.5168,1163.4657 416.8768,1169.9157" fill="none" id="core_engine-to-oh_base" style="stroke:#000000;stroke-width:1;"/><polygon fill="#000000" points="422.35,1172.3741,415.7791,1165.0377,417.789,1170.3254,412.5012,1172.3354,422.35,1172.3741" style="stroke:#000000;stroke-width:1;"/></g><!--link core_engine to oh_registry--><g class="link" data-entity-1="ent0005" data-entity-2="ent0025" data-link-type="dependency" data-source-line="57" id="lnk36"><path d="M267,574.7941 C273.34,647.1041 298.6,862.0341 383.56,1014.9641 C396.88,1038.9341 413.9687,1057.1532 431.8387,1073.1432" fill="none" id="core_engine-to-oh_registry" style="stroke:#000000;stroke-width:1;"/><polygon fill="#000000" points="436.31,1077.1441,432.2703,1068.1619,432.5839,1073.81,426.9357,1074.1236,436.31,1077.1441" style="stroke:#000000;stroke-width:1;"/></g><!--link core_dispatch to events_types--><g class="link" data-entity-1="ent0007" data-entity-2="ent0011" data-link-type="dependency" data-source-line="59" id="lnk37"><path d="M348.03,360.6441 C357.13,355.2341 365.34,348.4541 371.56,339.9641 C394.21,309.0541 362.34,199.8641 383.56,167.9641 C392.28,154.8641 400.9082,148.1156 415.0682,141.7456" fill="none" id="core_dispatch-to-events_types" style="stroke:#000000;stroke-width:1;"/><polygon fill="#000000" points="420.54,139.2841,410.6912,139.3285,415.9802,141.3354,413.9733,146.6243,420.54,139.2841" style="stroke:#000000;stroke-width:1;"/></g><!--link core_runtime to events_types--><g class="link" data-entity-1="ent0006" data-entity-2="ent0011" data-link-type="dependency" data-source-line="60" id="lnk38"><path d="M346.4,445.8341 C356.2,440.2341 365.03,433.0941 371.56,423.9641 C404.69,377.6441 352.55,215.7341 383.56,167.9641 C392.13,154.7641 400.7282,147.9956 414.8882,141.6256" fill="none" id="core_runtime-to-events_types" style="stroke:#000000;stroke-width:1;"/><polygon fill="#000000" points="420.36,139.1641,410.5112,139.2085,415.8002,141.2154,413.7933,146.5043,420.36,139.1641" style="stroke:#000000;stroke-width:1;"/></g><!--link core_release to events_types--><g class="link" data-entity-1="ent0008" data-entity-2="ent0011" data-link-type="dependency" data-source-line="61" id="lnk39"><path d="M283.2,273.1741 C304.7,244.9841 342.82,198.8741 383.56,167.9641 C394.68,159.5341 402.3869,154.7143 414.8469,148.4643" fill="none" id="core_release-to-events_types" style="stroke:#000000;stroke-width:1;"/><polygon fill="#000000" points="420.21,145.7741,410.3719,146.2339,415.7407,148.0159,413.9588,153.3848,420.21,145.7741" style="stroke:#000000;stroke-width:1;"/></g><?plantuml-src VPFFRiCW3CRlF8NNU_i8ksptJUjkqnGnuYMeuO_0hHHDU_T1I5AIa9s2ln_-x1Xue1OLWksurAp3Rm8ou6JJ4jJIeI1fDFCNgIrtN87bui8RF5FV8KJCTTCXOoGf26_lBsSuImLFnY6yfhtmZ1PrZLf8z8oD3d1mP7pbfJg9JXw0UmXV-6407ohqShBzvoXMCMQ_nTHG9-N6WaCowaPgdDE3NYNf3YjtrIJLSjEePRjgwIqdqIwsJMBkXXrolt9BMhbhlA4cF_ITbgdphwkVF99S1IK2wYskqQ2LxHMIaoBvZ-jK87OssOoWYbhPneiMwsk7BZdTmx7Rx9S3gs8STOUDzEJwd4rQkP1rXemmNQepHzio0UsMYUp_CaWgZPpKrZg8kzQH_MzjRkXQv7NwWpdQbZ7xSpBBCKtt7ex7nyKjpjO3owxA6YtEU0tdCok1kPCrd8-W17QpvkcMm6wMsMamdnHRFCfy8Ec1v4zxZwQdkgL_?></g></svg>