<?plantuml 1.2026.2?><svg xmlns="http://www.w3.org/2000/svg" xmlns:xlink="http://www.w3.org/1999/xlink" contentStyleType="text/css" data-diagram-type="DESCRIPTION" height="920px" preserveAspectRatio="none" style="width:981px;height:920px;background:#FFFFFF;" version="1.1" viewBox="0 0 981 920" width="981px" zoomAndPan="magnify"><title>RTOS Sim Use Cases (CLI + UI + Research Audit)</title><defs/><g><g class="title" data-source-line="4"><text fill="#000000" font-family="Verdana" font-size="22" font-weight="bold" lengthAdjust="spacing" textLength="512.1397" x="229.9851" y="38.5181">RTOS Sim Use Cases (CLI + UI + Research Audit)</text></g><!--cluster RTOS Sim System--><g class="cluster" data-qualified-name="RTOS Sim System" data-source-line="10" id="ent0005"><rect fill="#FFFFFF" height="807" rx="2.5" ry="2.5" style="stroke:#000000;stroke-width:1;" width="784.12" x="190.99" y="62.9641"/><text fill="#000000" font-family="Verdana" font-size="14" font-weight="bold" lengthAdjust="spacing" textLength="119.9515" x="523.0742" y="79.93">RTOS Sim System</text></g><!--entity UCValidate--><g class="entity" data-qualified-name="RTOS Sim System.UCValidate" data-source-line="11" id="ent0006"><ellipse cx="344.2558" cy="492.9669" fill="#FFFFFF" rx="68.0258" ry="27.9128" style="stroke:#000000;stroke-width:1;"/><text fill="#000000" font-family="Verdana" font-size="14" lengthAdjust="spacing" textLength="99.5396" x="294.486" y="492.5017">Validate Config</text><text fill="#000000" font-family="Verdana" font-size="14" lengthAdjust="spacing" textLength="60.0038" x="314.2539" y="511.5696">(validate)</text></g><!--entity UCRun--><g class="entity" data-qualified-name="RTOS Sim System.UCRun" data-source-line="12" id="ent0007"><ellipse cx="344.2629" cy="584.9628" fill="#FFFFFF" rx="128.4829" ry="29.1287" style="stroke:#000000;stroke-width:1;"/><text fill="#000000" font-family="Verdana" font-size="14" lengthAdjust="spacing" textLength="158.3394" x="265.0932" y="580.2588">Run Simulation + Export</text><text fill="#000000" font-family="Verdana" font-size="14" lengthAdjust="spacing" textLength="183.1473" x="252.6892" y="599.3267">(run + events/metrics/audit)</text></g><!--entity UCBatch--><g class="entity" data-qualified-name="RTOS Sim System.UCBatch" data-source-line="13" id="ent0008"><ellipse cx="344.2629" cy="128.9605" fill="#FFFFFF" rx="83.5329" ry="27.8664" style="stroke:#000000;stroke-width:1;"/><text fill="#000000" font-family="Verdana" font-size="14" lengthAdjust="spacing" textLength="123.5075" x="282.5091" y="128.5675">Batch Experiments</text><text fill="#000000" font-family="Verdana" font-size="14" lengthAdjust="spacing" textLength="72.8837" x="307.821" y="147.6354">(batch-run)</text></g><!--entity UCCompare--><g class="entity" data-qualified-name="RTOS Sim System.UCCompare" data-source-line="14" id="ent0009"><ellipse cx="344.2605" cy="219.9615" fill="#FFFFFF" rx="76.4905" ry="27.8774" style="stroke:#000000;stroke-width:1;"/><text fill="#000000" font-family="Verdana" font-size="14" lengthAdjust="spacing" textLength="112.6576" x="287.9318" y="219.5513">Compare Metrics</text><text fill="#000000" font-family="Verdana" font-size="14" lengthAdjust="spacing" textLength="66.8217" x="310.8497" y="238.6193">(compare)</text></g><!--entity UCInspect--><g class="entity" data-qualified-name="RTOS Sim System.UCInspect" data-source-line="15" id="ent0010"><ellipse cx="344.2632" cy="310.9652" fill="#FFFFFF" rx="106.5932" ry="28.0811" style="stroke:#000000;stroke-width:1;"/><text fill="#000000" font-family="Verdana" font-size="14" lengthAdjust="spacing" textLength="157.5134" x="265.5065" y="310.2397">Inspect Model Relations</text><text fill="#000000" font-family="Verdana" font-size="14" lengthAdjust="spacing" textLength="101.8356" x="293.3454" y="329.3076">(inspect-model)</text></g><!--entity UCMigrate--><g class="entity" data-qualified-name="RTOS Sim System.UCMigrate" data-source-line="16" id="ent0011"><ellipse cx="344.262" cy="401.9663" fill="#FFFFFF" rx="101.072" ry="28.3822" style="stroke:#000000;stroke-width:1;"/><text fill="#000000" font-family="Verdana" font-size="14" lengthAdjust="spacing" textLength="147.3494" x="270.5872" y="400.781">Migrate Legacy Config</text><text fill="#000000" font-family="Verdana" font-size="14" lengthAdjust="spacing" textLength="105.6856" x="291.4192" y="419.8489">(migrate-config)</text></g><!--entity UIRun--><g class="entity" data-qualified-name="RTOS Sim System.UIRun" data-source-line="18" id="ent0012"><ellipse cx="344.2569" cy="741.9655" fill="#FFFFFF" rx="71.2569" ry="16.6514" style="stroke:#000000;stroke-width:1;"/><text fill="#000000" font-family="Verdana" font-size="14" lengthAdjust="spacing" textLength="97.7056" x="295.4041" y="747.9994">UI Launch/Run</text></g><!--entity UIPause--><g class="entity" data-qualified-name="RTOS Sim System.UIPause" data-source-line="19" id="ent0013"><ellipse cx="344.2583" cy="669.9658" fill="#FFFFFF" rx="92.2083" ry="20.8417" style="stroke:#000000;stroke-width:1;"/><text fill="#000000" font-family="Verdana" font-size="14" lengthAdjust="spacing" textLength="150.8074" x="268.8546" y="675.9997">UI Pause/Resume/Step</text></g><!--entity UCAuditSuite--><g class="entity" data-qualified-name="RTOS Sim System.UCAuditSuite" data-source-line="21" id="ent0014"><ellipse cx="344.2634" cy="823.9688" fill="#FFFFFF" rx="137.2734" ry="29.8547" style="stroke:#000000;stroke-width:1;"/><text fill="#000000" font-family="Verdana" font-size="14" lengthAdjust="spacing" textLength="212.0852" x="238.2208" y="823.0633">Research Counterexample Audit</text><text fill="#000000" font-family="Verdana" font-size="14" lengthAdjust="spacing" textLength="158.7174" x="264.9047" y="842.1312">(research_case_suite.py)</text></g><!--entity UCResearchReport--><g class="entity" data-qualified-name="RTOS Sim System.UCResearchReport" data-source-line="22" id="ent0015"><ellipse cx="832.3212" cy="584.9652" fill="#FFFFFF" rx="126.7912" ry="28.3711" style="stroke:#000000;stroke-width:1;"/><text fill="#000000" font-family="Verdana" font-size="14" lengthAdjust="spacing" textLength="186.0733" x="739.2845" y="583.7967">Research Report Generation</text><text fill="#000000" font-family="Verdana" font-size="14" lengthAdjust="spacing" textLength="132.9995" x="765.8214" y="602.8646">(research_report.py)</text></g><!--entity CLIUser--><g class="entity" data-qualified-name="CLIUser" data-source-line="6" id="ent0002"><ellipse cx="77.4939" cy="325.9241" fill="#FFFFFF" rx="8" ry="8" style="stroke:#000000;stroke-width:1;"/><path d="M77.4939,333.9241 L77.4939,360.9241 M64.4939,341.9241 L90.4939,341.9241 M77.4939,360.9241 L64.4939,375.9241 M77.4939,360.9241 L90.4939,375.9241" fill="none" style="stroke:#000000;stroke-width:1;"/><text fill="#000000" font-family="Verdana" font-size="14" lengthAdjust="spacing" textLength="55.1878" x="49.9" y="392.89">CLI User</text></g><!--entity UIUser--><g class="entity" data-qualified-name="UIUser" data-source-line="7" id="ent0003"><ellipse cx="77.4889" cy="681.9241" fill="#FFFFFF" rx="8" ry="8" style="stroke:#000000;stroke-width:1;"/><path d="M77.4889,689.9241 L77.4889,716.9241 M64.4889,697.9241 L90.4889,697.9241 M77.4889,716.9241 L64.4889,731.9241 M77.4889,716.9241 L90.4889,731.9241" fill="none" style="stroke:#000000;stroke-width:1;"/><text fill="#000000" font-family="Verdana" font-size="14" lengthAdjust="spacing" textLength="49.2378" x="52.87" y="748.89">UI User</text></g><!--entity ResearchUser--><g class="entity" data-qualified-name="ResearchUser" data-source-line="8" id="ent0004"><ellipse cx="77.4927" cy="844.9241" fill="#FFFFFF" rx="8" ry="8" style="stroke:#000000;stroke-width:1;"/><path d="M77.4927,852.9241 L77.4927,879.9241 M64.4927,860.9241 L90.4927,860.9241 M77.4927,879.9241 L64.4927,894.9241 M77.4927,879.9241 L90.4927,894.9241" fill="none" style="stroke:#000000;stroke-width:1;"/><text fill="#000000" font-family="Verdana" font-size="14" lengthAdjust="spacing" textLength="132.9855" x="11" y="911.89">Research Audit User</text></g><!--link CLIUser to UCValidate--><g class="link" data-entity-1="ent0002" data-entity-2="ent0006" data-link-type="dependency" data-source-line="25" id="lnk16"><path d="M105.58,386.6541 C125.29,406.6141 153.56,432.0741 182.99,447.9641 C213.38,464.3741 244.4676,473.9414 275.2176,480.8914" fill="none" id="CLIUser-to-UCValidate" style="stroke:#000000;stroke-width:1;"/><polygon fill="#000000" points="281.07,482.2141,273.1732,476.3284,276.193,481.1118,271.4096,484.1316,281.07,482.2141" style="stroke:#000000;stroke-width:1;"/></g><!--link CLIUser to UCRun--><g class="link" data-entity-1="ent0002" data-entity-2="ent0007" data-link-type="dependency" data-source-line="26" id="lnk17"><path d="M91.58,397.1741 C107.02,438.4141 136.63,501.5241 182.99,537.9641 C199.74,551.1341 214.3979,558.7167 234.8879,565.5467" fill="none" id="CLIUser-to-UCRun" style="stroke:#000000;stroke-width:1;"/><polygon fill="#000000" points="240.58,567.4441,233.3068,560.8033,235.8366,565.863,230.7769,568.3928,240.58,567.4441" style="stroke:#000000;stroke-width:1;"/></g><!--link CLIUser to UCBatch--><g class="link" data-entity-1="ent0002" data-entity-2="ent0008" data-link-type="dependency" data-source-line="27" id="lnk18"><path d="M91.48,316.4741 C106.84,274.9641 136.38,211.4741 182.99,174.9641 C206.57,156.4841 231.4381,146.7925 259.6581,140.1825" fill="none" id="CLIUser-to-UCBatch" style="stroke:#000000;stroke-width:1;"/><polygon fill="#000000" points="265.5,138.8141,255.8249,136.972,260.6318,139.9544,257.6494,144.7612,265.5,138.8141" style="stroke:#000000;stroke-width:1;"/></g><!--link CLIUser to UCCompare--><g class="link" data-entity-1="ent0002" data-entity-2="ent0009" data-link-type="dependency" data-source-line="28" id="lnk19"><path d="M105.52,326.9241 C125.2,306.7441 153.47,281.0041 182.99,264.9641 C211.3,249.5741 239.512,240.4387 268.942,233.4587" fill="none" id="CLIUser-to-UCCompare" style="stroke:#000000;stroke-width:1;"/><polygon fill="#000000" points="274.78,232.0741,265.0998,230.259,269.915,233.228,266.946,238.0431,274.78,232.0741" style="stroke:#000000;stroke-width:1;"/></g><!--link CLIUser to UCInspect--><g class="link" data-entity-1="ent0002" data-entity-2="ent0010" data-link-type="dependency" data-source-line="29" id="lnk20"><path d="M105.34,352.2941 C140.04,346.2641 196.3086,336.4913 248.3886,327.4413" fill="none" id="CLIUser-to-UCInspect" style="stroke:#000000;stroke-width:1;"/><polygon fill="#000000" points="254.3,326.4141,244.7481,324.014,249.3738,327.2701,246.1177,331.8959,254.3,326.4141" style="stroke:#000000;stroke-width:1;"/></g><!--link CLIUser to UCMigrate--><g class="link" data-entity-1="ent0002" data-entity-2="ent0011" data-link-type="dependency" data-source-line="30" id="lnk21"><path d="M105.34,361.5241 C140.64,367.5241 198.4248,377.3491 251.0448,386.2891" fill="none" id="CLIUser-to-UCMigrate" style="stroke:#000000;stroke-width:1;"/><polygon fill="#000000" points="256.96,387.2941,248.7571,381.8431,252.0306,386.4566,247.4172,389.7301,256.96,387.2941" style="stroke:#000000;stroke-width:1;"/></g><!--link UIUser to UIRun--><g class="link" data-entity-1="ent0003" data-entity-2="ent0012" data-link-type="dependency" data-source-line="32" id="lnk22"><path d="M102.46,715.5841 C141.98,719.9141 216.1657,728.0407 273.1257,734.2807" fill="none" id="UIUser-to-UIRun" style="stroke:#000000;stroke-width:1;"/><polygon fill="#000000" points="279.09,734.9341,270.5791,729.9778,274.1197,734.3896,269.7079,737.9302,279.09,734.9341" style="stroke:#000000;stroke-width:1;"/></g><!--link UIUser to UIPause--><g class="link" data-entity-1="ent0003" data-entity-2="ent0013" data-link-type="dependency" data-source-line="33" id="lnk23"><path d="M102.46,709.0641 C139.56,703.0441 206.5476,692.1658 262.4676,683.0858" fill="none" id="UIUser-to-UIPause" style="stroke:#000000;stroke-width:1;"/><polygon fill="#000000" points="268.39,682.1241,258.8652,679.6183,263.4546,682.9255,260.1475,687.5149,268.39,682.1241" style="stroke:#000000;stroke-width:1;"/></g><!--link ResearchUser to UCAuditSuite--><g class="link" data-entity-1="ent0004" data-entity-2="ent0014" data-link-type="dependency" data-source-line="35" id="lnk24"><path d="M144.28,863.0441 C173.53,857.2941 202.7624,851.5503 235.3024,845.1603" fill="none" id="ResearchUser-to-UCAuditSuite" style="stroke:#000000;stroke-width:1;"/><polygon fill="#000000" points="241.19,844.0041,231.5879,841.8133,236.2837,844.9676,233.1294,849.6634,241.19,844.0041" style="stroke:#000000;stroke-width:1;"/></g><!--link ResearchUser to UCResearchReport--><g class="link" data-entity-1="ent0004" data-entity-2="ent0015" data-link-type="dependency" data-source-line="36" id="lnk25"><path d="M144.38,888.0941 C226.2,900.2841 368.75,911.9841 481.53,870.9641 C628.23,817.5941 754.3933,678.9954 805.0133,617.8654" fill="none" id="ResearchUser-to-UCResearchReport" style="stroke:#000000;stroke-width:1;"/><polygon fill="#000000" points="808.84,613.2441,800.0191,617.6248,805.6511,617.0952,806.1807,622.7272,808.84,613.2441" style="stroke:#000000;stroke-width:1;"/></g><!--link UCRun to UCResearchReport--><g class="link" data-entity-1="ent0007" data-entity-2="ent0015" data-link-type="dependency" data-source-line="38" id="lnk26"><path d="M472.97,584.9641 C544.69,584.9641 627.86,584.9641 699.31,584.9641" fill="none" id="UCRun-to-UCResearchReport" style="stroke:#000000;stroke-width:1;"/><polygon fill="#000000" points="705.31,584.9641,696.31,580.9641,700.31,584.9641,696.31,588.9641,705.31,584.9641" style="stroke:#000000;stroke-width:1;"/><text fill="#000000" font-family="Verdana" font-size="13" lengthAdjust="spacing" textLength="140.5041" x="523.53" y="580.8611">provides audit artifacts</text></g><!--link UCInspect to UCResearchReport--><g class="link" data-entity-1="ent0010" data-entity-2="ent0015" data-link-type="dependency" data-source-line="39" id="lnk27"><path d="M418.78,331.3641 C439.51,338.1441 461.78,346.4341 481.53,355.9641 C604.45,415.2241 730.7167,507.2956 791.6467,553.9656" fill="none" id="UCInspect-to-UCResearchReport" style="stroke:#000000;stroke-width:1;"/><polygon fill="#000000" points="796.41,557.6141,791.6974,548.9659,792.4406,554.5737,786.8328,555.3169,796.41,557.6141" style="stroke:#000000;stroke-width:1;"/><text fill="#000000" font-family="Verdana" font-size="13" lengthAdjust="spacing" textLength="162.6561" x="512.53" y="367.0711">provides relations artifacts</text></g><?plantuml-src XLJ1Yjim4BthAwO-xL9St_TGQ4qf2mbTuhgdmgBQ4qTWoKOQXmsb_zwHB6Nb9R2N4BzvxtdcZUGFT4ADC8zI6J7YaO0ci6eu4VJAOaTgCaAGeX7XyFD70utIq3g4MZfqS5Vl7k4ZjFxdW0wbxKxmPUaLtGiXEvei59x22bk0TC0F_d-gjLcftLIsRg-iX0Uky1rACt1pnRMxvk88TG5_1S3YiED6eVWbHzLBuhudSrJ3RtDtZiZz-l8wCNBLOJ7USXcbpu5d_FOoJvPORHV_Y6Sqv2gDP5NdAXa6ZtwipQs-Ik9XM8zMQQzYapyUAzagQG8fLzMJdgL5sAzlO4st8aaH2RdcqRYPOu7zrEF8UQtDUwrQAwNsbUGGwRd3NWtMPxN3GNQNryZqYfTT0991P8lSWVUwaulfJXN74BVx9X2cF4b-gdYZYyQg8PmZC-0Rl-jfgAV545fyaNhchOV3uTSHwy-U_kmMHVXflgGE0wlnu4tF0_gbmdSqQ4DMkQ4DnSmioLQL-2T4FDDGbf_pSxI5_VHRP5ts5alhtA9fHLlqcdkReI7b3H33pEzDDCXYkL5zCwS88zoimGFCTZghdZy8uGg0jAIEV96Tk3R_hjAcWvgf_mC0?></g></svg>