<?plantuml 1.2026.2?><svg xmlns="http://www.w3.org/2000/svg" xmlns:xlink="http://www.w3.org/1999/xlink" contentStyleType="text/css" data-diagram-type="CLASS" height="535px" preserveAspectRatio="none" style="width:3034px;height:535px;background:#FFFFFF;" version="1.1" viewBox="0 0 3034 535" width="3034px" zoomAndPan="magnify"><title>RTOS Sim Core Runtime Contracts &amp; Factories (L2)</title><defs/><g><g class="title" data-source-line="4"><text fill="#000000" font-family="Verdana" font-size="22" font-weight="bold" lengthAdjust="spacing" textLength="545.8879" x="1239.9148" y="38.5181">RTOS Sim Core Runtime Contracts &amp; Factories (L2)</text></g><!--class ISimEngine--><g class="entity" data-qualified-name="ISimEngine" data-source-line="6" id="ent0002"><rect fill="#FFFFFF" height="178.5433" rx="2.5" ry="2.5" style="stroke:#000000;stroke-width:1;" width="97.5797" x="2400.67" y="187.0241"/><ellipse cx="2413.67" cy="201.5581" fill="#FFFFFF" rx="9" ry="9" style="stroke:#000000;stroke-width:1;"/><path d="M2410.17,196.6518 L2410.17,198.0424 L2413.045,198.0424 L2413.045,205.1674 L2410.17,205.1674 L2410.17,206.5581 L2417.3888,206.5581 L2417.3888,205.1674 L2414.5138,205.1674 L2414.5138,198.0424 L2417.3888,198.0424 L2417.3888,196.6518 L2410.17,196.6518 Z " fill="#000000"/><text fill="#000000" font-family="Verdana" font-size="14" font-style="italic" lengthAdjust="spacing" textLength="69.5797" x="2425.67" y="206.99">ISimEngine</text><line style="stroke:#000000;stroke-width:1;" x1="2401.67" x2="2497.2497" y1="216.092" y2="216.092"/><line style="stroke:#000000;stroke-width:1;" x1="2401.67" x2="2497.2497" y1="224.092" y2="224.092"/><text fill="#000000" font-family="Verdana" font-size="14" lengthAdjust="spacing" textLength="79.4357" x="2406.67" y="243.058">+build(spec)</text><text fill="#000000" font-family="Verdana" font-size="14" lengthAdjust="spacing" textLength="69.0757" x="2406.67" y="262.1259">+run(until)</text><text fill="#000000" font-family="Verdana" font-size="14" lengthAdjust="spacing" textLength="77.6997" x="2406.67" y="281.1938">+step(delta)</text><text fill="#000000" font-family="Verdana" font-size="14" lengthAdjust="spacing" textLength="56.1258" x="2406.67" y="300.2617">+pause()</text><text fill="#000000" font-family="Verdana" font-size="14" lengthAdjust="spacing" textLength="66.4297" x="2406.67" y="319.3296">+resume()</text><text fill="#000000" font-family="Verdana" font-size="14" lengthAdjust="spacing" textLength="45.2478" x="2406.67" y="338.3975">+stop()</text><text fill="#000000" font-family="Verdana" font-size="14" lengthAdjust="spacing" textLength="49.7418" x="2406.67" y="357.4655">+reset()</text></g><!--class SimEngine--><g class="entity" data-qualified-name="SimEngine" data-source-line="16" id="ent0003"><rect fill="#FFFFFF" height="45.0679" rx="2.5" ry="2.5" style="stroke:#000000;stroke-width:1;" width="97.5937" x="2076.66" y="62.9641"/><ellipse cx="2089.66" cy="77.4981" fill="#FFFFFF" rx="9" ry="9" style="stroke:#000000;stroke-width:1;"/><path d="M2093.0663,79.4668 C2092.3475,80.1387 2091.0506,81.3106 2089.3006,81.3106 C2087.0819,81.3106 2086.1131,79.3731 2086.1131,77.4199 C2086.1131,75.0293 2087.5975,73.7637 2089.2381,73.7637 C2091.2538,73.7637 2091.4725,75.2793 2091.6444,76.3731 L2093.0663,76.1856 C2092.9725,75.6074 2092.8944,75.0293 2092.8944,74.0606 C2092.8944,73.3887 2092.9413,72.8418 2092.9725,72.4199 L2091.5663,72.4199 L2091.4569,73.3731 C2090.8631,72.8418 2090.2225,72.2949 2089.0038,72.2949 C2086.9569,72.2949 2084.5506,74.1231 2084.5506,77.4356 C2084.5506,80.3731 2086.3163,82.7637 2089.3163,82.7637 C2091.7538,82.7637 2093.4569,81.1387 2094.0506,80.5606 L2093.0663,79.4668 Z " fill="#000000"/><text fill="#000000" font-family="Verdana" font-size="14" lengthAdjust="spacing" textLength="69.5937" x="2101.66" y="82.93">SimEngine</text><line style="stroke:#000000;stroke-width:1;" x1="2077.66" x2="2173.2537" y1="92.032" y2="92.032"/><line style="stroke:#000000;stroke-width:1;" x1="2077.66" x2="2173.2537" y1="100.032" y2="100.032"/></g><!--class IScheduler--><g class="entity" data-qualified-name="IScheduler" data-source-line="19" id="ent0005"><rect fill="#FFFFFF" height="64.1358" rx="2.5" ry="2.5" style="stroke:#000000;stroke-width:1;" width="183.3733" x="273.77" y="445.6441"/><ellipse cx="328.9958" cy="460.1781" fill="#FFFFFF" rx="9" ry="9" style="stroke:#000000;stroke-width:1;"/><path d="M325.4958,455.2718 L325.4958,456.6624 L328.3708,456.6624 L328.3708,463.7874 L325.4958,463.7874 L325.4958,465.1781 L332.7145,465.1781 L332.7145,463.7874 L329.8395,463.7874 L329.8395,456.6624 L332.7145,456.6624 L332.7145,455.2718 L325.4958,455.2718 Z " fill="#000000"/><text fill="#000000" font-family="Verdana" font-size="14" font-style="italic" lengthAdjust="spacing" textLength="65.4218" x="346.4958" y="465.61">IScheduler</text><line style="stroke:#000000;stroke-width:1;" x1="274.77" x2="456.1433" y1="474.712" y2="474.712"/><line style="stroke:#000000;stroke-width:1;" x1="274.77" x2="456.1433" y1="482.712" y2="482.712"/><text fill="#000000" font-family="Verdana" font-size="14" lengthAdjust="spacing" textLength="171.3733" x="279.77" y="501.678">+schedule(now, snapshot)</text></g><!--class PriorityScheduler--><g class="entity" data-qualified-name="PriorityScheduler" data-source-line="23" id="ent0006"><rect fill="#FFFFFF" height="45.0679" rx="2.5" ry="2.5" style="stroke:#000000;stroke-width:1;" width="134.2596" x="78.33" y="253.7641"/><ellipse cx="91.33" cy="268.2981" fill="#FFFFFF" rx="9" ry="9" style="stroke:#000000;stroke-width:1;"/><path d="M88.0331,262.6418 L88.0331,264.0324 L90.2206,264.0324 L87.3144,271.1574 L86.33,271.1574 L86.33,272.5481 L90.3613,272.5481 L90.3613,271.1574 L88.8456,271.1574 L89.5019,269.4856 L93.33,269.4856 L94.0019,271.1574 L92.5019,271.1574 L92.5019,272.5481 L96.5331,272.5481 L96.5331,271.1574 L95.58,271.1574 L92.1269,262.6418 L88.0331,262.6418 Z M92.7831,268.0949 L90.08,268.0949 L91.4238,264.8449 L92.7831,268.0949 Z " fill="#000000"/><text fill="#000000" font-family="Verdana" font-size="14" font-style="italic" lengthAdjust="spacing" textLength="106.2596" x="103.33" y="273.73">PriorityScheduler</text><line style="stroke:#000000;stroke-width:1;" x1="79.33" x2="211.5896" y1="282.832" y2="282.832"/><line style="stroke:#000000;stroke-width:1;" x1="79.33" x2="211.5896" y1="290.832" y2="290.832"/></g><!--class EDFScheduler--><g class="entity" data-qualified-name="EDFScheduler" data-source-line="24" id="ent0007"><rect fill="#FFFFFF" height="45.0679" rx="2.5" ry="2.5" style="stroke:#000000;stroke-width:1;" width="118.7756" x="162.07" y="62.9641"/><ellipse cx="175.07" cy="77.4981" fill="#FFFFFF" rx="9" ry="9" style="stroke:#000000;stroke-width:1;"/><path d="M178.4763,79.4668 C177.7575,80.1387 176.4606,81.3106 174.7106,81.3106 C172.4919,81.3106 171.5231,79.3731 171.5231,77.4199 C171.5231,75.0293 173.0075,73.7637 174.6481,73.7637 C176.6638,73.7637 176.8825,75.2793 177.0544,76.3731 L178.4763,76.1856 C178.3825,75.6074 178.3044,75.0293 178.3044,74.0606 C178.3044,73.3887 178.3513,72.8418 178.3825,72.4199 L176.9763,72.4199 L176.8669,73.3731 C176.2731,72.8418 175.6325,72.2949 174.4138,72.2949 C172.3669,72.2949 169.9606,74.1231 169.9606,77.4356 C169.9606,80.3731 171.7263,82.7637 174.7263,82.7637 C177.1638,82.7637 178.8669,81.1387 179.4606,80.5606 L178.4763,79.4668 Z " fill="#000000"/><text fill="#000000" font-family="Verdana" font-size="14" lengthAdjust="spacing" textLength="90.7756" x="187.07" y="82.93">EDFScheduler</text><line style="stroke:#000000;stroke-width:1;" x1="163.07" x2="279.8456" y1="92.032" y2="92.032"/><line style="stroke:#000000;stroke-width:1;" x1="163.07" x2="279.8456" y1="100.032" y2="100.032"/></g><!--class RMScheduler--><g class="entity" data-qualified-name="RMScheduler" data-source-line="25" id="ent0008"><rect fill="#FFFFFF" height="45.0679" rx="2.5" ry="2.5" style="stroke:#000000;stroke-width:1;" width="114.9117" x="12" y="62.9641"/><ellipse cx="25" cy="77.4981" fill="#FFFFFF" rx="9" ry="9" style="stroke:#000000;stroke-width:1;"/><path d="M28.4063,79.4668 C27.6875,80.1387 26.3906,81.3106 24.6406,81.3106 C22.4219,81.3106 21.4531,79.3731 21.4531,77.4199 C21.4531,75.0293 22.9375,73.7637 24.5781,73.7637 C26.5938,73.7637 26.8125,75.2793 26.9844,76.3731 L28.4063,76.1856 C28.3125,75.6074 28.2344,75.0293 28.2344,74.0606 C28.2344,73.3887 28.2813,72.8418 28.3125,72.4199 L26.9063,72.4199 L26.7969,73.3731 C26.2031,72.8418 25.5625,72.2949 24.3438,72.2949 C22.2969,72.2949 19.8906,74.1231 19.8906,77.4356 C19.8906,80.3731 21.6563,82.7637 24.6563,82.7637 C27.0938,82.7637 28.7969,81.1387 29.3906,80.5606 L28.4063,79.4668 Z " fill="#000000"/><text fill="#000000" font-family="Verdana" font-size="14" lengthAdjust="spacing" textLength="86.9117" x="37" y="82.93">RMScheduler</text><line style="stroke:#000000;stroke-width:1;" x1="13" x2="125.9117" y1="92.032" y2="92.032"/><line style="stroke:#000000;stroke-width:1;" x1="13" x2="125.9117" y1="100.032" y2="100.032"/></g><!--class IResourceProtocol--><g class="entity" data-qualified-name="IResourceProtocol" data-source-line="31" id="ent0012"><rect fill="#FFFFFF" height="102.2717" rx="2.5" ry="2.5" style="stroke:#000000;stroke-width:1;" width="293.917" x="868.5" y="426.5741"/><ellipse cx="955.5897" cy="441.1081" fill="#FFFFFF" rx="9" ry="9" style="stroke:#000000;stroke-width:1;"/><path d="M952.0897,436.2018 L952.0897,437.5924 L954.9647,437.5924 L954.9647,444.7174 L952.0897,444.7174 L952.0897,446.1081 L959.3084,446.1081 L959.3084,444.7174 L956.4334,444.7174 L956.4334,437.5924 L959.3084,437.5924 L959.3084,436.2018 L952.0897,436.2018 Z " fill="#000000"/><text fill="#000000" font-family="Verdana" font-size="14" font-style="italic" lengthAdjust="spacing" textLength="112.2376" x="973.0897" y="446.54">IResourceProtocol</text><line style="stroke:#000000;stroke-width:1;" x1="869.5" x2="1161.417" y1="455.642" y2="455.642"/><line style="stroke:#000000;stroke-width:1;" x1="869.5" x2="1161.417" y1="463.642" y2="463.642"/><text fill="#000000" font-family="Verdana" font-size="14" lengthAdjust="spacing" textLength="144.2274" x="874.5" y="482.608">+configure(resources)</text><text fill="#000000" font-family="Verdana" font-size="14" lengthAdjust="spacing" textLength="281.917" x="874.5" y="501.6759">+request(segment, resource, core, priority)</text><text fill="#000000" font-family="Verdana" font-size="14" lengthAdjust="spacing" textLength="187.2493" x="874.5" y="520.7438">+release(segment, resource)</text></g><!--class MutexResourceProtocol--><g class="entity" data-qualified-name="MutexResourceProtocol" data-source-line="37" id="ent0013"><rect fill="#FFFFFF" height="45.0679" rx="2.5" ry="2.5" style="stroke:#000000;stroke-width:1;" width="185.5834" x="1068.66" y="253.7641"/><ellipse cx="1081.66" cy="268.2981" fill="#FFFFFF" rx="9" ry="9" style="stroke:#000000;stroke-width:1;"/><path d="M1085.0663,270.2668 C1084.3475,270.9387 1083.0506,272.1106 1081.3006,272.1106 C1079.0819,272.1106 1078.1131,270.1731 1078.1131,268.2199 C1078.1131,265.8293 1079.5975,264.5637 1081.2381,264.5637 C1083.2538,264.5637 1083.4725,266.0793 1083.6444,267.1731 L1085.0663,266.9856 C1084.9725,266.4074 1084.8944,265.8293 1084.8944,264.8606 C1084.8944,264.1887 1084.9413,263.6418 1084.9725,263.2199 L1083.5663,263.2199 L1083.4569,264.1731 C1082.8631,263.6418 1082.2225,263.0949 1081.0038,263.0949 C1078.9569,263.0949 1076.5506,264.9231 1076.5506,268.2356 C1076.5506,271.1731 1078.3163,273.5637 1081.3163,273.5637 C1083.7538,273.5637 1085.4569,271.9387 1086.0506,271.3606 L1085.0663,270.2668 Z " fill="#000000"/><text fill="#000000" font-family="Verdana" font-size="14" lengthAdjust="spacing" textLength="157.5834" x="1093.66" y="273.73">MutexResourceProtocol</text><line style="stroke:#000000;stroke-width:1;" x1="1069.66" x2="1253.2434" y1="282.832" y2="282.832"/><line style="stroke:#000000;stroke-width:1;" x1="1069.66" x2="1253.2434" y1="290.832" y2="290.832"/></g><!--class PIPResourceProtocol--><g class="entity" data-qualified-name="PIPResourceProtocol" data-source-line="38" id="ent0014"><rect fill="#FFFFFF" height="45.0679" rx="2.5" ry="2.5" style="stroke:#000000;stroke-width:1;" width="165.5635" x="1289.67" y="253.7641"/><ellipse cx="1302.67" cy="268.2981" fill="#FFFFFF" rx="9" ry="9" style="stroke:#000000;stroke-width:1;"/><path d="M1306.0763,270.2668 C1305.3575,270.9387 1304.0606,272.1106 1302.3106,272.1106 C1300.0919,272.1106 1299.1231,270.1731 1299.1231,268.2199 C1299.1231,265.8293 1300.6075,264.5637 1302.2481,264.5637 C1304.2638,264.5637 1304.4825,266.0793 1304.6544,267.1731 L1306.0763,266.9856 C1305.9825,266.4074 1305.9044,265.8293 1305.9044,264.8606 C1305.9044,264.1887 1305.9513,263.6418 1305.9825,263.2199 L1304.5763,263.2199 L1304.4669,264.1731 C1303.8731,263.6418 1303.2325,263.0949 1302.0138,263.0949 C1299.9669,263.0949 1297.5606,264.9231 1297.5606,268.2356 C1297.5606,271.1731 1299.3263,273.5637 1302.3263,273.5637 C1304.7638,273.5637 1306.4669,271.9387 1307.0606,271.3606 L1306.0763,270.2668 Z " fill="#000000"/><text fill="#000000" font-family="Verdana" font-size="14" lengthAdjust="spacing" textLength="137.5635" x="1314.67" y="273.73">PIPResourceProtocol</text><line style="stroke:#000000;stroke-width:1;" x1="1290.67" x2="1454.2335" y1="282.832" y2="282.832"/><line style="stroke:#000000;stroke-width:1;" x1="1290.67" x2="1454.2335" y1="290.832" y2="290.832"/></g><!--class PCPResourceProtocol--><g class="entity" data-qualified-name="PCPResourceProtocol" data-source-line="39" id="ent0015"><rect fill="#FFFFFF" height="45.0679" rx="2.5" ry="2.5" style="stroke:#000000;stroke-width:1;" width="169.6655" x="589.62" y="253.7641"/><ellipse cx="602.62" cy="268.2981" fill="#FFFFFF" rx="9" ry="9" style="stroke:#000000;stroke-width:1;"/><path d="M606.0263,270.2668 C605.3075,270.9387 604.0106,272.1106 602.2606,272.1106 C600.0419,272.1106 599.0731,270.1731 599.0731,268.2199 C599.0731,265.8293 600.5575,264.5637 602.1981,264.5637 C604.2138,264.5637 604.4325,266.0793 604.6044,267.1731 L606.0263,266.9856 C605.9325,266.4074 605.8544,265.8293 605.8544,264.8606 C605.8544,264.1887 605.9013,263.6418 605.9325,263.2199 L604.5263,263.2199 L604.4169,264.1731 C603.8231,263.6418 603.1825,263.0949 601.9638,263.0949 C599.9169,263.0949 597.5106,264.9231 597.5106,268.2356 C597.5106,271.1731 599.2763,273.5637 602.2763,273.5637 C604.7138,273.5637 606.4169,271.9387 607.0106,271.3606 L606.0263,270.2668 Z " fill="#000000"/><text fill="#000000" font-family="Verdana" font-size="14" lengthAdjust="spacing" textLength="141.6655" x="614.62" y="273.73">PCPResourceProtocol</text><line style="stroke:#000000;stroke-width:1;" x1="590.62" x2="758.2855" y1="282.832" y2="282.832"/><line style="stroke:#000000;stroke-width:1;" x1="590.62" x2="758.2855" y1="290.832" y2="290.832"/></g><!--class IExecutionTimeModel--><g class="entity" data-qualified-name="IExecutionTimeModel" data-source-line="45" id="ent0019"><rect fill="#FFFFFF" height="83.2038" rx="2.5" ry="2.5" style="stroke:#000000;stroke-width:1;" width="160.3975" x="1865.26" y="436.1041"/><ellipse cx="1878.26" cy="450.6381" fill="#FFFFFF" rx="9" ry="9" style="stroke:#000000;stroke-width:1;"/><path d="M1874.76,445.7318 L1874.76,447.1224 L1877.635,447.1224 L1877.635,454.2474 L1874.76,454.2474 L1874.76,455.6381 L1881.9788,455.6381 L1881.9788,454.2474 L1879.1038,454.2474 L1879.1038,447.1224 L1881.9788,447.1224 L1881.9788,445.7318 L1874.76,445.7318 Z " fill="#000000"/><text fill="#000000" font-family="Verdana" font-size="14" font-style="italic" lengthAdjust="spacing" textLength="132.3975" x="1890.26" y="456.07">IExecutionTimeModel</text><line style="stroke:#000000;stroke-width:1;" x1="1866.26" x2="2024.6575" y1="465.172" y2="465.172"/><line style="stroke:#000000;stroke-width:1;" x1="1866.26" x2="2024.6575" y1="473.172" y2="473.172"/><text fill="#000000" font-family="Verdana" font-size="14" lengthAdjust="spacing" textLength="84.8257" x="1871.26" y="492.138">+estimate(...)</text><text fill="#000000" font-family="Verdana" font-size="14" lengthAdjust="spacing" textLength="80.9197" x="1871.26" y="511.2059">+on_exec(...)</text></g><!--class ConstantExecutionTimeModel--><g class="entity" data-qualified-name="ConstantExecutionTimeModel" data-source-line="50" id="ent0020"><rect fill="#FFFFFF" height="45.0679" rx="2.5" ry="2.5" style="stroke:#000000;stroke-width:1;" width="225.2032" x="1489.85" y="253.7641"/><ellipse cx="1502.85" cy="268.2981" fill="#FFFFFF" rx="9" ry="9" style="stroke:#000000;stroke-width:1;"/><path d="M1506.2563,270.2668 C1505.5375,270.9387 1504.2406,272.1106 1502.4906,272.1106 C1500.2719,272.1106 1499.3031,270.1731 1499.3031,268.2199 C1499.3031,265.8293 1500.7875,264.5637 1502.4281,264.5637 C1504.4438,264.5637 1504.6625,266.0793 1504.8344,267.1731 L1506.2563,266.9856 C1506.1625,266.4074 1506.0844,265.8293 1506.0844,264.8606 C1506.0844,264.1887 1506.1313,263.6418 1506.1625,263.2199 L1504.7563,263.2199 L1504.6469,264.1731 C1504.0531,263.6418 1503.4125,263.0949 1502.1938,263.0949 C1500.1469,263.0949 1497.7406,264.9231 1497.7406,268.2356 C1497.7406,271.1731 1499.5063,273.5637 1502.5063,273.5637 C1504.9438,273.5637 1506.6469,271.9387 1507.2406,271.3606 L1506.2563,270.2668 Z " fill="#000000"/><text fill="#000000" font-family="Verdana" font-size="14" lengthAdjust="spacing" textLength="197.2032" x="1514.85" y="273.73">ConstantExecutionTimeModel</text><line style="stroke:#000000;stroke-width:1;" x1="1490.85" x2="1714.0532" y1="282.832" y2="282.832"/><line style="stroke:#000000;stroke-width:1;" x1="1490.85" x2="1714.0532" y1="290.832" y2="290.832"/></g><!--class TableBasedExecutionTimeModel--><g class="entity" data-qualified-name="TableBasedExecutionTimeModel" data-source-line="51" id="ent0021"><rect fill="#FFFFFF" height="45.0679" rx="2.5" ry="2.5" style="stroke:#000000;stroke-width:1;" width="241.8352" x="1750.54" y="253.7641"/><ellipse cx="1763.54" cy="268.2981" fill="#FFFFFF" rx="9" ry="9" style="stroke:#000000;stroke-width:1;"/><path d="M1766.9463,270.2668 C1766.2275,270.9387 1764.9306,272.1106 1763.1806,272.1106 C1760.9619,272.1106 1759.9931,270.1731 1759.9931,268.2199 C1759.9931,265.8293 1761.4775,264.5637 1763.1181,264.5637 C1765.1338,264.5637 1765.3525,266.0793 1765.5244,267.1731 L1766.9463,266.9856 C1766.8525,266.4074 1766.7744,265.8293 1766.7744,264.8606 C1766.7744,264.1887 1766.8213,263.6418 1766.8525,263.2199 L1765.4463,263.2199 L1765.3369,264.1731 C1764.7431,263.6418 1764.1025,263.0949 1762.8838,263.0949 C1760.8369,263.0949 1758.4306,264.9231 1758.4306,268.2356 C1758.4306,271.1731 1760.1963,273.5637 1763.1963,273.5637 C1765.6338,273.5637 1767.3369,271.9387 1767.9306,271.3606 L1766.9463,270.2668 Z " fill="#000000"/><text fill="#000000" font-family="Verdana" font-size="14" lengthAdjust="spacing" textLength="213.8352" x="1775.54" y="273.73">TableBasedExecutionTimeModel</text><line style="stroke:#000000;stroke-width:1;" x1="1751.54" x2="1991.3752" y1="282.832" y2="282.832"/><line style="stroke:#000000;stroke-width:1;" x1="1751.54" x2="1991.3752" y1="290.832" y2="290.832"/></g><!--class IOverheadModel--><g class="entity" data-qualified-name="IOverheadModel" data-source-line="56" id="ent0024"><rect fill="#FFFFFF" height="102.2717" rx="2.5" ry="2.5" style="stroke:#000000;stroke-width:1;" width="160.2174" x="2593.35" y="426.5741"/><ellipse cx="2619.3918" cy="441.1081" fill="#FFFFFF" rx="9" ry="9" style="stroke:#000000;stroke-width:1;"/><path d="M2615.8918,436.2018 L2615.8918,437.5924 L2618.7668,437.5924 L2618.7668,444.7174 L2615.8918,444.7174 L2615.8918,446.1081 L2623.1106,446.1081 L2623.1106,444.7174 L2620.2356,444.7174 L2620.2356,437.5924 L2623.1106,437.5924 L2623.1106,436.2018 L2615.8918,436.2018 Z " fill="#000000"/><text fill="#000000" font-family="Verdana" font-size="14" font-style="italic" lengthAdjust="spacing" textLength="103.2356" x="2634.29" y="446.54">IOverheadModel</text><line style="stroke:#000000;stroke-width:1;" x1="2594.35" x2="2752.5674" y1="455.642" y2="455.642"/><line style="stroke:#000000;stroke-width:1;" x1="2594.35" x2="2752.5674" y1="463.642" y2="463.642"/><text fill="#000000" font-family="Verdana" font-size="14" lengthAdjust="spacing" textLength="148.2174" x="2599.35" y="482.608">+on_context_switch(...)</text><text fill="#000000" font-family="Verdana" font-size="14" lengthAdjust="spacing" textLength="115.7375" x="2599.35" y="501.6759">+on_migration(...)</text><text fill="#000000" font-family="Verdana" font-size="14" lengthAdjust="spacing" textLength="109.7455" x="2599.35" y="520.7438">+on_schedule(...)</text></g><!--class SimpleOverheadModel--><g class="entity" data-qualified-name="SimpleOverheadModel" data-source-line="62" id="ent0025"><rect fill="#FFFFFF" height="45.0679" rx="2.5" ry="2.5" style="stroke:#000000;stroke-width:1;" width="178.5274" x="2849.19" y="253.7641"/><ellipse cx="2862.19" cy="268.2981" fill="#FFFFFF" rx="9" ry="9" style="stroke:#000000;stroke-width:1;"/><path d="M2865.5963,270.2668 C2864.8775,270.9387 2863.5806,272.1106 2861.8306,272.1106 C2859.6119,272.1106 2858.6431,270.1731 2858.6431,268.2199 C2858.6431,265.8293 2860.1275,264.5637 2861.7681,264.5637 C2863.7838,264.5637 2864.0025,266.0793 2864.1744,267.1731 L2865.5963,266.9856 C2865.5025,266.4074 2865.4244,265.8293 2865.4244,264.8606 C2865.4244,264.1887 2865.4713,263.6418 2865.5025,263.2199 L2864.0963,263.2199 L2863.9869,264.1731 C2863.3931,263.6418 2862.7525,263.0949 2861.5338,263.0949 C2859.4869,263.0949 2857.0806,264.9231 2857.0806,268.2356 C2857.0806,271.1731 2858.8463,273.5637 2861.8463,273.5637 C2864.2838,273.5637 2865.9869,271.9387 2866.5806,271.3606 L2865.5963,270.2668 Z " fill="#000000"/><text fill="#000000" font-family="Verdana" font-size="14" lengthAdjust="spacing" textLength="150.5274" x="2874.19" y="273.73">SimpleOverheadModel</text><line style="stroke:#000000;stroke-width:1;" x1="2850.19" x2="3026.7174" y1="282.832" y2="282.832"/><line style="stroke:#000000;stroke-width:1;" x1="2850.19" x2="3026.7174" y1="290.832" y2="290.832"/></g><!--class SchedulerRegistry--><g class="entity" data-qualified-name="SchedulerRegistry" data-source-line="65" id="ent0027"><rect fill="#FFFFFF" height="80.4799" rx="2.5" ry="2.5" style="stroke:#000000;stroke-width:1;" width="235.1311" x="247.89" y="236.0641"/><ellipse cx="302.1988" cy="258.7701" fill="#FFFFFF" rx="9" ry="9" style="stroke:#000000;stroke-width:1;"/><path d="M305.605,260.7389 C304.8863,261.4107 303.5894,262.5826 301.8394,262.5826 C299.6207,262.5826 298.6519,260.6451 298.6519,258.692 C298.6519,256.3014 300.1363,255.0357 301.7769,255.0357 C303.7925,255.0357 304.0113,256.5514 304.1832,257.6451 L305.605,257.4576 C305.5113,256.8795 305.4332,256.3014 305.4332,255.3326 C305.4332,254.6607 305.48,254.1139 305.5113,253.692 L304.105,253.692 L303.9957,254.6451 C303.4019,254.1139 302.7613,253.567 301.5425,253.567 C299.4957,253.567 297.0894,255.3951 297.0894,258.7076 C297.0894,261.6451 298.855,264.0357 301.855,264.0357 C304.2925,264.0357 305.9957,262.4107 306.5894,261.8326 L305.605,260.7389 Z " fill="#000000"/><text fill="#000000" font-family="Verdana" font-size="12" font-style="italic" lengthAdjust="spacing" textLength="48.6363" x="354.8874" y="253.8922">&#171;factory&#187;</text><text fill="#000000" font-family="Verdana" font-size="14" lengthAdjust="spacing" textLength="119.0135" x="319.6988" y="272.3742">SchedulerRegistry</text><line style="stroke:#000000;stroke-width:1;" x1="248.89" x2="482.0211" y1="281.4761" y2="281.4761"/><line style="stroke:#000000;stroke-width:1;" x1="248.89" x2="482.0211" y1="289.4761" y2="289.4761"/><text fill="#000000" font-family="Verdana" font-size="14" lengthAdjust="spacing" textLength="223.1311" x="253.89" y="308.4421">+create_scheduler(name, params)</text></g><!--class ProtocolRegistry--><g class="entity" data-qualified-name="ProtocolRegistry" data-source-line="68" id="ent0028"><rect fill="#FFFFFF" height="80.4799" rx="2.5" ry="2.5" style="stroke:#000000;stroke-width:1;" width="168.5054" x="794.2" y="236.0641"/><ellipse cx="821.5774" cy="258.7701" fill="#FFFFFF" rx="9" ry="9" style="stroke:#000000;stroke-width:1;"/><path d="M824.9837,260.7389 C824.2649,261.4107 822.968,262.5826 821.218,262.5826 C818.9993,262.5826 818.0305,260.6451 818.0305,258.692 C818.0305,256.3014 819.5149,255.0357 821.1555,255.0357 C823.1712,255.0357 823.3899,256.5514 823.5618,257.6451 L824.9837,257.4576 C824.8899,256.8795 824.8118,256.3014 824.8118,255.3326 C824.8118,254.6607 824.8587,254.1139 824.8899,253.692 L823.4837,253.692 L823.3743,254.6451 C822.7805,254.1139 822.1399,253.567 820.9212,253.567 C818.8743,253.567 816.468,255.3951 816.468,258.7076 C816.468,261.6451 818.2337,264.0357 821.2337,264.0357 C823.6712,264.0357 825.3743,262.4107 825.968,261.8326 L824.9837,260.7389 Z " fill="#000000"/><text fill="#000000" font-family="Verdana" font-size="12" font-style="italic" lengthAdjust="spacing" textLength="48.6363" x="866.732" y="253.8922">&#171;factory&#187;</text><text fill="#000000" font-family="Verdana" font-size="14" lengthAdjust="spacing" textLength="108.5556" x="836.7724" y="272.3742">ProtocolRegistry</text><line style="stroke:#000000;stroke-width:1;" x1="795.2" x2="961.7054" y1="281.4761" y2="281.4761"/><line style="stroke:#000000;stroke-width:1;" x1="795.2" x2="961.7054" y1="289.4761" y2="289.4761"/><text fill="#000000" font-family="Verdana" font-size="14" lengthAdjust="spacing" textLength="156.5054" x="800.2" y="308.4421">+create_protocol(name)</text></g><!--class ETMRegistry--><g class="entity" data-qualified-name="ETMRegistry" data-source-line="71" id="ent0029"><rect fill="#FFFFFF" height="80.4799" rx="2.5" ry="2.5" style="stroke:#000000;stroke-width:1;" width="196.6453" x="2027.13" y="236.0641"/><ellipse cx="2080.8158" cy="258.7701" fill="#FFFFFF" rx="9" ry="9" style="stroke:#000000;stroke-width:1;"/><path d="M2084.2221,260.7389 C2083.5033,261.4107 2082.2064,262.5826 2080.4564,262.5826 C2078.2377,262.5826 2077.2689,260.6451 2077.2689,258.692 C2077.2689,256.3014 2078.7533,255.0357 2080.3939,255.0357 C2082.4096,255.0357 2082.6283,256.5514 2082.8002,257.6451 L2084.2221,257.4576 C2084.1283,256.8795 2084.0502,256.3014 2084.0502,255.3326 C2084.0502,254.6607 2084.0971,254.1139 2084.1283,253.692 L2082.7221,253.692 L2082.6127,254.6451 C2082.0189,254.1139 2081.3783,253.567 2080.1596,253.567 C2078.1127,253.567 2075.7064,255.3951 2075.7064,258.7076 C2075.7064,261.6451 2077.4721,264.0357 2080.4721,264.0357 C2082.9096,264.0357 2084.6127,262.4107 2085.2064,261.8326 L2084.2221,260.7389 Z " fill="#000000"/><text fill="#000000" font-family="Verdana" font-size="12" font-style="italic" lengthAdjust="spacing" textLength="48.6363" x="2114.8845" y="253.8922">&#171;factory&#187;</text><text fill="#000000" font-family="Verdana" font-size="14" lengthAdjust="spacing" textLength="81.7737" x="2098.3158" y="272.3742">ETMRegistry</text><line style="stroke:#000000;stroke-width:1;" x1="2028.13" x2="2222.7753" y1="281.4761" y2="281.4761"/><line style="stroke:#000000;stroke-width:1;" x1="2028.13" x2="2222.7753" y1="289.4761" y2="289.4761"/><text fill="#000000" font-family="Verdana" font-size="14" lengthAdjust="spacing" textLength="184.6453" x="2033.13" y="308.4421">+create_etm(name, params)</text></g><!--class OverheadRegistry--><g class="entity" data-qualified-name="OverheadRegistry" data-source-line="74" id="ent0030"><rect fill="#FFFFFF" height="80.4799" rx="2.5" ry="2.5" style="stroke:#000000;stroke-width:1;" width="280.771" x="2533.07" y="236.0641"/><ellipse cx="2610.5837" cy="258.7701" fill="#FFFFFF" rx="9" ry="9" style="stroke:#000000;stroke-width:1;"/><path d="M2613.99,260.7389 C2613.2712,261.4107 2611.9743,262.5826 2610.2243,262.5826 C2608.0056,262.5826 2607.0368,260.6451 2607.0368,258.692 C2607.0368,256.3014 2608.5212,255.0357 2610.1618,255.0357 C2612.1775,255.0357 2612.3962,256.5514 2612.5681,257.6451 L2613.99,257.4576 C2613.8962,256.8795 2613.8181,256.3014 2613.8181,255.3326 C2613.8181,254.6607 2613.865,254.1139 2613.8962,253.692 L2612.49,253.692 L2612.3806,254.6451 C2611.7868,254.1139 2611.1462,253.567 2609.9275,253.567 C2607.8806,253.567 2605.4743,255.3951 2605.4743,258.7076 C2605.4743,261.6451 2607.24,264.0357 2610.24,264.0357 C2612.6775,264.0357 2614.3806,262.4107 2614.9743,261.8326 L2613.99,260.7389 Z " fill="#000000"/><text fill="#000000" font-family="Verdana" font-size="12" font-style="italic" lengthAdjust="spacing" textLength="48.6363" x="2662.8873" y="253.8922">&#171;factory&#187;</text><text fill="#000000" font-family="Verdana" font-size="14" lengthAdjust="spacing" textLength="118.2435" x="2628.0837" y="272.3742">OverheadRegistry</text><line style="stroke:#000000;stroke-width:1;" x1="2534.07" x2="2812.841" y1="281.4761" y2="281.4761"/><line style="stroke:#000000;stroke-width:1;" x1="2534.07" x2="2812.841" y1="289.4761" y2="289.4761"/><text fill="#000000" font-family="Verdana" font-size="14" lengthAdjust="spacing" textLength="268.771" x="2539.07" y="308.4421">+create_overhead_model(name, params)</text></g><!--link SimEngine to ISimEngine--><g class="link" data-entity-1="ent0003" data-entity-2="ent0002" data-link-type="extension" data-source-line="17" id="lnk4"><path codeLine="17" d="M2174.65,91.8241 C2237.66,99.4541 2342.43,115.1741 2373.46,138.0241 C2390.56,150.6341 2395.1953,152.7766 2406.0253,171.2466" fill="none" id="SimEngine-to-ISimEngine" style="stroke:#000000;stroke-width:1;stroke-dasharray:7,7;"/><polygon fill="none" points="2415.13,186.7741,2411.2012,168.2117,2400.8495,174.2814,2415.13,186.7741" style="stroke:#000000;stroke-width:1;"/></g><!--link PriorityScheduler to IScheduler--><g class="link" data-entity-1="ent0006" data-entity-2="ent0005" data-link-type="extension" data-source-line="27" id="lnk9"><path codeLine="27" d="M165.06,299.0241 C181.87,317.3241 207.03,343.9041 230.46,365.5741 C260.99,393.8141 283.3867,412.4821 310.7367,434.1321" fill="none" id="PriorityScheduler-to-IScheduler" style="stroke:#000000;stroke-width:1;stroke-dasharray:7,7;"/><polygon fill="none" points="324.85,445.3041,314.4606,429.4277,307.0127,438.8366,324.85,445.3041" style="stroke:#000000;stroke-width:1;"/></g><!--link EDFScheduler to PriorityScheduler--><g class="link" data-entity-1="ent0007" data-entity-2="ent0006" data-link-type="extension" data-source-line="28" id="lnk10"><path codeLine="28" d="M212.59,108.5241 C197.94,144.9041 175.5883,200.4249 160.9883,236.7149" fill="none" id="EDFScheduler-to-PriorityScheduler" style="stroke:#000000;stroke-width:1;"/><polygon fill="none" points="154.27,253.4141,166.5547,238.9543,155.4219,234.4754,154.27,253.4141" style="stroke:#000000;stroke-width:1;"/></g><!--link RMScheduler to PriorityScheduler--><g class="link" data-entity-1="ent0008" data-entity-2="ent0006" data-link-type="extension" data-source-line="29" id="lnk11"><path codeLine="29" d="M78.32,108.5241 C92.97,144.9041 115.3177,200.4265 129.9277,236.7165" fill="none" id="RMScheduler-to-PriorityScheduler" style="stroke:#000000;stroke-width:1;"/><polygon fill="none" points="136.65,253.4141,135.4936,234.4757,124.3618,238.9572,136.65,253.4141" style="stroke:#000000;stroke-width:1;"/></g><!--link MutexResourceProtocol to IResourceProtocol--><g class="link" data-entity-1="ent0013" data-entity-2="ent0012" data-link-type="extension" data-source-line="41" id="lnk16"><path codeLine="41" d="M1145.55,299.0241 C1123.38,329.3041 1093.1627,370.5801 1063.1327,411.6001" fill="none" id="MutexResourceProtocol-to-IResourceProtocol" style="stroke:#000000;stroke-width:1;stroke-dasharray:7,7;"/><polygon fill="none" points="1052.5,426.1241,1067.974,415.1444,1058.2914,408.0559,1052.5,426.1241" style="stroke:#000000;stroke-width:1;"/></g><!--link PIPResourceProtocol to IResourceProtocol--><g class="link" data-entity-1="ent0014" data-entity-2="ent0012" data-link-type="extension" data-source-line="42" id="lnk17"><path codeLine="42" d="M1351.57,299.0441 C1332.16,318.3541 1301.77,346.4041 1271.46,365.5741 C1234.91,388.6841 1209.275,402.1046 1169.835,419.0046" fill="none" id="PIPResourceProtocol-to-IResourceProtocol" style="stroke:#000000;stroke-width:1;stroke-dasharray:7,7;"/><polygon fill="none" points="1153.29,426.0941,1172.1982,424.5196,1167.4719,413.4896,1153.29,426.0941" style="stroke:#000000;stroke-width:1;"/></g><!--link PCPResourceProtocol to IResourceProtocol--><g class="link" data-entity-1="ent0015" data-entity-2="ent0012" data-link-type="extension" data-source-line="43" id="lnk18"><path codeLine="43" d="M696.1,299.2141 C715.82,318.3741 746.37,346.1041 776.46,365.5741 C811.61,388.3141 835.7889,401.5216 873.3989,418.7116" fill="none" id="PCPResourceProtocol-to-IResourceProtocol" style="stroke:#000000;stroke-width:1;stroke-dasharray:7,7;"/><polygon fill="none" points="889.77,426.1941,875.8931,413.2545,870.9048,424.1686,889.77,426.1941" style="stroke:#000000;stroke-width:1;"/></g><!--link ConstantExecutionTimeModel to IExecutionTimeModel--><g class="link" data-entity-1="ent0020" data-entity-2="ent0019" data-link-type="extension" data-source-line="53" id="lnk22"><path codeLine="53" d="M1633.06,299.3341 C1659.22,317.8141 1698.13,344.4941 1733.46,365.5741 C1775.92,390.9041 1808.6719,408.5519 1848.7319,428.9019" fill="none" id="ConstantExecutionTimeModel-to-IExecutionTimeModel" style="stroke:#000000;stroke-width:1;stroke-dasharray:7,7;"/><polygon fill="none" points="1864.78,437.0541,1851.4493,423.5525,1846.0145,434.2512,1864.78,437.0541" style="stroke:#000000;stroke-width:1;"/></g><!--link TableBasedExecutionTimeModel to IExecutionTimeModel--><g class="link" data-entity-1="ent0021" data-entity-2="ent0019" data-link-type="extension" data-source-line="54" id="lnk23"><path codeLine="54" d="M1879.52,299.0241 C1891.65,331.7241 1908.566,377.3192 1923.956,418.7792" fill="none" id="TableBasedExecutionTimeModel-to-IExecutionTimeModel" style="stroke:#000000;stroke-width:1;stroke-dasharray:7,7;"/><polygon fill="none" points="1930.22,435.6541,1929.581,416.6912,1918.331,420.8672,1930.22,435.6541" style="stroke:#000000;stroke-width:1;"/></g><!--link SimpleOverheadModel to IOverheadModel--><g class="link" data-entity-1="ent0025" data-entity-2="ent0024" data-link-type="extension" data-source-line="63" id="lnk26"><path codeLine="63" d="M2912.96,299.2741 C2891.56,317.4841 2859.99,343.8141 2831.46,365.5741 C2804.65,386.0041 2789.3059,397.23 2762.6259,415.83" fill="none" id="SimpleOverheadModel-to-IOverheadModel" style="stroke:#000000;stroke-width:1;stroke-dasharray:7,7;"/><polygon fill="none" points="2747.86,426.1241,2766.0573,420.752,2759.1946,410.9081,2747.86,426.1241" style="stroke:#000000;stroke-width:1;"/></g><!--link SchedulerRegistry to IScheduler--><g class="link" data-entity-1="ent0027" data-entity-2="ent0005" data-link-type="dependency" data-source-line="78" id="lnk31"><path codeLine="78" d="M365.46,316.6941 C365.46,354.3841 365.46,404.4741 365.46,439.2541" fill="none" id="SchedulerRegistry-to-IScheduler" style="stroke:#000000;stroke-width:1;stroke-dasharray:7,7;"/><polygon fill="#000000" points="365.46,445.2541,369.46,436.2541,365.46,440.2541,361.46,436.2541,365.46,445.2541" style="stroke:#000000;stroke-width:1;"/></g><!--link ProtocolRegistry to IResourceProtocol--><g class="link" data-entity-1="ent0028" data-entity-2="ent0012" data-link-type="dependency" data-source-line="79" id="lnk32"><path codeLine="79" d="M905.52,316.6941 C927.12,348.1341 954.1323,387.4488 977.4923,421.4488" fill="none" id="ProtocolRegistry-to-IResourceProtocol" style="stroke:#000000;stroke-width:1;stroke-dasharray:7,7;"/><polygon fill="#000000" points="980.89,426.3941,979.0903,416.7111,978.0586,422.273,972.4966,421.2413,980.89,426.3941" style="stroke:#000000;stroke-width:1;"/></g><!--link ETMRegistry to IExecutionTimeModel--><g class="link" data-entity-1="ent0029" data-entity-2="ent0019" data-link-type="dependency" data-source-line="80" id="lnk33"><path codeLine="80" d="M2089.89,316.6941 C2058.85,351.0841 2017.9799,396.3599 1986.5099,431.2299" fill="none" id="ETMRegistry-to-IExecutionTimeModel" style="stroke:#000000;stroke-width:1;stroke-dasharray:7,7;"/><polygon fill="#000000" points="1982.49,435.6841,1991.4894,431.6827,1985.8399,431.9722,1985.5504,426.3228,1982.49,435.6841" style="stroke:#000000;stroke-width:1;"/></g><!--link OverheadRegistry to IOverheadModel--><g class="link" data-entity-1="ent0030" data-entity-2="ent0024" data-link-type="dependency" data-source-line="81" id="lnk34"><path codeLine="81" d="M2673.46,316.6941 C2673.46,348.1341 2673.46,386.3941 2673.46,420.3941" fill="none" id="OverheadRegistry-to-IOverheadModel" style="stroke:#000000;stroke-width:1;stroke-dasharray:7,7;"/><polygon fill="#000000" points="2673.46,426.3941,2677.46,417.3941,2673.46,421.3941,2669.46,417.3941,2673.46,426.3941" style="stroke:#000000;stroke-width:1;"/></g><!--link SimEngine to IScheduler--><g class="link" data-entity-1="ent0003" data-entity-2="ent0005" data-link-type="dependency" data-source-line="83" id="lnk35"><path codeLine="83" d="M2076.5,86.4341 C1825.87,86.5541 693.48,92.3441 572.46,187.0241 C505.07,239.7541 551.05,296.5741 500.46,365.5741 C477.21,397.2741 447.8341,421.8731 419.6341,441.8731" fill="none" id="SimEngine-to-IScheduler" style="stroke:#000000;stroke-width:1;"/><polygon fill="#000000" points="414.74,445.3441,424.3951,443.4003,418.8184,442.4516,419.7672,436.8749,414.74,445.3441" style="stroke:#000000;stroke-width:1;"/></g><!--link SimEngine to IResourceProtocol--><g class="link" data-entity-1="ent0003" data-entity-2="ent0012" data-link-type="dependency" data-source-line="84" id="lnk36"><path codeLine="84" d="M2076.25,87.5441 C1875.55,92.3041 1125.89,114.8241 1051.46,187.0241 C987.89,248.6941 993.3765,355.2304 1003.8665,420.4004" fill="none" id="SimEngine-to-IResourceProtocol" style="stroke:#000000;stroke-width:1;"/><polygon fill="#000000" points="1004.82,426.3241,1007.3389,416.8028,1004.0254,421.3876,999.4406,418.0741,1004.82,426.3241" style="stroke:#000000;stroke-width:1;"/></g><!--link SimEngine to IExecutionTimeModel--><g class="link" data-entity-1="ent0003" data-entity-2="ent0019" data-link-type="dependency" data-source-line="85" id="lnk37"><path codeLine="85" d="M2165.2,108.4341 C2192.24,125.8241 2225.85,152.8441 2241.46,187.0241 C2274.42,259.2141 2286.64,300.3441 2241.46,365.5741 C2193.32,435.0641 2101.9223,460.3338 2032.0023,470.1038" fill="none" id="SimEngine-to-IExecutionTimeModel" style="stroke:#000000;stroke-width:1;"/><polygon fill="#000000" points="2026.06,470.9341,2035.527,473.6501,2031.0119,470.2422,2034.4199,465.7271,2026.06,470.9341" style="stroke:#000000;stroke-width:1;"/></g><!--link SimEngine to IOverheadModel--><g class="link" data-entity-1="ent0003" data-entity-2="ent0024" data-link-type="dependency" data-source-line="86" id="lnk38"><path codeLine="86" d="M2174.53,103.3241 C2195.64,111.8741 2219.91,123.5541 2239.46,138.0241 C2335.63,209.2641 2292.77,287.4741 2383.46,365.5741 C2443.51,417.2941 2524.3895,444.8479 2587.3395,460.1379" fill="none" id="SimEngine-to-IOverheadModel" style="stroke:#000000;stroke-width:1;"/><polygon fill="#000000" points="2593.17,461.5541,2585.3684,455.5429,2588.3113,460.374,2583.4802,463.3168,2593.17,461.5541" style="stroke:#000000;stroke-width:1;"/></g><!--link SimEngine to SchedulerRegistry--><g class="link" data-entity-1="ent0003" data-entity-2="ent0027" data-link-type="dependency" data-source-line="88" id="lnk39"><path codeLine="88" d="M2076.55,86.8441 C1810.2,88.8641 543.65,100.4341 470.46,138.0241 C430.02,158.7941 403.4677,197.7563 386.2477,230.4263" fill="none" id="SimEngine-to-SchedulerRegistry" style="stroke:#000000;stroke-width:1;stroke-dasharray:7,7;"/><polygon fill="#000000" points="383.45,235.7341,391.1851,229.6375,385.7814,231.3109,384.108,225.9072,383.45,235.7341" style="stroke:#000000;stroke-width:1;"/><text fill="#000000" font-family="Verdana" font-size="13" lengthAdjust="spacing" textLength="38.5321" x="471.46" y="152.9211">build()</text></g><!--link SimEngine to ProtocolRegistry--><g class="link" data-entity-1="ent0003" data-entity-2="ent0028" data-link-type="dependency" data-source-line="89" id="lnk40"><path codeLine="89" d="M2076.46,87.2741 C1859.96,90.9041 997.62,107.2541 949.46,138.0241 C915.43,159.7741 898.5666,197.639 889.0566,229.899" fill="none" id="SimEngine-to-ProtocolRegistry" style="stroke:#000000;stroke-width:1;stroke-dasharray:7,7;"/><polygon fill="#000000" points="887.36,235.6541,893.7416,228.1524,888.7738,230.8582,886.0681,225.8903,887.36,235.6541" style="stroke:#000000;stroke-width:1;"/><text fill="#000000" font-family="Verdana" font-size="13" lengthAdjust="spacing" textLength="38.5321" x="950.46" y="152.9211">build()</text></g><!--link SimEngine to ETMRegistry--><g class="link" data-entity-1="ent0003" data-entity-2="ent0029" data-link-type="dependency" data-source-line="90" id="lnk41"><path codeLine="90" d="M2125.46,108.5241 C2125.46,139.6541 2125.46,191.0141 2125.46,229.6641" fill="none" id="SimEngine-to-ETMRegistry" style="stroke:#000000;stroke-width:1;stroke-dasharray:7,7;"/><polygon fill="#000000" points="2125.46,235.6641,2129.46,226.6641,2125.46,230.6641,2121.46,226.6641,2125.46,235.6641" style="stroke:#000000;stroke-width:1;"/><text fill="#000000" font-family="Verdana" font-size="13" lengthAdjust="spacing" textLength="38.5321" x="2126.46" y="152.9211">build()</text></g><!--link SimEngine to OverheadRegistry--><g class="link" data-entity-1="ent0003" data-entity-2="ent0030" data-link-type="dependency" data-source-line="91" id="lnk42"><path codeLine="91" d="M2174.67,91.6841 C2231.84,98.5641 2328.54,112.8941 2408.46,138.0241 C2458.35,153.7241 2468.81,163.3641 2515.46,187.0241 C2545.3,202.1641 2572.4402,217.0254 2600.0502,232.6754" fill="none" id="SimEngine-to-OverheadRegistry" style="stroke:#000000;stroke-width:1;stroke-dasharray:7,7;"/><polygon fill="#000000" points="2605.27,235.6341,2599.4128,227.7162,2600.9202,233.1685,2595.4679,234.6759,2605.27,235.6341" style="stroke:#000000;stroke-width:1;"/><text fill="#000000" font-family="Verdana" font-size="13" lengthAdjust="spacing" textLength="38.5321" x="2458.85" y="152.9211">build()</text></g><?plantuml-src ZLLDZzem4BtxLxYNAgWGLJrMgvLQoaf8HOk0Ep9X0Ak9dTgJxjAF_zv9uWGdJafFn9utRsRUp9WtU84CU9uAgPZz9bKkZCXuaWfhFo4QUIWGbebMM_aJ-7l6K68AVBDxtlAjpFXS6peL2YMnpBL28nAq_2r_ebzj95WUVVqmOKmg17CI2V0b-ItKMIhWlnZdxmw5J8-HpI6Pb4TJgAZaIwkJHSYZ8wGegcCk2WjHZGDRPExReixRMq3w_CDOLGDlWx5Rs3Z-_UYbqKqkkS2nIC7KoLbtZ9H-cNAhH6ul6Yj-SR1LjRLOV6qarOlNbi0biFZorB_Qh6utBF1hqciXFWEVpSWOnl8eno1-bHkmkZ09h8r6dUYqBfRQV9Bdma1adDqwKRyNO36oSCv0uPGtvYbFgFzJdhjW3fs2e2u5QAyhAvggrtuIphPUhiSiyz321gcSXW5wW7iKElzlgA_iuXMI0gLMEzg8bQRHhRKb_MGc4A8uZYkPjDe3OUjpAmoja4MXCAHnW9qufF2Pz3qEGDYukyjzmEbVZEDUVitFFy1SG1ozSgawcYRg3ExjYyJaujUToRCH9Pr_sMvQLn3QqZo5JWGsSESIxU8QYcO5Dd2MjBDN_l1mgfwdw-EZctm3r9is1nCfaPLpNJw6jiocsV6wutU9SWUiU6x-YztghYjWDXAzAUukXNR0VLRA4B2nK90uxhmuGPsLFPXxlvmACJ0dGT8LiDUdszCyctKIwHc237hsWVWzn6ZWCgrGbu-y_dUQz921G6D0Nw8nJ23H3VWN?></g></svg>