<?plantuml 1.2026.2?><svg xmlns="http://www.w3.org/2000/svg" xmlns:xlink="http://www.w3.org/1999/xlink" contentStyleType="text/css" data-diagram-type="DESCRIPTION" height="996px" preserveAspectRatio="none" style="width:1987px;height:996px;background:#FFFFFF;" version="1.1" viewBox="0 0 1987 996" width="1987px" zoomAndPan="magnify"><defs/><g><!--cluster Entry--><g class="cluster" data-qualified-name="Entry" data-source-line="5" id="ent0002"><path d="M13.5,434.71 L51.9359,434.71 A3.75,3.75 0 0 1 54.4359,437.21 L61.4359,459.7779 L286.7,459.7779 A2.5,2.5 0 0 1 289.2,462.2779 L289.2,657.21 A2.5,2.5 0 0 1 286.7,659.71 L13.5,659.71 A2.5,2.5 0 0 1 11,657.21 L11,437.21 A2.5,2.5 0 0 1 13.5,434.71" fill="#FFFFFF" style="stroke:#000000;stroke-width:1;"/><line style="stroke:#000000;stroke-width:1;" x1="11" x2="61.4359" y1="459.7779" y2="459.7779"/><text fill="#000000" font-family="Verdana" font-size="14" font-weight="bold" lengthAdjust="spacing" textLength="37.4359" x="15" y="451.6759">Entry</text></g><!--cluster IO--><g class="cluster" data-qualified-name="IO" data-source-line="10" id="ent0005"><path d="M480.7,119.71 L498.2899,119.71 A3.75,3.75 0 0 1 500.7899,122.21 L507.7899,144.7779 L816.74,144.7779 A2.5,2.5 0 0 1 819.24,147.2779 L819.24,211.21 A2.5,2.5 0 0 1 816.74,213.71 L480.7,213.71 A2.5,2.5 0 0 1 478.2,211.21 L478.2,122.21 A2.5,2.5 0 0 1 480.7,119.71" fill="#FFFFFF" style="stroke:#000000;stroke-width:1;"/><line style="stroke:#000000;stroke-width:1;" x1="478.2" x2="507.7899" y1="144.7779" y2="144.7779"/><text fill="#000000" font-family="Verdana" font-size="14" font-weight="bold" lengthAdjust="spacing" textLength="16.5899" x="482.2" y="136.6759">IO</text></g><!--cluster Core Runtime--><g class="cluster" data-qualified-name="Core Runtime" data-source-line="15" id="ent0008"><path d="M490.38,283.71 L587.2376,283.71 A3.75,3.75 0 0 1 589.7376,286.21 L596.7376,308.7779 L1250.77,308.7779 A2.5,2.5 0 0 1 1253.27,311.2779 L1253.27,672.21 A2.5,2.5 0 0 1 1250.77,674.71 L490.38,674.71 A2.5,2.5 0 0 1 487.88,672.21 L487.88,286.21 A2.5,2.5 0 0 1 490.38,283.71" fill="#FFFFFF" style="stroke:#000000;stroke-width:1;"/><line style="stroke:#000000;stroke-width:1;" x1="487.88" x2="596.7376" y1="308.7779" y2="308.7779"/><text fill="#000000" font-family="Verdana" font-size="14" font-weight="bold" lengthAdjust="spacing" textLength="95.8576" x="491.88" y="300.6759">Core Runtime</text></g><!--cluster Event & Analysis--><g class="cluster" data-qualified-name="Event . Analysis" data-source-line="27" id="ent0018"><path d="M1015.64,72.71 L1131.5096,72.71 A3.75,3.75 0 0 1 1134.0096,75.21 L1141.0096,97.7779 L1631.47,97.7779 A2.5,2.5 0 0 1 1633.97,100.2779 L1633.97,257.21 A2.5,2.5 0 0 1 1631.47,259.71 L1015.64,259.71 A2.5,2.5 0 0 1 1013.14,257.21 L1013.14,75.21 A2.5,2.5 0 0 1 1015.64,72.71" fill="#FFFFFF" style="stroke:#000000;stroke-width:1;"/><line style="stroke:#000000;stroke-width:1;" x1="1013.14" x2="1141.0096" y1="97.7779" y2="97.7779"/><text fill="#000000" font-family="Verdana" font-size="14" font-weight="bold" lengthAdjust="spacing" textLength="114.8696" x="1017.14" y="89.6759">Event &amp; Analysis</text></g><!--cluster Artifacts--><g class="cluster" data-qualified-name="Artifacts" data-source-line="34" id="ent0023"><path d="M1771.47,673.71 L1832.9358,673.71 A3.75,3.75 0 0 1 1835.4358,676.21 L1842.4358,698.7779 L1977.78,698.7779 A2.5,2.5 0 0 1 1980.28,701.2779 L1980.28,987.21 A2.5,2.5 0 0 1 1977.78,989.71 L1771.47,989.71 A2.5,2.5 0 0 1 1768.97,987.21 L1768.97,676.21 A2.5,2.5 0 0 1 1771.47,673.71" fill="#FFFFFF" style="stroke:#000000;stroke-width:1;"/><line style="stroke:#000000;stroke-width:1;" x1="1768.97" x2="1842.4358" y1="698.7779" y2="698.7779"/><text fill="#000000" font-family="Verdana" font-size="14" font-weight="bold" lengthAdjust="spacing" textLength="60.4658" x="1772.97" y="690.6759">Artifacts</text></g><!--entity CLI--><g class="entity" data-qualified-name="Entry.CLI" data-source-line="6" id="ent0003"><rect fill="#FFFFFF" height="77.2038" rx="2.5" ry="2.5" style="stroke:#000000;stroke-width:1;" width="100.6537" x="99.77" y="566.11"/><text fill="#000000" font-family="Verdana" font-size="14" lengthAdjust="spacing" textLength="20.9299" x="109.77" y="591.0759">CLI</text><text fill="#000000" font-family="Verdana" font-size="14" lengthAdjust="spacing" textLength="80.6537" x="109.77" y="610.1439">rtos-sim run</text><text fill="#000000" font-family="Verdana" font-size="14" lengthAdjust="spacing" textLength="66.1217" x="109.77" y="629.2118">cmd_run()</text></g><!--entity UI--><g class="entity" data-qualified-name="Entry.UI" data-source-line="7" id="ent0004"><rect fill="#FFFFFF" height="58.1358" rx="2.5" ry="2.5" style="stroke:#000000;stroke-width:1;" width="246.1971" x="27" y="472.64"/><text fill="#000000" font-family="Verdana" font-size="14" lengthAdjust="spacing" textLength="14.9799" x="37" y="497.6059">UI</text><text fill="#000000" font-family="Verdana" font-size="14" lengthAdjust="spacing" textLength="226.1971" x="37" y="516.6739">RunController + SimulationWorker</text></g><!--entity Loader--><g class="entity" data-qualified-name="IO.Loader" data-source-line="11" id="ent0006"><rect fill="#FFFFFF" height="39.0679" rx="2.5" ry="2.5" style="stroke:#000000;stroke-width:1;" width="108.9557" x="494.2" y="158.18"/><text fill="#000000" font-family="Verdana" font-size="14" lengthAdjust="spacing" textLength="88.9557" x="504.2" y="183.1459">ConfigLoader</text></g><!--entity Spec--><g class="entity" data-qualified-name="IO.Spec" data-source-line="12" id="ent0007"><rect fill="#FFFFFF" height="39.0679" rx="2.5" ry="2.5" style="stroke:#000000;stroke-width:1;" width="92.1977" x="711.05" y="158.18"/><text fill="#000000" font-family="Verdana" font-size="14" lengthAdjust="spacing" textLength="72.1977" x="721.05" y="183.1459">ModelSpec</text></g><!--entity Engine--><g class="entity" data-qualified-name="Core Runtime.Engine" data-source-line="16" id="ent0009"><rect fill="#FFFFFF" height="39.0679" rx="2.5" ry="2.5" style="stroke:#000000;stroke-width:1;" width="89.5937" x="503.88" y="478.18"/><text fill="#000000" font-family="Verdana" font-size="14" lengthAdjust="spacing" textLength="69.5937" x="513.88" y="503.1459">SimEngine</text></g><!--entity SFactory--><g class="entity" data-qualified-name="Core Runtime.SFactory" data-source-line="17" id="ent0010"><rect fill="#FFFFFF" height="58.1358" rx="2.5" ry="2.5" style="stroke:#000000;stroke-width:1;" width="140.3435" x="686.97" y="321.64"/><text fill="#000000" font-family="Verdana" font-size="14" lengthAdjust="spacing" textLength="117.4315" x="696.97" y="346.6059">Scheduler Factory</text><text fill="#000000" font-family="Verdana" font-size="14" lengthAdjust="spacing" textLength="120.3435" x="696.97" y="365.6739">create_scheduler()</text></g><!--entity PFactory--><g class="entity" data-qualified-name="Core Runtime.PFactory" data-source-line="18" id="ent0011"><rect fill="#FFFFFF" height="58.1358" rx="2.5" ry="2.5" style="stroke:#000000;stroke-width:1;" width="131.0056" x="691.64" y="600.64"/><text fill="#000000" font-family="Verdana" font-size="14" lengthAdjust="spacing" textLength="106.9736" x="701.64" y="625.6059">Protocol Factory</text><text fill="#000000" font-family="Verdana" font-size="14" lengthAdjust="spacing" textLength="111.0056" x="701.64" y="644.6739">create_protocol()</text></g><!--entity EFactory--><g class="entity" data-qualified-name="Core Runtime.EFactory" data-source-line="19" id="ent0012"><rect fill="#FFFFFF" height="58.1358" rx="2.5" ry="2.5" style="stroke:#000000;stroke-width:1;" width="101.8577" x="706.22" y="507.64"/><text fill="#000000" font-family="Verdana" font-size="14" lengthAdjust="spacing" textLength="80.1917" x="716.22" y="532.6059">ETM Factory</text><text fill="#000000" font-family="Verdana" font-size="14" lengthAdjust="spacing" textLength="81.8577" x="716.22" y="551.6739">create_etm()</text></g><!--entity OFactory--><g class="entity" data-qualified-name="Core Runtime.OFactory" data-source-line="20" id="ent0013"><rect fill="#FFFFFF" height="58.1358" rx="2.5" ry="2.5" style="stroke:#000000;stroke-width:1;" width="185.9834" x="664.15" y="414.64"/><text fill="#000000" font-family="Verdana" font-size="14" lengthAdjust="spacing" textLength="116.6616" x="674.15" y="439.6059">Overhead Factory</text><text fill="#000000" font-family="Verdana" font-size="14" lengthAdjust="spacing" textLength="165.9834" x="674.15" y="458.6739">create_overhead_model()</text></g><!--entity Scheduler--><g class="entity" data-qualified-name="Core Runtime.Scheduler" data-source-line="21" id="ent0014"><rect fill="#FFFFFF" height="39.0679" rx="2.5" ry="2.5" style="stroke:#000000;stroke-width:1;" width="122.8156" x="1078.25" y="331.18"/><text fill="#000000" font-family="Verdana" font-size="14" lengthAdjust="spacing" textLength="102.8156" x="1088.25" y="356.1459">IScheduler impl</text></g><!--entity Protocol--><g class="entity" data-qualified-name="Core Runtime.Protocol" data-source-line="22" id="ent0015"><rect fill="#FFFFFF" height="39.0679" rx="2.5" ry="2.5" style="stroke:#000000;stroke-width:1;" width="173.1874" x="1053.07" y="610.18"/><text fill="#000000" font-family="Verdana" font-size="14" lengthAdjust="spacing" textLength="153.1874" x="1063.07" y="635.1459">IResourceProtocol impl</text></g><!--entity ETM--><g class="entity" data-qualified-name="Core Runtime.ETM" data-source-line="23" id="ent0016"><rect fill="#FFFFFF" height="39.0679" rx="2.5" ry="2.5" style="stroke:#000000;stroke-width:1;" width="195.2233" x="1042.05" y="517.18"/><text fill="#000000" font-family="Verdana" font-size="14" lengthAdjust="spacing" textLength="175.2233" x="1052.05" y="542.1459">IExecutionTimeModel impl</text></g><!--entity Overhead--><g class="entity" data-qualified-name="Core Runtime.Overhead" data-source-line="24" id="ent0017"><rect fill="#FFFFFF" height="39.0679" rx="2.5" ry="2.5" style="stroke:#000000;stroke-width:1;" width="163.3315" x="1058" y="424.18"/><text fill="#000000" font-family="Verdana" font-size="14" lengthAdjust="spacing" textLength="143.3315" x="1068" y="449.1459">IOverheadModel impl</text></g><!--entity Bus--><g class="entity" data-qualified-name="Event . Analysis.Bus" data-source-line="28" id="ent0019"><rect fill="#FFFFFF" height="39.0679" rx="2.5" ry="2.5" style="stroke:#000000;stroke-width:1;" width="80.9557" x="1099.18" y="111.18"/><text fill="#000000" font-family="Verdana" font-size="14" lengthAdjust="spacing" textLength="60.9557" x="1109.18" y="136.1459">EventBus</text></g><!--entity Metrics--><g class="entity" data-qualified-name="Event . Analysis.Metrics" data-source-line="29" id="ent0020"><rect fill="#FFFFFF" height="39.0679" rx="2.5" ry="2.5" style="stroke:#000000;stroke-width:1;" width="99.4637" x="1493.59" y="111.18"/><text fill="#000000" font-family="Verdana" font-size="14" lengthAdjust="spacing" textLength="79.4637" x="1503.59" y="136.1459">CoreMetrics</text></g><!--entity Relations--><g class="entity" data-qualified-name="Event . Analysis.Relations" data-source-line="30" id="ent0021"><rect fill="#FFFFFF" height="58.1358" rx="2.5" ry="2.5" style="stroke:#000000;stroke-width:1;" width="221.0532" x="1029.14" y="185.64"/><text fill="#000000" font-family="Verdana" font-size="14" lengthAdjust="spacing" textLength="105.4896" x="1039.14" y="210.6059">Model Relations</text><text fill="#000000" font-family="Verdana" font-size="14" lengthAdjust="spacing" textLength="201.0532" x="1039.14" y="229.6739">build_model_relations_report()</text></g><!--entity Audit--><g class="entity" data-qualified-name="Event . Analysis.Audit" data-source-line="31" id="ent0022"><rect fill="#FFFFFF" height="58.1358" rx="2.5" ry="2.5" style="stroke:#000000;stroke-width:1;" width="149.3035" x="1468.67" y="185.64"/><text fill="#000000" font-family="Verdana" font-size="14" lengthAdjust="spacing" textLength="34.8739" x="1478.67" y="210.6059">Audit</text><text fill="#000000" font-family="Verdana" font-size="14" lengthAdjust="spacing" textLength="129.3035" x="1478.67" y="229.6739">build_audit_report()</text></g><!--entity EventsFile--><g class="entity" data-qualified-name="Artifacts.EventsFile" data-source-line="35" id="ent0024"><rect fill="#FFFFFF" height="39.0679" rx="2.5" ry="2.5" style="stroke:#000000;stroke-width:1;" width="156.7795" x="1796.23" y="860.18"/><text fill="#000000" font-family="Verdana" font-size="14" lengthAdjust="spacing" textLength="136.7795" x="1806.23" y="885.1459">artifacts/events.jsonl</text></g><!--entity MetricsFile--><g class="entity" data-qualified-name="Artifacts.MetricsFile" data-source-line="36" id="ent0025"><rect fill="#FFFFFF" height="39.0679" rx="2.5" ry="2.5" style="stroke:#000000;stroke-width:1;" width="158.7115" x="1795.27" y="934.18"/><text fill="#000000" font-family="Verdana" font-size="14" lengthAdjust="spacing" textLength="138.7115" x="1805.27" y="959.1459">artifacts/metrics.json</text></g><!--entity AuditFile--><g class="entity" data-qualified-name="Artifacts.AuditFile" data-source-line="37" id="ent0026"><rect fill="#FFFFFF" height="39.0679" rx="2.5" ry="2.5" style="stroke:#000000;stroke-width:1;" width="143.6335" x="1802.81" y="712.18"/><text fill="#000000" font-family="Verdana" font-size="14" lengthAdjust="spacing" textLength="123.6335" x="1812.81" y="737.1459">artifacts/audit.json</text></g><!--entity UIPanel--><g class="entity" data-qualified-name="Artifacts.UIPanel" data-source-line="38" id="ent0027"><rect fill="#FFFFFF" height="39.0679" rx="2.5" ry="2.5" style="stroke:#000000;stroke-width:1;" width="179.3054" x="1784.97" y="786.18"/><text fill="#000000" font-family="Verdana" font-size="14" lengthAdjust="spacing" textLength="159.3054" x="1794.97" y="811.1459">UI Gantt + Metrics Panel</text></g><g class="entity" data-qualified-name="GMN52" data-source-line="71" id="ent0053"><path d="M1027.66,11 L1027.66,56.412 A0,0 0 0 0 1027.66,56.412 L1135.66,56.412 L1139.66,111.01 L1143.66,56.412 L1251.6682,56.412 A0,0 0 0 0 1251.6682,56.412 L1251.6682,21 L1241.6682,11 L1027.66,11 A0,0 0 0 0 1027.66,11" fill="#FFFFFF" style="stroke:#000000;stroke-width:1;"/><path d="M1241.6682,11 L1241.6682,21 L1251.6682,21 L1241.6682,11" fill="#FFFFFF" style="stroke:#000000;stroke-width:1;"/><text fill="#000000" font-family="Verdana" font-size="13" lengthAdjust="spacing" textLength="81.2891" x="1033.66" y="29.897">Truth source:</text><text fill="#000000" font-family="Verdana" font-size="13" lengthAdjust="spacing" textLength="203.0082" x="1033.66" y="47.603">Event stream + exported artifacts</text></g><!--link CLI to Loader--><g class="link" data-entity-1="ent0003" data-entity-2="ent0006" data-link-type="dependency" data-source-line="41" id="lnk28"><path d="M200.71,599.02 C233.42,592.51 274.3,578.57 297.2,548.71 C307.66,535.06 297.36,487.02 305.2,471.71 C347.79,388.49 411.7,410.39 462.2,331.71 C468.73,321.53 465.25,316.74 470.2,305.71 C488.26,265.41 513.0881,227.1255 530.0181,202.6355" fill="none" id="CLI-to-Loader" style="stroke:#000000;stroke-width:1;"/><polygon fill="#000000" points="533.43,197.7,525.0218,202.8286,530.5867,201.8129,531.6025,207.3778,533.43,197.7" style="stroke:#000000;stroke-width:1;"/><text fill="#000000" font-family="Verdana" font-size="13" lengthAdjust="spacing" textLength="34.307" x="366.7" y="327.607">load()</text></g><!--link UI to Loader--><g class="link" data-entity-1="ent0004" data-entity-2="ent0006" data-link-type="dependency" data-source-line="42" id="lnk29"><path d="M168.33,472.47 C193.94,430.96 245.49,354.47 305.2,304.71 C363.43,256.19 437.6683,221.1057 489.5583,199.8357" fill="none" id="UI-to-Loader" style="stroke:#000000;stroke-width:1;"/><polygon fill="#000000" points="495.11,197.56,485.2653,197.2724,490.4836,199.4564,488.2996,204.6746,495.11,197.56" style="stroke:#000000;stroke-width:1;"/><text fill="#000000" font-family="Verdana" font-size="13" lengthAdjust="spacing" textLength="67.3531" x="350.2" y="207.897">load_data()</text></g><!--link Loader to Spec--><g class="link" data-entity-1="ent0006" data-entity-2="ent0007" data-link-type="dependency" data-source-line="43" id="lnk30"><path d="M603.65,177.71 C636.99,177.71 673.27,177.71 704.86,177.71" fill="none" id="Loader-to-Spec" style="stroke:#000000;stroke-width:1;"/><polygon fill="#000000" points="710.86,177.71,701.86,173.71,705.86,177.71,701.86,181.71,710.86,177.71" style="stroke:#000000;stroke-width:1;"/></g><!--link CLI to Engine--><g class="link" data-entity-1="ent0003" data-entity-2="ent0009" data-link-type="dependency" data-source-line="44" id="lnk31"><path d="M200.86,599.95 C263.37,592.89 373.21,576.85 462.2,544.71 C481.31,537.81 496.1439,530.1351 511.9739,520.6451" fill="none" id="CLI-to-Engine" style="stroke:#000000;stroke-width:1;"/><polygon fill="#000000" points="517.12,517.56,507.3441,518.7569,512.8316,520.1309,511.4576,525.6183,517.12,517.56" style="stroke:#000000;stroke-width:1;"/><text fill="#000000" font-family="Verdana" font-size="13" lengthAdjust="spacing" textLength="66.3261" x="350.7" y="522.607">build(spec)</text><text fill="#000000" font-family="Verdana" font-size="13" lengthAdjust="spacing" textLength="56.7061" x="355.51" y="540.313">run(until)</text></g><!--link Engine to CLI--><g class="link" data-entity-1="ent0009" data-entity-2="ent0003" data-link-type="dependency" data-source-line="60" id="lnk45"><path d="M539.62,517.36 C527.41,544.2 501.4,591.21 462.2,610.71 C378.16,652.51 270.718,636.2363 206.608,620.5463" fill="none" id="Engine-to-CLI" style="stroke:#000000;stroke-width:1;"/><polygon fill="#000000" points="200.78,619.12,208.5711,625.1448,205.6367,620.3086,210.4729,617.3741,200.78,619.12" style="stroke:#000000;stroke-width:1;"/><text fill="#000000" font-family="Verdana" font-size="13" lengthAdjust="spacing" textLength="143.1561" x="312.2" y="606.607">events / metric_report()</text></g><!--link UI to Engine--><g class="link" data-entity-1="ent0004" data-entity-2="ent0009" data-link-type="dependency" data-source-line="45" id="lnk32"><path d="M273.59,500.47 C351.86,499.69 442.6803,498.771 497.7903,498.211" fill="none" id="UI-to-Engine" style="stroke:#000000;stroke-width:1;"/><polygon fill="#000000" points="503.79,498.15,494.7498,494.2417,498.7903,498.2008,494.8311,502.2412,503.79,498.15" style="stroke:#000000;stroke-width:1;"/><text fill="#000000" font-family="Verdana" font-size="13" lengthAdjust="spacing" textLength="155.1941" x="306.2" y="494.467">build/step/run via worker</text></g><!--link Spec to Engine--><g class="link" data-entity-1="ent0007" data-entity-2="ent0009" data-link-type="dependency" data-source-line="46" id="lnk33"><path d="M710.8,186.47 C684.8,193.7 653.4,206.5 633.15,228.71 C566.11,302.24 553.2177,422.8584 550.6277,471.6984" fill="none" id="Spec-to-Engine" style="stroke:#000000;stroke-width:1;"/><polygon fill="#000000" points="550.31,477.69,554.781,468.9145,550.5748,472.697,546.7922,468.4908,550.31,477.69" style="stroke:#000000;stroke-width:1;"/></g><!--link Engine to SFactory--><g class="link" data-entity-1="ent0009" data-entity-2="ent0010" data-link-type="dependency" data-source-line="48" id="lnk34"><path d="M569.04,477.77 C590.82,456.05 627.89,421.16 664.15,396.71 C672.89,390.82 677.1951,388.0407 686.7951,382.8807" fill="none" id="Engine-to-SFactory" style="stroke:#000000;stroke-width:1;"/><polygon fill="#000000" points="692.08,380.04,682.2588,380.7777,687.6759,382.4072,686.0464,387.8243,692.08,380.04" style="stroke:#000000;stroke-width:1;"/></g><!--link Engine to PFactory--><g class="link" data-entity-1="ent0009" data-entity-2="ent0011" data-link-type="dependency" data-source-line="49" id="lnk35"><path d="M573.34,517.49 C595.88,535.84 631.17,563.31 664.15,583.71 C673.42,589.44 678.1767,592.2628 688.1467,597.4928" fill="none" id="Engine-to-PFactory" style="stroke:#000000;stroke-width:1;"/><polygon fill="#000000" points="693.46,600.28,687.3482,592.5569,689.0322,597.9573,683.6319,599.6414,693.46,600.28" style="stroke:#000000;stroke-width:1;"/></g><!--link Engine to EFactory--><g class="link" data-entity-1="ent0009" data-entity-2="ent0012" data-link-type="dependency" data-source-line="50" id="lnk36"><path d="M593.97,506.08 C626.79,512.28 665.6744,519.6157 699.8544,526.0757" fill="none" id="Engine-to-EFactory" style="stroke:#000000;stroke-width:1;"/><polygon fill="#000000" points="705.75,527.19,697.6494,521.5882,700.837,526.2614,696.1637,529.449,705.75,527.19" style="stroke:#000000;stroke-width:1;"/></g><!--link Engine to OFactory--><g class="link" data-entity-1="ent0009" data-entity-2="ent0013" data-link-type="dependency" data-source-line="51" id="lnk37"><path d="M593.97,486.13 C614.47,480.76 633.8251,475.6974 658.1551,469.3374" fill="none" id="Engine-to-OFactory" style="stroke:#000000;stroke-width:1;"/><polygon fill="#000000" points="663.96,467.82,654.241,466.2262,659.1225,469.0845,656.2642,473.9661,663.96,467.82" style="stroke:#000000;stroke-width:1;"/></g><!--link SFactory to Scheduler--><g class="link" data-entity-1="ent0010" data-entity-2="ent0014" data-link-type="dependency" data-source-line="52" id="lnk38"><path d="M827.49,350.71 C899.09,350.71 1003.7,350.71 1071.95,350.71" fill="none" id="SFactory-to-Scheduler" style="stroke:#000000;stroke-width:1;"/><polygon fill="#000000" points="1077.95,350.71,1068.95,346.71,1072.95,350.71,1068.95,354.71,1077.95,350.71" style="stroke:#000000;stroke-width:1;"/></g><!--link PFactory to Protocol--><g class="link" data-entity-1="ent0011" data-entity-2="ent0015" data-link-type="dependency" data-source-line="53" id="lnk39"><path d="M823.13,629.71 C886.49,629.71 977.22,629.71 1046.87,629.71" fill="none" id="PFactory-to-Protocol" style="stroke:#000000;stroke-width:1;"/><polygon fill="#000000" points="1052.87,629.71,1043.87,625.71,1047.87,629.71,1043.87,633.71,1052.87,629.71" style="stroke:#000000;stroke-width:1;"/></g><!--link EFactory to ETM--><g class="link" data-entity-1="ent0012" data-entity-2="ent0016" data-link-type="dependency" data-source-line="54" id="lnk40"><path d="M808.28,536.71 C867.51,536.71 961.4,536.71 1035.87,536.71" fill="none" id="EFactory-to-ETM" style="stroke:#000000;stroke-width:1;"/><polygon fill="#000000" points="1041.87,536.71,1032.87,532.71,1036.87,536.71,1032.87,540.71,1041.87,536.71" style="stroke:#000000;stroke-width:1;"/></g><!--link OFactory to Overhead--><g class="link" data-entity-1="ent0013" data-entity-2="ent0017" data-link-type="dependency" data-source-line="55" id="lnk41"><path d="M850.26,443.71 C913.6,443.71 990.94,443.71 1051.73,443.71" fill="none" id="OFactory-to-Overhead" style="stroke:#000000;stroke-width:1;"/><polygon fill="#000000" points="1057.73,443.71,1048.73,439.71,1052.73,443.71,1048.73,447.71,1057.73,443.71" style="stroke:#000000;stroke-width:1;"/></g><!--link Engine to Bus--><g class="link" data-entity-1="ent0009" data-entity-2="ent0019" data-link-type="dependency" data-source-line="57" id="lnk42"><path d="M556.37,477.7 C570.33,438.83 606.18,352.65 664.15,303.71 C731.76,246.63 768,265.6 850.14,232.71 C919.48,204.94 934.56,192.18 1005.14,167.71 C1036.16,156.96 1066.2453,148.6297 1093.0053,141.8197" fill="none" id="Engine-to-Bus" style="stroke:#000000;stroke-width:1;"/><polygon fill="#000000" points="1098.82,140.34,1089.1115,138.6832,1093.9744,141.5731,1091.0845,146.4361,1098.82,140.34" style="stroke:#000000;stroke-width:1;"/><text fill="#000000" font-family="Verdana" font-size="13" lengthAdjust="spacing" textLength="86.7881" x="714.14" y="228.607">publish(event)</text></g><!--link Bus to Metrics--><g class="link" data-entity-1="ent0019" data-entity-2="ent0020" data-link-type="dependency" data-source-line="58" id="lnk43"><path d="M1180.27,130.71 C1254.19,130.71 1406.93,130.71 1487.4,130.71" fill="none" id="Bus-to-Metrics" style="stroke:#000000;stroke-width:1;"/><polygon fill="#000000" points="1493.4,130.71,1484.4,126.71,1488.4,130.71,1484.4,134.71,1493.4,130.71" style="stroke:#000000;stroke-width:1;"/><text fill="#000000" font-family="Verdana" font-size="13" lengthAdjust="spacing" textLength="97.6821" x="1311.67" y="126.607">consume(event)</text></g><!--link Engine to UIPanel--><g class="link" data-entity-1="ent0009" data-entity-2="ent0027" data-link-type="dependency" data-source-line="59" id="lnk44"><path d="M553.15,517.59 C566.19,585 618.65,800.71 756.14,800.71 C756.14,800.71 756.14,800.71 1544.32,800.71 C1625.65,800.71 1712.2813,802.125 1778.5313,803.505" fill="none" id="Engine-to-UIPanel" style="stroke:#000000;stroke-width:1;"/><polygon fill="#000000" points="1784.53,803.63,1775.6153,799.4434,1779.5311,803.5259,1775.4486,807.4417,1784.53,803.63" style="stroke:#000000;stroke-width:1;"/><text fill="#000000" font-family="Verdana" font-size="13" lengthAdjust="spacing" textLength="80.2491" x="1099.634" y="778.607">events_batch</text><text fill="#000000" font-family="Verdana" font-size="13" lengthAdjust="spacing" textLength="93.1971" x="1093.16" y="796.313">finished_report</text></g><!--link Spec to Relations--><g class="link" data-entity-1="ent0007" data-entity-2="ent0021" data-link-type="dependency" data-source-line="62" id="lnk46"><path d="M803.67,182.14 C858.9,187.51 947.9382,196.1693 1022.6982,203.4393" fill="none" id="Spec-to-Relations" style="stroke:#000000;stroke-width:1;"/><polygon fill="#000000" points="1028.67,204.02,1020.0994,199.1677,1023.6935,203.5361,1019.3251,207.1301,1028.67,204.02" style="stroke:#000000;stroke-width:1;"/></g><!--link CLI to Audit--><g class="link" data-entity-1="ent0003" data-entity-2="ent0022" data-link-type="dependency" data-source-line="63" id="lnk47"><path d="M200.84,618.62 C230.92,626.78 270.11,636.98 305.2,644.71 C377.99,660.75 396.38,664.4 470.2,674.71 C644.3,699.02 1109.98,764.23 1261.27,674.71 C1430.42,574.63 1509.5768,334.9919 1533.1368,250.0219" fill="none" id="CLI-to-Audit" style="stroke:#000000;stroke-width:1;"/><polygon fill="#000000" points="1534.74,244.24,1528.4807,251.844,1533.404,249.0582,1536.1898,253.9816,1534.74,244.24" style="stroke:#000000;stroke-width:1;"/><text fill="#000000" font-family="Verdana" font-size="13" lengthAdjust="spacing" textLength="177.6062" x="668.64" y="696.017">build_audit_report(events, ...)</text></g><!--link Relations to Audit--><g class="link" data-entity-1="ent0021" data-entity-2="ent0022" data-link-type="dependency" data-source-line="64" id="lnk48"><path d="M1250.68,214.71 C1319.89,214.71 1401.33,214.71 1462.34,214.71" fill="none" id="Relations-to-Audit" style="stroke:#000000;stroke-width:1;"/><polygon fill="#000000" points="1468.34,214.71,1459.34,210.71,1463.34,214.71,1459.34,218.71,1468.34,214.71" style="stroke:#000000;stroke-width:1;"/><text fill="#000000" font-family="Verdana" font-size="13" lengthAdjust="spacing" textLength="155.4021" x="1282.67" y="210.607">model_relation_summary</text></g><!--link CLI to EventsFile--><g class="link" data-entity-1="ent0003" data-entity-2="ent0024" data-link-type="dependency" data-source-line="66" id="lnk49"><path d="M178.44,643.6 C236.67,721.38 381.27,888.71 547.67,888.71 C547.67,888.71 547.67,888.71 1544.32,888.71 C1630.39,888.71 1723.0844,885.8301 1789.7944,883.2701" fill="none" id="CLI-to-EventsFile" style="stroke:#000000;stroke-width:1;"/><polygon fill="#000000" points="1795.79,883.04,1786.6432,879.3881,1790.7937,883.2317,1786.95,887.3822,1795.79,883.04" style="stroke:#000000;stroke-width:1;"/><text fill="#000000" font-family="Verdana" font-size="13" lengthAdjust="spacing" textLength="113.5941" x="882.14" y="884.607">write_jsonl(events)</text></g><!--link CLI to MetricsFile--><g class="link" data-entity-1="ent0003" data-entity-2="ent0025" data-link-type="dependency" data-source-line="67" id="lnk50"><path d="M162.39,643.36 C181.81,703.11 227.13,817.65 305.2,881.71 C392.71,953.52 434.47,959.71 547.67,959.71 C547.67,959.71 547.67,959.71 1544.32,959.71 C1629.95,959.71 1722.082,957.8138 1788.782,956.1038" fill="none" id="CLI-to-MetricsFile" style="stroke:#000000;stroke-width:1;"/><polygon fill="#000000" points="1794.78,955.95,1785.6804,952.182,1789.7816,956.0781,1785.8855,960.1793,1794.78,955.95" style="stroke:#000000;stroke-width:1;"/><text fill="#000000" font-family="Verdana" font-size="13" lengthAdjust="spacing" textLength="115.3881" x="881.14" y="955.607">write_json(metrics)</text></g><!--link Audit to AuditFile--><g class="link" data-entity-1="ent0022" data-entity-2="ent0026" data-link-type="dependency" data-source-line="68" id="lnk51"><path d="M1562.97,243.99 C1623.04,338.3 1807.2767,627.5493 1857.7667,706.8193" fill="none" id="Audit-to-AuditFile" style="stroke:#000000;stroke-width:1;"/><polygon fill="#000000" points="1860.99,711.88,1859.5288,702.1401,1858.3039,707.6628,1852.7813,706.4379,1860.99,711.88" style="stroke:#000000;stroke-width:1;"/><text fill="#000000" font-family="Verdana" font-size="13" lengthAdjust="spacing" textLength="101.3871" x="1650.97" y="377.837">write_json(audit)</text></g><?plantuml-src RLHDRzim3BthLt0z30cs9lSU1dI5EmHeaQ1fiCCo68hD95fboP3aTi6m_pvAbXHxwSdou-EN-AWFxeWDGYkvK4pYte7JOCJXwA0M1Yidj6BsHQYM6zv0fPjMArHkxKuImHEuEaXahENL2pyWN1NAcTCL_640F-uU5bjbdBRNLZHWEhLLLLENT9XCVmAtG0JFsn3jgLDtcdorb6ZW4wn5qqdkyt_NvWLDu6yMxEyWrsAP4ccr5uS7pUj8x8_UzAXhbEiMgu3xmoZ4dJO8bDk91cCmoboeWr0OFFfZmAiZrfslxfvNJfiJTMEGEonjiiIsrf7WlLP6ErrfUU7KHaFqMGryYkV72pgw9ZAB0NFvYkQ8lBwWwsWe6zz_z5mEF1VdTaJJohxk10N24rhTcGfp1vcNa40hVcFL-JazqnM6spuJgP70IMN-PqxmQ2B5A-aBFiAjul9aXOrJ2V3NpWP7-lPZD_Y8peYgX-CvZnsUi9UGtQfT9sIyZT8ac4wjDYvUJsRx0BTTBLnou_vdJ0xsKU6tneazNN2gcAV_EVhQxUoNrIhUIm3kXSGniUaR2CnXHvVCKD6P5wf9hCq2ld7b76rHz8SLLoZZ2eMphvos3wwllyHbWHkGT9XCsUOTkAovusIBeBU7NKen-ZKXShYmYINRb7QVDjtlbin1nxovTTZEYGMlWiDRM7JcumwuZ4MVa3CfU82jti6ATx2i_XIaZvWrlnh2MUB54FLwNWw1hE1X8b8dDTXsEodiSHA6FsKUzCOqaHjwJ9Nj6ao4GO0u8-BqoYbtt5N7BRrnYY9Y7PKuTF5pI7IOGo-ah5XsljIpoDFeWdRIHCPIx-DzXjbiDWMMNKTkuvKggQM6qoMVbP6rJkGt8-Xn2eiGWqypSQ3r4NCIjsBA-fGv-IKp54_TAkqGTjevtO3UX-VYsNJk2FsBTiFwHyOwUYmRMXFyxTl56lA2CLGr-33i7m00?></g></svg>