<?plantuml 1.2026.2?><svg xmlns="http://www.w3.org/2000/svg" xmlns:xlink="http://www.w3.org/1999/xlink" contentStyleType="text/css" data-diagram-type="STATE" height="588px" preserveAspectRatio="none" style="width:1144px;height:588px;background:#FFFFFF;" version="1.1" viewBox="0 0 1144 588" width="1144px" zoomAndPan="magnify"><title>RTOS Sim Runtime State Machine (Segment + Job)</title><defs/><g><g class="title" data-source-line="4"><text fill="#000000" font-family="Verdana" font-size="22" font-weight="bold" lengthAdjust="spacing" textLength="543.1158" x="292.8297" y="38.5181">RTOS Sim Runtime State Machine (Segment + Job)</text></g><path d="M24.5,93.9641 L604.1791,93.9641 A12.5,12.5 0 0 1 616.6791,106.4641 L616.6791,123.032 L12,123.032 L12,106.4641 A12.5,12.5 0 0 1 24.5,93.9641" fill="#FFFFFF"/><path d="M12,123.032 L616.6791,123.032 L616.6791,531.532 A12.5,12.5 0 0 1 604.1791,544.032 L24.5,544.032 A12.5,12.5 0 0 1 12,531.532 L12,123.032" fill="#FFFFFF"/><rect fill="none" height="450.0679" rx="12.5" ry="12.5" style="stroke:#000000;stroke-width:1;" width="604.6791" x="12" y="93.9641"/><line style="stroke:#000000;stroke-width:1;" x1="12" x2="616.6791" y1="123.032" y2="123.032"/><text fill="#000000" font-family="Verdana" font-size="14" lengthAdjust="spacing" textLength="118.2715" x="255.2038" y="113.93">Segment Lifecycle</text><g class="start_entity" data-qualified-name="SegmentLifecycle..start.SegmentLifecycle" data-source-line="7" id="ent0002"><ellipse cx="353.94" cy="144.032" fill="#FFFFFF" rx="10" ry="10" style="stroke:#000000;stroke-width:1;"/></g><rect fill="#FFFFFF" height="40" rx="12.5" ry="12.5" style="stroke:#000000;stroke-width:1;" width="109.0916" x="299.4" y="191.032"/><text fill="#000000" font-family="Verdana" font-size="14" lengthAdjust="spacing" textLength="99.0916" x="304.4" y="216.464">SegmentReady</text><rect fill="#FFFFFF" height="40" rx="12.5" ry="12.5" style="stroke:#000000;stroke-width:1;" width="124.4215" x="161.73" y="286.032"/><text fill="#000000" font-family="Verdana" font-size="14" lengthAdjust="spacing" textLength="114.4215" x="166.73" y="311.464">SegmentRunning</text><rect fill="#FFFFFF" height="40" rx="12.5" ry="12.5" style="stroke:#000000;stroke-width:1;" width="120.7676" x="183.56" y="399.032"/><text fill="#000000" font-family="Verdana" font-size="14" lengthAdjust="spacing" textLength="110.7676" x="188.56" y="424.464">SegmentBlocked</text><rect fill="#FFFFFF" height="40" rx="12.5" ry="12.5" style="stroke:#000000;stroke-width:1;" width="139.1635" x="284.36" y="494.032"/><text fill="#000000" font-family="Verdana" font-size="14" lengthAdjust="spacing" textLength="129.1635" x="289.36" y="519.464">SegmentUnblocked</text><rect fill="#FFFFFF" height="40" rx="12.5" ry="12.5" style="stroke:#000000;stroke-width:1;" width="123.8896" x="24" y="399.032"/><text fill="#000000" font-family="Verdana" font-size="14" lengthAdjust="spacing" textLength="113.8896" x="29" y="424.464">SegmentFinished</text><g class="end_entity" data-qualified-name="SegmentLifecycle..end.SegmentLifecycle" data-source-line="13" id="ent0014"><ellipse cx="85.94" cy="514.032" fill="none" rx="11" ry="11" style="stroke:#000000;stroke-width:1;"/><ellipse cx="85.94" cy="514.032" fill="#FFFFFF" rx="6" ry="6" style="stroke:#000000;stroke-width:1;"/></g><!--link *start*SegmentLifecycle to SegmentReady--><g class="link" data-entity-1="ent0002" data-entity-2="ent0003" data-link-type="dependency" data-source-line="7" id="lnk4"><path d="M353.94,154.342 C353.94,163.752 353.94,172.572 353.94,184.552" fill="none" id="*start*SegmentLifecycle-to-SegmentReady" style="stroke:#000000;stroke-width:1;"/><polygon fill="#000000" points="353.94,190.552,357.94,181.552,353.94,185.552,349.94,181.552,353.94,190.552" style="stroke:#000000;stroke-width:1;"/></g><!--link SegmentReady to SegmentRunning--><g class="link" data-entity-1="ent0003" data-entity-2="ent0005" data-link-type="dependency" data-source-line="8" id="lnk6"><path d="M326.69,231.532 C304.51,247.402 278.2196,266.2006 256.0396,282.0706" fill="none" id="SegmentReady-to-SegmentRunning" style="stroke:#000000;stroke-width:1;"/><polygon fill="#000000" points="251.16,285.562,260.807,283.578,255.2263,282.6525,256.1518,277.0719,251.16,285.562" style="stroke:#000000;stroke-width:1;"/><text fill="#000000" font-family="Verdana" font-size="13" lengthAdjust="spacing" textLength="103.9221" x="301.59" y="263.929">dispatch granted</text></g><!--link SegmentRunning to SegmentBlocked--><g class="link" data-entity-1="ent0005" data-entity-2="ent0007" data-link-type="dependency" data-source-line="9" id="lnk8"><path d="M221.81,326.512 C220.72,341.612 220.44,362.952 224.94,381.032 C226.44,387.062 226.3311,387.8788 229.1711,393.3888" fill="none" id="SegmentRunning-to-SegmentBlocked" style="stroke:#000000;stroke-width:1;"/><polygon fill="#000000" points="231.92,398.722,231.3522,388.8895,229.6293,394.2776,224.2412,392.5547,231.92,398.722" style="stroke:#000000;stroke-width:1;"/><text fill="#000000" font-family="Verdana" font-size="13" lengthAdjust="spacing" textLength="92.4041" x="297.0826" y="358.929">request denied</text><text fill="#000000" font-family="Verdana" font-size="13" lengthAdjust="spacing" textLength="234.6892" x="225.94" y="376.635">(resource_busy / system_ceiling_block)</text></g><!--link SegmentBlocked to SegmentUnblocked--><g class="link" data-entity-1="ent0007" data-entity-2="ent0009" data-link-type="dependency" data-source-line="10" id="lnk10"><path d="M260.1,439.282 C270.11,450.632 283.57,464.892 296.94,476.032 C304.38,482.222 307.8785,484.958 316.0285,490.288" fill="none" id="SegmentBlocked-to-SegmentUnblocked" style="stroke:#000000;stroke-width:1;"/><polygon fill="#000000" points="321.05,493.572,315.7071,485.2984,316.8654,490.8354,311.3284,491.9937,321.05,493.572" style="stroke:#000000;stroke-width:1;"/><text fill="#000000" font-family="Verdana" font-size="13" lengthAdjust="spacing" textLength="170.5991" x="297.94" y="471.929">release/cancel wakes waiter</text></g><!--link SegmentUnblocked to SegmentReady--><g class="link" data-entity-1="ent0009" data-entity-2="ent0003" data-link-type="dependency" data-source-line="11" id="lnk11"><path d="M423.78,505.322 C441.28,499.882 458.14,490.862 468.94,476.032 C530.34,391.792 480.22,326.022 409.94,249.032 C403.97,242.492 401.5535,239.9723 394.1535,234.8823" fill="none" id="SegmentUnblocked-to-SegmentReady" style="stroke:#000000;stroke-width:1;"/><polygon fill="#000000" points="389.21,231.482,394.3583,239.8781,393.3296,234.3156,398.8921,233.2868,389.21,231.482" style="stroke:#000000;stroke-width:1;"/><text fill="#000000" font-family="Verdana" font-size="13" lengthAdjust="spacing" textLength="111.0591" x="495.62" y="367.929">requeue ready set</text></g><!--link SegmentRunning to SegmentFinished--><g class="link" data-entity-1="ent0005" data-entity-2="ent0012" data-link-type="dependency" data-source-line="12" id="lnk13"><path d="M161.54,312.992 C139.94,318.092 117.32,327.352 101.94,344.032 C88.4,358.722 85.4016,376.0529 85.1216,392.5929" fill="none" id="SegmentRunning-to-SegmentFinished" style="stroke:#000000;stroke-width:1;"/><polygon fill="#000000" points="85.02,398.592,89.1718,389.661,85.1046,393.5927,81.1729,389.5256,85.02,398.592" style="stroke:#000000;stroke-width:1;"/><text fill="#000000" font-family="Verdana" font-size="13" lengthAdjust="spacing" textLength="113.4901" x="102.94" y="367.929">complete/truncate</text></g><!--link SegmentFinished to *end*SegmentLifecycle--><g class="link" data-entity-1="ent0012" data-entity-2="ent0014" data-link-type="dependency" data-source-line="13" id="lnk15"><path d="M85.94,439.302 C85.94,458.562 85.94,481.442 85.94,496.712" fill="none" id="SegmentFinished-to-*end*SegmentLifecycle" style="stroke:#000000;stroke-width:1;"/><polygon fill="#000000" points="85.94,502.712,89.94,493.712,85.94,497.712,81.94,493.712,85.94,502.712" style="stroke:#000000;stroke-width:1;"/></g><path d="M664.4,62.9641 L1118.2751,62.9641 A12.5,12.5 0 0 1 1130.7751,75.4641 L1130.7751,92.032 L651.9,92.032 L651.9,75.4641 A12.5,12.5 0 0 1 664.4,62.9641" fill="#FFFFFF"/><path d="M651.9,92.032 L1130.7751,92.032 L1130.7751,562.532 A12.5,12.5 0 0 1 1118.2751,575.032 L664.4,575.032 A12.5,12.5 0 0 1 651.9,562.532 L651.9,92.032" fill="#FFFFFF"/><rect fill="none" height="512.0679" rx="12.5" ry="12.5" style="stroke:#000000;stroke-width:1;" width="478.8751" x="651.9" y="62.9641"/><line style="stroke:#000000;stroke-width:1;" x1="651.9" x2="1130.7751" y1="92.032" y2="92.032"/><text fill="#000000" font-family="Verdana" font-size="14" lengthAdjust="spacing" textLength="80.2897" x="851.1927" y="82.93">Job Lifecycle</text><g class="start_entity" data-qualified-name="JobLifecycle..start.JobLifecycle" data-source-line="17" id="ent0016"><ellipse cx="834.39" cy="113.032" fill="#FFFFFF" rx="10" ry="10" style="stroke:#000000;stroke-width:1;"/></g><rect fill="#FFFFFF" height="40" rx="12.5" ry="12.5" style="stroke:#000000;stroke-width:1;" width="90.0797" x="789.35" y="160.032"/><text fill="#000000" font-family="Verdana" font-size="14" lengthAdjust="spacing" textLength="80.0797" x="794.35" y="185.464">JobReleased</text><rect fill="#FFFFFF" height="40" rx="12.5" ry="12.5" style="stroke:#000000;stroke-width:1;" width="70.2418" x="799.27" y="255.032"/><text fill="#000000" font-family="Verdana" font-size="14" lengthAdjust="spacing" textLength="60.2418" x="804.27" y="280.464">JobActive</text><rect fill="#FFFFFF" height="40" rx="12.5" ry="12.5" style="stroke:#000000;stroke-width:1;" width="102.9877" x="663.9" y="408.032"/><text fill="#000000" font-family="Verdana" font-size="14" lengthAdjust="spacing" textLength="92.9877" x="668.9" y="433.464">JobCompleted</text><rect fill="#FFFFFF" height="40" rx="12.5" ry="12.5" style="stroke:#000000;stroke-width:1;" width="98.0737" x="785.36" y="350.032"/><text fill="#000000" font-family="Verdana" font-size="14" lengthAdjust="spacing" textLength="88.0737" x="790.36" y="375.464">DeadlineMiss</text><rect fill="#FFFFFF" height="40" rx="12.5" ry="12.5" style="stroke:#000000;stroke-width:1;" width="63.3678" x="764.71" y="466.032"/><text fill="#000000" font-family="Verdana" font-size="14" lengthAdjust="spacing" textLength="53.3678" x="769.71" y="491.464">Aborted</text><g class="end_entity" data-qualified-name="JobLifecycle..end.JobLifecycle" data-source-line="23" id="ent0028"><ellipse cx="734.39" cy="554.032" fill="none" rx="11" ry="11" style="stroke:#000000;stroke-width:1;"/><ellipse cx="734.39" cy="554.032" fill="#FFFFFF" rx="6" ry="6" style="stroke:#000000;stroke-width:1;"/></g><!--link *start*JobLifecycle to JobReleased--><g class="link" data-entity-1="ent0016" data-entity-2="ent0017" data-link-type="dependency" data-source-line="17" id="lnk18"><path d="M834.39,123.342 C834.39,132.752 834.39,141.572 834.39,153.552" fill="none" id="*start*JobLifecycle-to-JobReleased" style="stroke:#000000;stroke-width:1;"/><polygon fill="#000000" points="834.39,159.552,838.39,150.552,834.39,154.552,830.39,150.552,834.39,159.552" style="stroke:#000000;stroke-width:1;"/></g><!--link JobReleased to JobActive--><g class="link" data-entity-1="ent0017" data-entity-2="ent0019" data-link-type="dependency" data-source-line="18" id="lnk20"><path d="M834.39,200.302 C834.39,216.262 834.39,232.832 834.39,248.782" fill="none" id="JobReleased-to-JobActive" style="stroke:#000000;stroke-width:1;"/><polygon fill="#000000" points="834.39,254.782,838.39,245.782,834.39,249.782,830.39,245.782,834.39,254.782" style="stroke:#000000;stroke-width:1;"/><text fill="#000000" font-family="Verdana" font-size="13" lengthAdjust="spacing" textLength="119.2621" x="835.39" y="232.929">first segment ready</text></g><!--link JobActive to JobCompleted--><g class="link" data-entity-1="ent0019" data-entity-2="ent0021" data-link-type="dependency" data-source-line="19" id="lnk22"><path d="M798.83,280.122 C760.35,285.372 702.7,295.902 689.39,313.032 C667.85,340.762 684.1897,377.9411 699.0597,402.4711" fill="none" id="JobActive-to-JobCompleted" style="stroke:#000000;stroke-width:1;"/><polygon fill="#000000" points="702.17,407.602,700.9251,397.8322,699.5781,403.3263,694.0839,401.9792,702.17,407.602" style="stroke:#000000;stroke-width:1;"/><text fill="#000000" font-family="Verdana" font-size="13" lengthAdjust="spacing" textLength="139.3601" x="690.39" y="327.929">all subtasks completed</text></g><!--link JobActive to DeadlineMiss--><g class="link" data-entity-1="ent0019" data-entity-2="ent0023" data-link-type="dependency" data-source-line="20" id="lnk24"><path d="M834.39,295.302 C834.39,311.262 834.39,327.832 834.39,343.782" fill="none" id="JobActive-to-DeadlineMiss" style="stroke:#000000;stroke-width:1;"/><polygon fill="#000000" points="834.39,349.782,838.39,340.782,834.39,344.782,830.39,340.782,834.39,349.782" style="stroke:#000000;stroke-width:1;"/><text fill="#000000" font-family="Verdana" font-size="13" lengthAdjust="spacing" textLength="151.5671" x="835.39" y="327.929">now &gt; absolute_deadline</text></g><!--link DeadlineMiss to Aborted--><g class="link" data-entity-1="ent0023" data-entity-2="ent0025" data-link-type="dependency" data-source-line="21" id="lnk26"><path d="M827.95,390.372 C820.96,411.332 811.7674,438.9099 804.7674,459.9099" fill="none" id="DeadlineMiss-to-Aborted" style="stroke:#000000;stroke-width:1;"/><polygon fill="#000000" points="802.87,465.602,809.5108,458.3288,804.4511,460.8586,801.9213,455.799,802.87,465.602" style="stroke:#000000;stroke-width:1;"/><text fill="#000000" font-family="Verdana" font-size="13" lengthAdjust="spacing" textLength="121.4851" x="822.02" y="433.429">abort_on_miss=true</text></g><!--link DeadlineMiss to JobActive--><g class="link" data-entity-1="ent0023" data-entity-2="ent0019" data-link-type="dependency" data-source-line="22" id="lnk27"><path d="M883.52,367.282 C939.22,363.462 1018.6,351.352 988.39,313.032 C973.93,294.672 916.7182,285.0888 875.9182,280.2488" fill="none" id="DeadlineMiss-to-JobActive" style="stroke:#000000;stroke-width:1;"/><polygon fill="#000000" points="869.96,279.542,878.4261,284.5744,874.9252,280.131,879.3685,276.6301,869.96,279.542" style="stroke:#000000;stroke-width:1;"/><text fill="#000000" font-family="Verdana" font-size="13" lengthAdjust="spacing" textLength="124.7351" x="996.04" y="327.929">abort_on_miss=false</text></g><!--link JobCompleted to *end*JobLifecycle--><g class="link" data-entity-1="ent0021" data-entity-2="ent0028" data-link-type="dependency" data-source-line="23" id="lnk29"><path d="M718.36,448.402 C722.45,475.112 728.7715,516.3212 731.9315,536.9512" fill="none" id="JobCompleted-to-*end*JobLifecycle" style="stroke:#000000;stroke-width:1;"/><polygon fill="#000000" points="732.84,542.882,735.4312,533.3801,732.083,537.9397,727.5234,534.5914,732.84,542.882" style="stroke:#000000;stroke-width:1;"/></g><!--link Aborted to *end*JobLifecycle--><g class="link" data-entity-1="ent0025" data-entity-2="ent0028" data-link-type="dependency" data-source-line="24" id="lnk30"><path d="M778.13,506.482 C765.84,519.562 754.4261,531.6971 745.5661,541.1371" fill="none" id="Aborted-to-*end*JobLifecycle" style="stroke:#000000;stroke-width:1;"/><polygon fill="#000000" points="741.46,545.512,750.5358,541.6871,744.8818,541.8663,744.7026,536.2122,741.46,545.512" style="stroke:#000000;stroke-width:1;"/></g><?plantuml-src VL9DJzmm4BtdLmoSW0hj7GaaeEgXAggqIqy5HOuzkncjOwUUCIYg-j-PGBuMK2z9F6_UyxnvEP8Q6uJM6mf5JGu1crOwSCWsKIiKGr48YKTOt__Sm8OQMESWfAID646uCxQcW72omLs3GU0BV8_LQL7mAtmybd_G5crdFHw3OHYgKn7-5W2_pnxX_Fng1DTeNAVbvV40po5GsC45EEBMYArXbqmGT0lIqBEWtVXez-YKbl1FHXOr6mZTGpX9o34dYsMLkOCLSCU2JMcHl8gKLSyydSL7fONuhr0jv3qQnfKrmQA7PxD7rYS9fbbZ9hntFWwOKT_zcL7-Q-mR1UBwzMeRczQZu4fI3bPpc8bJLy_KZHV_fgWqjtSnQUNpY1HOlzdhbxquZUYr5Nf27MLBILVCmr-GXapdZg7_TfYudzvu3vmhCRpdoOhxmFggMfeBtX6pia9yXYim5KUV1Kite4exQEoPrrLCmrNzLnb3sIXsgTlwj7_fvv2nDPxnRRBPmRXPc2wQT_q2?></g></svg>