<?plantuml 1.2026.2?><svg xmlns="http://www.w3.org/2000/svg" xmlns:xlink="http://www.w3.org/1999/xlink" contentStyleType="text/css" data-diagram-type="ACTIVITY" height="1067px" preserveAspectRatio="none" style="width:696px;height:1067px;background:#FFFFFF;" version="1.1" viewBox="0 0 696 1067" width="696px" zoomAndPan="magnify"><title>RTOS Sim CLI Run Activity (step loop + advance_once + audit)</title><defs/><g><g class="title" data-source-line="3"><text fill="#000000" font-family="Verdana" font-size="22" font-weight="bold" lengthAdjust="spacing" textLength="663.5002" x="15" y="38.5181">RTOS Sim CLI Run Activity (step loop + advance_once + audit)</text></g><ellipse cx="368.045" cy="65.9641" fill="#FFFFFF" rx="10" ry="10" style="stroke:#000000;stroke-width:1;"/><rect fill="#FFFFFF" height="36.3441" rx="12.5" ry="12.5" style="stroke:#000000;stroke-width:1;" width="166.173" x="284.9585" y="95.9641"/><text fill="#000000" font-family="Verdana" font-size="12" lengthAdjust="spacing" textLength="146.173" x="294.9585" y="118.7922">ConfigLoader.load(config)</text><rect fill="#FFFFFF" height="36.3441" rx="12.5" ry="12.5" style="stroke:#000000;stroke-width:1;" width="144.0928" x="295.9986" y="152.3082"/><text fill="#000000" font-family="Verdana" font-size="12" lengthAdjust="spacing" textLength="124.0928" x="305.9986" y="175.1363">SimEngine.build(spec)</text><rect fill="#FFFFFF" height="36.3441" rx="12.5" ry="12.5" style="stroke:#000000;stroke-width:1;" width="158.673" x="288.7085" y="208.6523"/><text fill="#000000" font-family="Verdana" font-size="12" lengthAdjust="spacing" textLength="138.673" x="298.7085" y="231.4804">resolve horizon / stop_at</text><polygon fill="#FFFFFF" points="341.7057,264.9964,394.3843,264.9964,406.3843,276.9964,394.3843,288.9964,341.7057,288.9964,329.7057,276.9964,341.7057,264.9964" style="stroke:#000000;stroke-width:1;"/><text fill="#000000" font-family="Verdana" font-size="11" lengthAdjust="spacing" textLength="52.6786" x="341.7057" y="281.2644">args.step?</text><text fill="#000000" font-family="Verdana" font-size="11" lengthAdjust="spacing" textLength="17.0829" x="312.6228" y="273.7735">yes</text><text fill="#000000" font-family="Verdana" font-size="11" lengthAdjust="spacing" textLength="13.4529" x="406.3843" y="273.7735">no</text><rect fill="#FFFFFF" height="36.3441" rx="12.5" ry="12.5" style="stroke:#000000;stroke-width:1;" width="167.457" x="165.8311" y="355.3406"/><text fill="#000000" font-family="Verdana" font-size="12" lengthAdjust="spacing" textLength="147.457" x="175.8311" y="378.1686">engine.step(delta or once)</text><polygon fill="#FFFFFF" points="249.5596,298.9964,261.5596,310.9964,249.5596,322.9964,237.5596,310.9964,249.5596,298.9964" style="stroke:#000000;stroke-width:1;"/><polygon fill="#FFFFFF" points="149.7793,411.6847,349.3399,411.6847,361.3399,423.6847,349.3399,435.6847,149.7793,435.6847,137.7793,423.6847,149.7793,411.6847" style="stroke:#000000;stroke-width:1;"/><text fill="#000000" font-family="Verdana" font-size="11" lengthAdjust="spacing" textLength="199.5606" x="149.7793" y="427.9526">engine.now &lt; stop_at and progressed?</text><text fill="#000000" font-family="Verdana" font-size="11" lengthAdjust="spacing" textLength="17.0829" x="361.3399" y="420.4617">yes</text><rect fill="#FFFFFF" height="36.3441" rx="12.5" ry="12.5" style="stroke:#000000;stroke-width:1;" width="162.381" x="168.3691" y="455.6847"/><text fill="#000000" font-family="Verdana" font-size="12" lengthAdjust="spacing" textLength="142.381" x="178.3691" y="478.5128">engine.run(until=stop_at)</text><rect fill="#FFFFFF" height="36.3441" rx="12.5" ry="12.5" style="stroke:#000000;stroke-width:1;" width="162.381" x="405.3399" y="298.9964"/><text fill="#000000" font-family="Verdana" font-size="12" lengthAdjust="spacing" textLength="142.381" x="415.3399" y="321.8245">engine.run(until=stop_at)</text><polygon fill="#FFFFFF" points="368.045,498.0288,380.045,510.0288,368.045,522.0288,356.045,510.0288,368.045,498.0288" style="stroke:#000000;stroke-width:1;"/><rect fill="#FFFFFF" height="36.3441" rx="12.5" ry="12.5" style="stroke:#000000;stroke-width:1;" width="154.9889" x="290.5505" y="586.0288"/><text fill="#000000" font-family="Verdana" font-size="12" lengthAdjust="spacing" textLength="134.9889" x="300.5505" y="608.8569">_advance_once(horizon)</text><polygon fill="#FFFFFF" points="368.045,542.0288,380.045,554.0288,368.045,566.0288,356.045,554.0288,368.045,542.0288" style="stroke:#000000;stroke-width:1;"/><polygon fill="#FFFFFF" points="267.3792,642.3729,468.7108,642.3729,480.7108,654.3729,468.7108,666.3729,267.3792,666.3729,255.3792,654.3729,267.3792,642.3729" style="stroke:#000000;stroke-width:1;"/><text fill="#000000" font-family="Verdana" font-size="11" lengthAdjust="spacing" textLength="201.3315" x="267.3792" y="658.6409">engine.now &lt; horizon and progressed?</text><text fill="#000000" font-family="Verdana" font-size="11" lengthAdjust="spacing" textLength="17.0829" x="480.7108" y="651.1499">yes</text><rect fill="#FFFFFF" height="36.3441" rx="12.5" ry="12.5" style="stroke:#000000;stroke-width:1;" width="151.305" x="292.3925" y="686.3729"/><text fill="#000000" font-family="Verdana" font-size="12" lengthAdjust="spacing" textLength="131.305" x="302.3925" y="709.201">collect events + metrics</text><polygon fill="#FFFFFF" points="328.3848,742.717,407.7052,742.717,419.7052,754.717,407.7052,766.717,328.3848,766.717,316.3848,754.717,328.3848,742.717" style="stroke:#000000;stroke-width:1;"/><text fill="#000000" font-family="Verdana" font-size="11" lengthAdjust="spacing" textLength="79.3204" x="328.3848" y="758.985">args.audit_out?</text><text fill="#000000" font-family="Verdana" font-size="11" lengthAdjust="spacing" textLength="17.0829" x="299.3019" y="751.494">yes</text><text fill="#000000" font-family="Verdana" font-size="11" lengthAdjust="spacing" textLength="13.4529" x="419.7052" y="751.494">no</text><rect fill="#FFFFFF" height="36.3441" rx="12.5" ry="12.5" style="stroke:#000000;stroke-width:1;" width="140.4808" x="196.8735" y="776.717"/><text fill="#000000" font-family="Verdana" font-size="12" lengthAdjust="spacing" textLength="120.4808" x="206.8735" y="799.5451">build_audit_report(...)</text><rect fill="#FFFFFF" height="36.3441" rx="12.5" ry="12.5" style="stroke:#000000;stroke-width:1;" width="107.3966" x="213.4156" y="833.0611"/><text fill="#000000" font-family="Verdana" font-size="12" lengthAdjust="spacing" textLength="87.3966" x="223.4156" y="855.8892">write audit.json</text><polygon fill="#FFFFFF" points="213.3683,889.4052,320.8595,889.4052,332.8595,901.4052,320.8595,913.4052,213.3683,913.4052,201.3683,901.4052,213.3683,889.4052" style="stroke:#000000;stroke-width:1;"/><text fill="#000000" font-family="Verdana" font-size="11" lengthAdjust="spacing" textLength="107.4913" x="213.3683" y="905.6732">audit.status == pass?</text><text fill="#000000" font-family="Verdana" font-size="11" lengthAdjust="spacing" textLength="17.0829" x="184.2854" y="898.1823">yes</text><text fill="#000000" font-family="Verdana" font-size="11" lengthAdjust="spacing" textLength="13.4529" x="332.8595" y="898.1823">no</text><rect fill="#FFFFFF" height="36.3441" rx="12.5" ry="12.5" style="stroke:#000000;stroke-width:1;" width="96.1165" x="143.31" y="923.4052"/><text fill="#000000" font-family="Verdana" font-size="12" lengthAdjust="spacing" textLength="76.1165" x="153.31" y="946.2333">return code 0</text><rect fill="#FFFFFF" height="36.3441" rx="12.5" ry="12.5" style="stroke:#000000;stroke-width:1;" width="96.1165" x="294.8013" y="923.4052"/><text fill="#000000" font-family="Verdana" font-size="12" lengthAdjust="spacing" textLength="76.1165" x="304.8013" y="946.2333">return code 2</text><polygon fill="#FFFFFF" points="267.1139,965.7494,279.1139,977.7494,267.1139,989.7494,255.1139,977.7494,267.1139,965.7494" style="stroke:#000000;stroke-width:1;"/><rect fill="#FFFFFF" height="36.3441" rx="12.5" ry="12.5" style="stroke:#000000;stroke-width:1;" width="96.1165" x="420.9178" y="776.717"/><text fill="#000000" font-family="Verdana" font-size="12" lengthAdjust="spacing" textLength="76.1165" x="430.9178" y="799.5451">return code 0</text><polygon fill="#FFFFFF" points="368.045,995.7494,380.045,1007.7494,368.045,1019.7494,356.045,1007.7494,368.045,995.7494" style="stroke:#000000;stroke-width:1;"/><ellipse cx="368.045" cy="1050.7494" fill="none" rx="11" ry="11" style="stroke:#000000;stroke-width:1;"/><ellipse cx="368.045" cy="1050.7494" fill="#FFFFFF" rx="6" ry="6" style="stroke:#000000;stroke-width:1;"/><line style="stroke:#000000;stroke-width:1;" x1="368.045" x2="368.045" y1="75.9641" y2="95.9641"/><polygon fill="#000000" points="364.045,85.9641,368.045,95.9641,372.045,85.9641,368.045,89.9641" style="stroke:#000000;stroke-width:1;"/><line style="stroke:#000000;stroke-width:1;" x1="368.045" x2="368.045" y1="132.3082" y2="152.3082"/><polygon fill="#000000" points="364.045,142.3082,368.045,152.3082,372.045,142.3082,368.045,146.3082" style="stroke:#000000;stroke-width:1;"/><line style="stroke:#000000;stroke-width:1;" x1="368.045" x2="368.045" y1="188.6523" y2="208.6523"/><polygon fill="#000000" points="364.045,198.6523,368.045,208.6523,372.045,198.6523,368.045,202.6523" style="stroke:#000000;stroke-width:1;"/><line style="stroke:#000000;stroke-width:1;" x1="249.5596" x2="249.5596" y1="322.9964" y2="355.3406"/><polygon fill="#000000" points="245.5596,345.3406,249.5596,355.3406,253.5596,345.3406,249.5596,349.3406" style="stroke:#000000;stroke-width:1;"/><line style="stroke:#000000;stroke-width:1;" x1="361.3399" x2="373.3399" y1="423.6847" y2="423.6847"/><polygon fill="#000000" points="369.3399,383.5126,373.3399,373.5126,377.3399,383.5126,373.3399,379.5126" style="stroke:#000000;stroke-width:1;"/><line style="stroke:#000000;stroke-width:1;" x1="373.3399" x2="373.3399" y1="310.9964" y2="423.6847"/><line style="stroke:#000000;stroke-width:1;" x1="373.3399" x2="261.5596" y1="310.9964" y2="310.9964"/><polygon fill="#000000" points="271.5596,306.9964,261.5596,310.9964,271.5596,314.9964,267.5596,310.9964" style="stroke:#000000;stroke-width:1;"/><line style="stroke:#000000;stroke-width:1;" x1="249.5596" x2="249.5596" y1="391.6847" y2="411.6847"/><polygon fill="#000000" points="245.5596,401.6847,249.5596,411.6847,253.5596,401.6847,249.5596,405.6847" style="stroke:#000000;stroke-width:1;"/><line style="stroke:#000000;stroke-width:1;" x1="249.5596" x2="249.5596" y1="435.6847" y2="455.6847"/><polygon fill="#000000" points="245.5596,445.6847,249.5596,455.6847,253.5596,445.6847,249.5596,449.6847" style="stroke:#000000;stroke-width:1;"/><line style="stroke:#000000;stroke-width:1;" x1="329.7057" x2="249.5596" y1="276.9964" y2="276.9964"/><line style="stroke:#000000;stroke-width:1;" x1="249.5596" x2="249.5596" y1="276.9964" y2="298.9964"/><polygon fill="#000000" points="245.5596,288.9964,249.5596,298.9964,253.5596,288.9964,249.5596,292.9964" style="stroke:#000000;stroke-width:1;"/><line style="stroke:#000000;stroke-width:1;" x1="406.3843" x2="486.5304" y1="276.9964" y2="276.9964"/><line style="stroke:#000000;stroke-width:1;" x1="486.5304" x2="486.5304" y1="276.9964" y2="298.9964"/><polygon fill="#000000" points="482.5304,288.9964,486.5304,298.9964,490.5304,288.9964,486.5304,292.9964" style="stroke:#000000;stroke-width:1;"/><line style="stroke:#000000;stroke-width:1;" x1="249.5596" x2="249.5596" y1="492.0288" y2="510.0288"/><line style="stroke:#000000;stroke-width:1;" x1="249.5596" x2="356.045" y1="510.0288" y2="510.0288"/><polygon fill="#000000" points="346.045,506.0288,356.045,510.0288,346.045,514.0288,350.045,510.0288" style="stroke:#000000;stroke-width:1;"/><line style="stroke:#000000;stroke-width:1;" x1="486.5304" x2="486.5304" y1="335.3406" y2="510.0288"/><line style="stroke:#000000;stroke-width:1;" x1="486.5304" x2="380.045" y1="510.0288" y2="510.0288"/><polygon fill="#000000" points="390.045,506.0288,380.045,510.0288,390.045,514.0288,386.045,510.0288" style="stroke:#000000;stroke-width:1;"/><line style="stroke:#000000;stroke-width:1;" x1="368.045" x2="368.045" y1="244.9964" y2="264.9964"/><polygon fill="#000000" points="364.045,254.9964,368.045,264.9964,372.045,254.9964,368.045,258.9964" style="stroke:#000000;stroke-width:1;"/><line style="stroke:#000000;stroke-width:1;" x1="368.045" x2="368.045" y1="566.0288" y2="586.0288"/><polygon fill="#000000" points="364.045,576.0288,368.045,586.0288,372.045,576.0288,368.045,580.0288" style="stroke:#000000;stroke-width:1;"/><line style="stroke:#000000;stroke-width:1;" x1="480.7108" x2="492.7108" y1="654.3729" y2="654.3729"/><polygon fill="#000000" points="488.7108,614.2008,492.7108,604.2008,496.7108,614.2008,492.7108,610.2008" style="stroke:#000000;stroke-width:1;"/><line style="stroke:#000000;stroke-width:1;" x1="492.7108" x2="492.7108" y1="554.0288" y2="654.3729"/><line style="stroke:#000000;stroke-width:1;" x1="492.7108" x2="380.045" y1="554.0288" y2="554.0288"/><polygon fill="#000000" points="390.045,550.0288,380.045,554.0288,390.045,558.0288,386.045,554.0288" style="stroke:#000000;stroke-width:1;"/><line style="stroke:#000000;stroke-width:1;" x1="368.045" x2="368.045" y1="622.3729" y2="642.3729"/><polygon fill="#000000" points="364.045,632.3729,368.045,642.3729,372.045,632.3729,368.045,636.3729" style="stroke:#000000;stroke-width:1;"/><line style="stroke:#000000;stroke-width:1;" x1="368.045" x2="368.045" y1="522.0288" y2="542.0288"/><polygon fill="#000000" points="364.045,532.0288,368.045,542.0288,372.045,532.0288,368.045,536.0288" style="stroke:#000000;stroke-width:1;"/><line style="stroke:#000000;stroke-width:1;" x1="368.045" x2="368.045" y1="666.3729" y2="686.3729"/><polygon fill="#000000" points="364.045,676.3729,368.045,686.3729,372.045,676.3729,368.045,680.3729" style="stroke:#000000;stroke-width:1;"/><line style="stroke:#000000;stroke-width:1;" x1="267.1139" x2="267.1139" y1="813.0611" y2="833.0611"/><polygon fill="#000000" points="263.1139,823.0611,267.1139,833.0611,271.1139,823.0611,267.1139,827.0611" style="stroke:#000000;stroke-width:1;"/><line style="stroke:#000000;stroke-width:1;" x1="201.3683" x2="191.3683" y1="901.4052" y2="901.4052"/><line style="stroke:#000000;stroke-width:1;" x1="191.3683" x2="191.3683" y1="901.4052" y2="923.4052"/><polygon fill="#000000" points="187.3683,913.4052,191.3683,923.4052,195.3683,913.4052,191.3683,917.4052" style="stroke:#000000;stroke-width:1;"/><line style="stroke:#000000;stroke-width:1;" x1="332.8595" x2="342.8595" y1="901.4052" y2="901.4052"/><line style="stroke:#000000;stroke-width:1;" x1="342.8595" x2="342.8595" y1="901.4052" y2="923.4052"/><polygon fill="#000000" points="338.8595,913.4052,342.8595,923.4052,346.8595,913.4052,342.8595,917.4052" style="stroke:#000000;stroke-width:1;"/><line style="stroke:#000000;stroke-width:1;" x1="191.3683" x2="191.3683" y1="959.7494" y2="977.7494"/><line style="stroke:#000000;stroke-width:1;" x1="191.3683" x2="255.1139" y1="977.7494" y2="977.7494"/><polygon fill="#000000" points="245.1139,973.7494,255.1139,977.7494,245.1139,981.7494,249.1139,977.7494" style="stroke:#000000;stroke-width:1;"/><line style="stroke:#000000;stroke-width:1;" x1="342.8595" x2="342.8595" y1="959.7494" y2="977.7494"/><line style="stroke:#000000;stroke-width:1;" x1="342.8595" x2="279.1139" y1="977.7494" y2="977.7494"/><polygon fill="#000000" points="289.1139,973.7494,279.1139,977.7494,289.1139,981.7494,285.1139,977.7494" style="stroke:#000000;stroke-width:1;"/><line style="stroke:#000000;stroke-width:1;" x1="267.1139" x2="267.1139" y1="869.4052" y2="889.4052"/><polygon fill="#000000" points="263.1139,879.4052,267.1139,889.4052,271.1139,879.4052,267.1139,883.4052" style="stroke:#000000;stroke-width:1;"/><line style="stroke:#000000;stroke-width:1;" x1="316.3848" x2="267.1139" y1="754.717" y2="754.717"/><line style="stroke:#000000;stroke-width:1;" x1="267.1139" x2="267.1139" y1="754.717" y2="776.717"/><polygon fill="#000000" points="263.1139,766.717,267.1139,776.717,271.1139,766.717,267.1139,770.717" style="stroke:#000000;stroke-width:1;"/><line style="stroke:#000000;stroke-width:1;" x1="419.7052" x2="468.9761" y1="754.717" y2="754.717"/><line style="stroke:#000000;stroke-width:1;" x1="468.9761" x2="468.9761" y1="754.717" y2="776.717"/><polygon fill="#000000" points="464.9761,766.717,468.9761,776.717,472.9761,766.717,468.9761,770.717" style="stroke:#000000;stroke-width:1;"/><line style="stroke:#000000;stroke-width:1;" x1="267.1139" x2="267.1139" y1="989.7494" y2="1007.7494"/><line style="stroke:#000000;stroke-width:1;" x1="267.1139" x2="356.045" y1="1007.7494" y2="1007.7494"/><polygon fill="#000000" points="346.045,1003.7494,356.045,1007.7494,346.045,1011.7494,350.045,1007.7494" style="stroke:#000000;stroke-width:1;"/><line style="stroke:#000000;stroke-width:1;" x1="468.9761" x2="468.9761" y1="813.0611" y2="1007.7494"/><line style="stroke:#000000;stroke-width:1;" x1="468.9761" x2="380.045" y1="1007.7494" y2="1007.7494"/><polygon fill="#000000" points="390.045,1003.7494,380.045,1007.7494,390.045,1011.7494,386.045,1007.7494" style="stroke:#000000;stroke-width:1;"/><line style="stroke:#000000;stroke-width:1;" x1="368.045" x2="368.045" y1="722.717" y2="742.717"/><polygon fill="#000000" points="364.045,732.717,368.045,742.717,372.045,732.717,368.045,736.717" style="stroke:#000000;stroke-width:1;"/><line style="stroke:#000000;stroke-width:1;" x1="368.045" x2="368.045" y1="1019.7494" y2="1039.7494"/><polygon fill="#000000" points="364.045,1029.7494,368.045,1039.7494,372.045,1029.7494,368.045,1033.7494" style="stroke:#000000;stroke-width:1;"/><?plantuml-src XL5DJyCm3BtdLvXRAgI2E7PC24qSa2OXRTohq7YRKMPNYTjf_7hIxWEO15pIr7v-VddlIZUuHMY38pP6IGF2ulLb2KlQmcp-38kEuR5HwadtO9DY2q6aXMjmldVSO2tv67uxJreOazH5DTLCU4NhkJYFiGpvOvknKanCbRcVU4sCvLj7mTlKOZFK8oO9FS968dq8mmqabRPsEZ66Lc1TNAToaF1GGDRDOFUO2WCGiKMd-G9GuO5vW5cFGHr8X45Ztd12mcv3-Q7sY6NPmVrf5pZsq4PPPpK9VLv5wRpen1uxjXqhXUbnAfDZI9cIvLySUrePSzPSrT-TjCV7P-0VMayE_QxLL8s4W8q2ziYQSa9Rr4XDcdnvEMPMIwUNXbPZCFMXdtL8L5kMvMXXjOkaUCYxV4_2Gt6a72ivV-qIJAVGkfGkYVDuHEqYGoCUuNQO_MxSHVzkx8-6_R3tWkDewU3n9m00?></g></svg>