<?plantuml 1.2026.2?><svg xmlns="http://www.w3.org/2000/svg" xmlns:xlink="http://www.w3.org/1999/xlink" contentStyleType="text/css" data-diagram-type="TIMING" height="298px" preserveAspectRatio="none" style="width:3766px;height:298px;background:#FFFFFF;" version="1.1" viewBox="0 0 3766 298" width="3766px" zoomAndPan="magnify"><title>RTOS Sim Runtime Timing Skeleton (Key Events)</title><defs/><g><g class="title" data-source-line="3"><text fill="#000000" font-family="Verdana" font-size="22" font-weight="bold" lengthAdjust="spacing" textLength="525.9998" x="1618.9168" y="38.5181">RTOS Sim Runtime Timing Skeleton (Key Events)</text></g><line style="stroke:#000000;stroke-width:1;" x1="5" x2="5" y1="55.9641" y2="272.0999"/><line style="stroke:#000000;stroke-width:1;" x1="3759.8334" x2="3759.8334" y1="55.9641" y2="272.0999"/><line style="stroke:#000000;stroke-width:0.5;stroke-dasharray:3,5;" x1="204.8334" x2="204.8334" y1="55.9641" y2="272.0999"/><line style="stroke:#000000;stroke-width:0.5;stroke-dasharray:3,5;" x1="254.8334" x2="254.8334" y1="55.9641" y2="272.0999"/><line style="stroke:#000000;stroke-width:0.5;stroke-dasharray:3,5;" x1="304.8334" x2="304.8334" y1="55.9641" y2="272.0999"/><line style="stroke:#000000;stroke-width:0.5;stroke-dasharray:3,5;" x1="354.8334" x2="354.8334" y1="55.9641" y2="272.0999"/><line style="stroke:#000000;stroke-width:0.5;stroke-dasharray:3,5;" x1="404.8334" x2="404.8334" y1="55.9641" y2="272.0999"/><line style="stroke:#000000;stroke-width:0.5;stroke-dasharray:3,5;" x1="454.8334" x2="454.8334" y1="55.9641" y2="272.0999"/><line style="stroke:#000000;stroke-width:0.5;stroke-dasharray:3,5;" x1="504.8334" x2="504.8334" y1="55.9641" y2="272.0999"/><line style="stroke:#000000;stroke-width:0.5;stroke-dasharray:3,5;" x1="554.8334" x2="554.8334" y1="55.9641" y2="272.0999"/><line style="stroke:#000000;stroke-width:0.5;stroke-dasharray:3,5;" x1="604.8334" x2="604.8334" y1="55.9641" y2="272.0999"/><line style="stroke:#000000;stroke-width:0.5;stroke-dasharray:3,5;" x1="654.8334" x2="654.8334" y1="55.9641" y2="272.0999"/><line style="stroke:#000000;stroke-width:0.5;stroke-dasharray:3,5;" x1="704.8334" x2="704.8334" y1="55.9641" y2="272.0999"/><line style="stroke:#000000;stroke-width:0.5;stroke-dasharray:3,5;" x1="754.8334" x2="754.8334" y1="55.9641" y2="272.0999"/><line style="stroke:#000000;stroke-width:0.5;stroke-dasharray:3,5;" x1="804.8334" x2="804.8334" y1="55.9641" y2="272.0999"/><line style="stroke:#000000;stroke-width:0.5;stroke-dasharray:3,5;" x1="854.8334" x2="854.8334" y1="55.9641" y2="272.0999"/><line style="stroke:#000000;stroke-width:0.5;stroke-dasharray:3,5;" x1="904.8334" x2="904.8334" y1="55.9641" y2="272.0999"/><line style="stroke:#000000;stroke-width:0.5;stroke-dasharray:3,5;" x1="954.8334" x2="954.8334" y1="55.9641" y2="272.0999"/><line style="stroke:#000000;stroke-width:0.5;stroke-dasharray:3,5;" x1="1004.8334" x2="1004.8334" y1="55.9641" y2="272.0999"/><line style="stroke:#000000;stroke-width:0.5;stroke-dasharray:3,5;" x1="1054.8334" x2="1054.8334" y1="55.9641" y2="272.0999"/><line style="stroke:#000000;stroke-width:0.5;stroke-dasharray:3,5;" x1="1104.8334" x2="1104.8334" y1="55.9641" y2="272.0999"/><line style="stroke:#000000;stroke-width:0.5;stroke-dasharray:3,5;" x1="1154.8334" x2="1154.8334" y1="55.9641" y2="272.0999"/><line style="stroke:#000000;stroke-width:0.5;stroke-dasharray:3,5;" x1="1204.8334" x2="1204.8334" y1="55.9641" y2="272.0999"/><line style="stroke:#000000;stroke-width:0.5;stroke-dasharray:3,5;" x1="1254.8334" x2="1254.8334" y1="55.9641" y2="272.0999"/><line style="stroke:#000000;stroke-width:0.5;stroke-dasharray:3,5;" x1="1304.8334" x2="1304.8334" y1="55.9641" y2="272.0999"/><line style="stroke:#000000;stroke-width:0.5;stroke-dasharray:3,5;" x1="1354.8334" x2="1354.8334" y1="55.9641" y2="272.0999"/><line style="stroke:#000000;stroke-width:0.5;stroke-dasharray:3,5;" x1="1404.8334" x2="1404.8334" y1="55.9641" y2="272.0999"/><line style="stroke:#000000;stroke-width:0.5;stroke-dasharray:3,5;" x1="1454.8334" x2="1454.8334" y1="55.9641" y2="272.0999"/><line style="stroke:#000000;stroke-width:0.5;stroke-dasharray:3,5;" x1="1504.8334" x2="1504.8334" y1="55.9641" y2="272.0999"/><line style="stroke:#000000;stroke-width:0.5;stroke-dasharray:3,5;" x1="1554.8334" x2="1554.8334" y1="55.9641" y2="272.0999"/><line style="stroke:#000000;stroke-width:0.5;stroke-dasharray:3,5;" x1="1604.8334" x2="1604.8334" y1="55.9641" y2="272.0999"/><line style="stroke:#000000;stroke-width:0.5;stroke-dasharray:3,5;" x1="1654.8334" x2="1654.8334" y1="55.9641" y2="272.0999"/><line style="stroke:#000000;stroke-width:0.5;stroke-dasharray:3,5;" x1="1704.8334" x2="1704.8334" y1="55.9641" y2="272.0999"/><line style="stroke:#000000;stroke-width:0.5;stroke-dasharray:3,5;" x1="1754.8334" x2="1754.8334" y1="55.9641" y2="272.0999"/><line style="stroke:#000000;stroke-width:0.5;stroke-dasharray:3,5;" x1="1804.8334" x2="1804.8334" y1="55.9641" y2="272.0999"/><line style="stroke:#000000;stroke-width:0.5;stroke-dasharray:3,5;" x1="1854.8334" x2="1854.8334" y1="55.9641" y2="272.0999"/><line style="stroke:#000000;stroke-width:0.5;stroke-dasharray:3,5;" x1="1904.8334" x2="1904.8334" y1="55.9641" y2="272.0999"/><line style="stroke:#000000;stroke-width:0.5;stroke-dasharray:3,5;" x1="1954.8334" x2="1954.8334" y1="55.9641" y2="272.0999"/><line style="stroke:#000000;stroke-width:0.5;stroke-dasharray:3,5;" x1="2004.8334" x2="2004.8334" y1="55.9641" y2="272.0999"/><line style="stroke:#000000;stroke-width:0.5;stroke-dasharray:3,5;" x1="2054.8334" x2="2054.8334" y1="55.9641" y2="272.0999"/><line style="stroke:#000000;stroke-width:0.5;stroke-dasharray:3,5;" x1="2104.8334" x2="2104.8334" y1="55.9641" y2="272.0999"/><line style="stroke:#000000;stroke-width:0.5;stroke-dasharray:3,5;" x1="2154.8334" x2="2154.8334" y1="55.9641" y2="272.0999"/><line style="stroke:#000000;stroke-width:0.5;stroke-dasharray:3,5;" x1="2204.8334" x2="2204.8334" y1="55.9641" y2="272.0999"/><line style="stroke:#000000;stroke-width:0.5;stroke-dasharray:3,5;" x1="2254.8334" x2="2254.8334" y1="55.9641" y2="272.0999"/><line style="stroke:#000000;stroke-width:0.5;stroke-dasharray:3,5;" x1="2304.8334" x2="2304.8334" y1="55.9641" y2="272.0999"/><line style="stroke:#000000;stroke-width:0.5;stroke-dasharray:3,5;" x1="2354.8334" x2="2354.8334" y1="55.9641" y2="272.0999"/><line style="stroke:#000000;stroke-width:0.5;stroke-dasharray:3,5;" x1="2404.8334" x2="2404.8334" y1="55.9641" y2="272.0999"/><line style="stroke:#000000;stroke-width:0.5;stroke-dasharray:3,5;" x1="2454.8334" x2="2454.8334" y1="55.9641" y2="272.0999"/><line style="stroke:#000000;stroke-width:0.5;stroke-dasharray:3,5;" x1="2504.8334" x2="2504.8334" y1="55.9641" y2="272.0999"/><line style="stroke:#000000;stroke-width:0.5;stroke-dasharray:3,5;" x1="2554.8334" x2="2554.8334" y1="55.9641" y2="272.0999"/><line style="stroke:#000000;stroke-width:0.5;stroke-dasharray:3,5;" x1="2604.8334" x2="2604.8334" y1="55.9641" y2="272.0999"/><line style="stroke:#000000;stroke-width:0.5;stroke-dasharray:3,5;" x1="2654.8334" x2="2654.8334" y1="55.9641" y2="272.0999"/><line style="stroke:#000000;stroke-width:0.5;stroke-dasharray:3,5;" x1="2704.8334" x2="2704.8334" y1="55.9641" y2="272.0999"/><line style="stroke:#000000;stroke-width:0.5;stroke-dasharray:3,5;" x1="2754.8334" x2="2754.8334" y1="55.9641" y2="272.0999"/><line style="stroke:#000000;stroke-width:0.5;stroke-dasharray:3,5;" x1="2804.8334" x2="2804.8334" y1="55.9641" y2="272.0999"/><line style="stroke:#000000;stroke-width:0.5;stroke-dasharray:3,5;" x1="2854.8334" x2="2854.8334" y1="55.9641" y2="272.0999"/><line style="stroke:#000000;stroke-width:0.5;stroke-dasharray:3,5;" x1="2904.8334" x2="2904.8334" y1="55.9641" y2="272.0999"/><line style="stroke:#000000;stroke-width:0.5;stroke-dasharray:3,5;" x1="2954.8334" x2="2954.8334" y1="55.9641" y2="272.0999"/><line style="stroke:#000000;stroke-width:0.5;stroke-dasharray:3,5;" x1="3004.8334" x2="3004.8334" y1="55.9641" y2="272.0999"/><line style="stroke:#000000;stroke-width:0.5;stroke-dasharray:3,5;" x1="3054.8334" x2="3054.8334" y1="55.9641" y2="272.0999"/><line style="stroke:#000000;stroke-width:0.5;stroke-dasharray:3,5;" x1="3104.8334" x2="3104.8334" y1="55.9641" y2="272.0999"/><line style="stroke:#000000;stroke-width:0.5;stroke-dasharray:3,5;" x1="3154.8334" x2="3154.8334" y1="55.9641" y2="272.0999"/><line style="stroke:#000000;stroke-width:0.5;stroke-dasharray:3,5;" x1="3204.8334" x2="3204.8334" y1="55.9641" y2="272.0999"/><line style="stroke:#000000;stroke-width:0.5;stroke-dasharray:3,5;" x1="3254.8334" x2="3254.8334" y1="55.9641" y2="272.0999"/><line style="stroke:#000000;stroke-width:0.5;stroke-dasharray:3,5;" x1="3304.8334" x2="3304.8334" y1="55.9641" y2="272.0999"/><line style="stroke:#000000;stroke-width:0.5;stroke-dasharray:3,5;" x1="3354.8334" x2="3354.8334" y1="55.9641" y2="272.0999"/><line style="stroke:#000000;stroke-width:0.5;stroke-dasharray:3,5;" x1="3404.8334" x2="3404.8334" y1="55.9641" y2="272.0999"/><line style="stroke:#000000;stroke-width:0.5;stroke-dasharray:3,5;" x1="3454.8334" x2="3454.8334" y1="55.9641" y2="272.0999"/><line style="stroke:#000000;stroke-width:0.5;stroke-dasharray:3,5;" x1="3504.8334" x2="3504.8334" y1="55.9641" y2="272.0999"/><line style="stroke:#000000;stroke-width:0.5;stroke-dasharray:3,5;" x1="3554.8334" x2="3554.8334" y1="55.9641" y2="272.0999"/><line style="stroke:#000000;stroke-width:0.5;stroke-dasharray:3,5;" x1="3604.8334" x2="3604.8334" y1="55.9641" y2="272.0999"/><line style="stroke:#000000;stroke-width:0.5;stroke-dasharray:3,5;" x1="3654.8334" x2="3654.8334" y1="55.9641" y2="272.0999"/><line style="stroke:#000000;stroke-width:0.5;stroke-dasharray:3,5;" x1="3704.8334" x2="3704.8334" y1="55.9641" y2="272.0999"/><line style="stroke:#000000;stroke-width:0.5;stroke-dasharray:3,5;" x1="3754.8334" x2="3754.8334" y1="55.9641" y2="272.0999"/><line style="stroke:#000000;stroke-width:1;" x1="5" x2="3759.8334" y1="55.9641" y2="55.9641"/><text fill="#000000" font-family="Verdana" font-size="14" font-weight="bold" lengthAdjust="spacing" textLength="66.1918" x="10" y="70.93">holder@0</text><line style="stroke:#000000;stroke-width:1;" x1="5" x2="77.1918" y1="76.032" y2="76.032"/><line style="stroke:#000000;stroke-width:1;" x1="77.1918" x2="87.1918" y1="76.032" y2="55.9641"/><text fill="#000000" font-family="Verdana" font-size="12" lengthAdjust="spacing" textLength="68.6405" x="10" y="131.6881">JobReleased</text><text fill="#000000" font-family="Verdana" font-size="12" lengthAdjust="spacing" textLength="114.2048" x="10" y="111.6881">ResourceAcquire(r0)</text><text fill="#000000" font-family="Verdana" font-size="12" lengthAdjust="spacing" textLength="194.8334" x="10" y="91.6881">DeadlineMiss(abort_on_miss=true)</text><line style="stroke:#000000;stroke-width:1;" x1="204.8334" x2="209.8334" y1="126.032" y2="126.032"/><line style="stroke:#000000;stroke-width:1;" x1="209.8334" x2="2454.8334" y1="106.032" y2="106.032"/><line style="stroke:#000000;stroke-width:1;" x1="2454.8334" x2="3754.8334" y1="86.032" y2="86.032"/><line style="stroke:#000000;stroke-width:1;" x1="209.8334" x2="209.8334" y1="106.032" y2="126.032"/><line style="stroke:#000000;stroke-width:1;" x1="2454.8334" x2="2454.8334" y1="86.032" y2="106.032"/><line style="stroke:#000000;stroke-width:1;" x1="5" x2="3759.8334" y1="144.032" y2="144.032"/><text fill="#000000" font-family="Verdana" font-size="14" font-weight="bold" lengthAdjust="spacing" textLength="65.9817" x="10" y="158.998">waiter@0</text><line style="stroke:#000000;stroke-width:1;" x1="5" x2="76.9817" y1="164.0999" y2="164.0999"/><line style="stroke:#000000;stroke-width:1;" x1="76.9817" x2="86.9817" y1="164.0999" y2="144.032"/><text fill="#000000" font-family="Verdana" font-size="12" lengthAdjust="spacing" textLength="68.6405" x="16.0641" y="259.756">JobReleased</text><text fill="#000000" font-family="Verdana" font-size="12" lengthAdjust="spacing" textLength="183.7693" x="16.0641" y="239.756">SegmentBlocked(resource_busy)</text><text fill="#000000" font-family="Verdana" font-size="12" lengthAdjust="spacing" textLength="110.7128" x="16.0641" y="219.756">SegmentUnblocked</text><text fill="#000000" font-family="Verdana" font-size="12" lengthAdjust="spacing" textLength="111.3728" x="16.0641" y="199.756">SegmentStart(seg0)</text><text fill="#000000" font-family="Verdana" font-size="12" lengthAdjust="spacing" textLength="105.9007" x="16.0641" y="179.756">SegmentEnd(seg0)</text><line style="stroke:#000000;stroke-width:1;" x1="204.8334" x2="704.8334" y1="254.0999" y2="254.0999"/><line style="stroke:#000000;stroke-width:1;" x1="704.8334" x2="2454.8334" y1="234.0999" y2="234.0999"/><line style="stroke:#000000;stroke-width:1;" x1="2454.8334" x2="2459.8334" y1="214.0999" y2="214.0999"/><line style="stroke:#000000;stroke-width:1;" x1="2459.8334" x2="3704.8334" y1="194.0999" y2="194.0999"/><line style="stroke:#000000;stroke-width:1;" x1="3704.8334" x2="3754.8334" y1="174.0999" y2="174.0999"/><line style="stroke:#000000;stroke-width:1;" x1="704.8334" x2="704.8334" y1="234.0999" y2="254.0999"/><line style="stroke:#000000;stroke-width:1;" x1="2454.8334" x2="2454.8334" y1="214.0999" y2="234.0999"/><line style="stroke:#000000;stroke-width:1;" x1="2459.8334" x2="2459.8334" y1="194.0999" y2="214.0999"/><line style="stroke:#000000;stroke-width:1;" x1="3704.8334" x2="3704.8334" y1="174.0999" y2="194.0999"/><line style="stroke:#000000;stroke-width:1;" x1="204.8334" x2="204.8334" y1="272.0999" y2="277.0999"/><line style="stroke:#000000;stroke-width:1;" x1="254.8334" x2="254.8334" y1="272.0999" y2="277.0999"/><line style="stroke:#000000;stroke-width:1;" x1="304.8334" x2="304.8334" y1="272.0999" y2="277.0999"/><line style="stroke:#000000;stroke-width:1;" x1="354.8334" x2="354.8334" y1="272.0999" y2="277.0999"/><line style="stroke:#000000;stroke-width:1;" x1="404.8334" x2="404.8334" y1="272.0999" y2="277.0999"/><line style="stroke:#000000;stroke-width:1;" x1="454.8334" x2="454.8334" y1="272.0999" y2="277.0999"/><line style="stroke:#000000;stroke-width:1;" x1="504.8334" x2="504.8334" y1="272.0999" y2="277.0999"/><line style="stroke:#000000;stroke-width:1;" x1="554.8334" x2="554.8334" y1="272.0999" y2="277.0999"/><line style="stroke:#000000;stroke-width:1;" x1="604.8334" x2="604.8334" y1="272.0999" y2="277.0999"/><line style="stroke:#000000;stroke-width:1;" x1="654.8334" x2="654.8334" y1="272.0999" y2="277.0999"/><line style="stroke:#000000;stroke-width:1;" x1="704.8334" x2="704.8334" y1="272.0999" y2="277.0999"/><line style="stroke:#000000;stroke-width:1;" x1="754.8334" x2="754.8334" y1="272.0999" y2="277.0999"/><line style="stroke:#000000;stroke-width:1;" x1="804.8334" x2="804.8334" y1="272.0999" y2="277.0999"/><line style="stroke:#000000;stroke-width:1;" x1="854.8334" x2="854.8334" y1="272.0999" y2="277.0999"/><line style="stroke:#000000;stroke-width:1;" x1="904.8334" x2="904.8334" y1="272.0999" y2="277.0999"/><line style="stroke:#000000;stroke-width:1;" x1="954.8334" x2="954.8334" y1="272.0999" y2="277.0999"/><line style="stroke:#000000;stroke-width:1;" x1="1004.8334" x2="1004.8334" y1="272.0999" y2="277.0999"/><line style="stroke:#000000;stroke-width:1;" x1="1054.8334" x2="1054.8334" y1="272.0999" y2="277.0999"/><line style="stroke:#000000;stroke-width:1;" x1="1104.8334" x2="1104.8334" y1="272.0999" y2="277.0999"/><line style="stroke:#000000;stroke-width:1;" x1="1154.8334" x2="1154.8334" y1="272.0999" y2="277.0999"/><line style="stroke:#000000;stroke-width:1;" x1="1204.8334" x2="1204.8334" y1="272.0999" y2="277.0999"/><line style="stroke:#000000;stroke-width:1;" x1="1254.8334" x2="1254.8334" y1="272.0999" y2="277.0999"/><line style="stroke:#000000;stroke-width:1;" x1="1304.8334" x2="1304.8334" y1="272.0999" y2="277.0999"/><line style="stroke:#000000;stroke-width:1;" x1="1354.8334" x2="1354.8334" y1="272.0999" y2="277.0999"/><line style="stroke:#000000;stroke-width:1;" x1="1404.8334" x2="1404.8334" y1="272.0999" y2="277.0999"/><line style="stroke:#000000;stroke-width:1;" x1="1454.8334" x2="1454.8334" y1="272.0999" y2="277.0999"/><line style="stroke:#000000;stroke-width:1;" x1="1504.8334" x2="1504.8334" y1="272.0999" y2="277.0999"/><line style="stroke:#000000;stroke-width:1;" x1="1554.8334" x2="1554.8334" y1="272.0999" y2="277.0999"/><line style="stroke:#000000;stroke-width:1;" x1="1604.8334" x2="1604.8334" y1="272.0999" y2="277.0999"/><line style="stroke:#000000;stroke-width:1;" x1="1654.8334" x2="1654.8334" y1="272.0999" y2="277.0999"/><line style="stroke:#000000;stroke-width:1;" x1="1704.8334" x2="1704.8334" y1="272.0999" y2="277.0999"/><line style="stroke:#000000;stroke-width:1;" x1="1754.8334" x2="1754.8334" y1="272.0999" y2="277.0999"/><line style="stroke:#000000;stroke-width:1;" x1="1804.8334" x2="1804.8334" y1="272.0999" y2="277.0999"/><line style="stroke:#000000;stroke-width:1;" x1="1854.8334" x2="1854.8334" y1="272.0999" y2="277.0999"/><line style="stroke:#000000;stroke-width:1;" x1="1904.8334" x2="1904.8334" y1="272.0999" y2="277.0999"/><line style="stroke:#000000;stroke-width:1;" x1="1954.8334" x2="1954.8334" y1="272.0999" y2="277.0999"/><line style="stroke:#000000;stroke-width:1;" x1="2004.8334" x2="2004.8334" y1="272.0999" y2="277.0999"/><line style="stroke:#000000;stroke-width:1;" x1="2054.8334" x2="2054.8334" y1="272.0999" y2="277.0999"/><line style="stroke:#000000;stroke-width:1;" x1="2104.8334" x2="2104.8334" y1="272.0999" y2="277.0999"/><line style="stroke:#000000;stroke-width:1;" x1="2154.8334" x2="2154.8334" y1="272.0999" y2="277.0999"/><line style="stroke:#000000;stroke-width:1;" x1="2204.8334" x2="2204.8334" y1="272.0999" y2="277.0999"/><line style="stroke:#000000;stroke-width:1;" x1="2254.8334" x2="2254.8334" y1="272.0999" y2="277.0999"/><line style="stroke:#000000;stroke-width:1;" x1="2304.8334" x2="2304.8334" y1="272.0999" y2="277.0999"/><line style="stroke:#000000;stroke-width:1;" x1="2354.8334" x2="2354.8334" y1="272.0999" y2="277.0999"/><line style="stroke:#000000;stroke-width:1;" x1="2404.8334" x2="2404.8334" y1="272.0999" y2="277.0999"/><line style="stroke:#000000;stroke-width:1;" x1="2454.8334" x2="2454.8334" y1="272.0999" y2="277.0999"/><line style="stroke:#000000;stroke-width:1;" x1="2504.8334" x2="2504.8334" y1="272.0999" y2="277.0999"/><line style="stroke:#000000;stroke-width:1;" x1="2554.8334" x2="2554.8334" y1="272.0999" y2="277.0999"/><line style="stroke:#000000;stroke-width:1;" x1="2604.8334" x2="2604.8334" y1="272.0999" y2="277.0999"/><line style="stroke:#000000;stroke-width:1;" x1="2654.8334" x2="2654.8334" y1="272.0999" y2="277.0999"/><line style="stroke:#000000;stroke-width:1;" x1="2704.8334" x2="2704.8334" y1="272.0999" y2="277.0999"/><line style="stroke:#000000;stroke-width:1;" x1="2754.8334" x2="2754.8334" y1="272.0999" y2="277.0999"/><line style="stroke:#000000;stroke-width:1;" x1="2804.8334" x2="2804.8334" y1="272.0999" y2="277.0999"/><line style="stroke:#000000;stroke-width:1;" x1="2854.8334" x2="2854.8334" y1="272.0999" y2="277.0999"/><line style="stroke:#000000;stroke-width:1;" x1="2904.8334" x2="2904.8334" y1="272.0999" y2="277.0999"/><line style="stroke:#000000;stroke-width:1;" x1="2954.8334" x2="2954.8334" y1="272.0999" y2="277.0999"/><line style="stroke:#000000;stroke-width:1;" x1="3004.8334" x2="3004.8334" y1="272.0999" y2="277.0999"/><line style="stroke:#000000;stroke-width:1;" x1="3054.8334" x2="3054.8334" y1="272.0999" y2="277.0999"/><line style="stroke:#000000;stroke-width:1;" x1="3104.8334" x2="3104.8334" y1="272.0999" y2="277.0999"/><line style="stroke:#000000;stroke-width:1;" x1="3154.8334" x2="3154.8334" y1="272.0999" y2="277.0999"/><line style="stroke:#000000;stroke-width:1;" x1="3204.8334" x2="3204.8334" y1="272.0999" y2="277.0999"/><line style="stroke:#000000;stroke-width:1;" x1="3254.8334" x2="3254.8334" y1="272.0999" y2="277.0999"/><line style="stroke:#000000;stroke-width:1;" x1="3304.8334" x2="3304.8334" y1="272.0999" y2="277.0999"/><line style="stroke:#000000;stroke-width:1;" x1="3354.8334" x2="3354.8334" y1="272.0999" y2="277.0999"/><line style="stroke:#000000;stroke-width:1;" x1="3404.8334" x2="3404.8334" y1="272.0999" y2="277.0999"/><line style="stroke:#000000;stroke-width:1;" x1="3454.8334" x2="3454.8334" y1="272.0999" y2="277.0999"/><line style="stroke:#000000;stroke-width:1;" x1="3504.8334" x2="3504.8334" y1="272.0999" y2="277.0999"/><line style="stroke:#000000;stroke-width:1;" x1="3554.8334" x2="3554.8334" y1="272.0999" y2="277.0999"/><line style="stroke:#000000;stroke-width:1;" x1="3604.8334" x2="3604.8334" y1="272.0999" y2="277.0999"/><line style="stroke:#000000;stroke-width:1;" x1="3654.8334" x2="3654.8334" y1="272.0999" y2="277.0999"/><line style="stroke:#000000;stroke-width:1;" x1="3704.8334" x2="3704.8334" y1="272.0999" y2="277.0999"/><line style="stroke:#000000;stroke-width:1;" x1="3754.8334" x2="3754.8334" y1="272.0999" y2="277.0999"/><line style="stroke:#000000;stroke-width:1;" x1="204.8334" x2="3754.8334" y1="272.0999" y2="272.0999"/><text fill="#000000" font-family="Verdana" font-size="11" lengthAdjust="spacing" textLength="6.2919" x="201.6874" y="289.8588">0</text><text fill="#000000" font-family="Verdana" font-size="11" lengthAdjust="spacing" textLength="6.2919" x="206.6874" y="289.8588">1</text><text fill="#000000" font-family="Verdana" font-size="11" lengthAdjust="spacing" textLength="18.8758" x="695.3955" y="289.8588">100</text><text fill="#000000" font-family="Verdana" font-size="11" lengthAdjust="spacing" textLength="18.8758" x="2445.3955" y="289.8588">450</text><text fill="#000000" font-family="Verdana" font-size="11" lengthAdjust="spacing" textLength="18.8758" x="2450.3955" y="289.8588">451</text><text fill="#000000" font-family="Verdana" font-size="11" lengthAdjust="spacing" textLength="18.8758" x="3695.3955" y="289.8588">700</text><?plantuml-src RO_1JiCm44Jl_eh59-UMIaMSa09g9KI5a98YZf6JhD9L7Hli3QX_ZqdIAeKSnpEUVNF31-mGFemcAmGJ6uHy_rf0GHtalMMAxfuwiYqKHpJ8peBQuGcsNsWv949uL_M1GHwSQT1dgGGTu6aG5-zR4r-yzq48aQLYZ045aC-kocE_3jX8CKR-lujiDV-JOt2zh_6X_kp9e_9f8kT-WMqNAGlMdbN0zjUE5MawFp257eshZzWeFtMMaVmqvDUtLw0Rr8qXYoyKWjALyrmwMtPHtRFlyPhWJ3XDKBMsDPeoZ3SJkG3oPgiHPRozMeZy6NItE6XhctFa1m00?></g></svg>